<svg fill="none" height="432" viewBox="0 0 375 432" width="375" xmlns="http://www.w3.org/2000/svg">
    <path
        d="M392.592 359H392.413C385.284 359 378.979 362.792 375.353 368.389C371.726 362.792 365.422 359 358.293 359H358.113C352.763 359.051 347.65 361.223 343.883 365.044C340.117 368.864 338.003 374.025 338 379.403C338 386.083 340.91 395.56 346.584 403.359C357.394 418.219 375.353 431.22 375.353 431.22C375.353 431.22 393.311 418.222 404.119 403.359C409.796 395.56 412.703 386.083 412.703 379.403C412.7 374.025 410.586 368.865 406.821 365.044C403.055 361.224 397.942 359.052 392.592 359ZM390.029 404.502C389.217 404.499 388.425 404.25 387.757 403.786C387.089 403.322 386.576 402.666 386.285 401.904H382.023C381.742 401.902 381.469 401.812 381.242 401.647C381.014 401.481 380.844 401.249 380.755 400.981L379.445 397.016L375.303 411.569C375.222 411.849 375.053 412.095 374.821 412.27C374.59 412.446 374.307 412.541 374.017 412.541H373.934C373.631 412.527 373.343 412.408 373.116 412.205C372.89 412.002 372.74 411.728 372.691 411.427L368.422 385.612L365.302 400.888C365.231 401.178 365.064 401.436 364.83 401.62C364.596 401.804 364.307 401.904 364.01 401.904H358.006C357.826 401.911 357.646 401.882 357.478 401.818C357.309 401.754 357.155 401.657 357.025 401.532C356.895 401.406 356.792 401.256 356.721 401.089C356.65 400.923 356.614 400.743 356.614 400.562C356.614 400.381 356.65 400.202 356.721 400.035C356.792 399.869 356.895 399.718 357.025 399.593C357.155 399.468 357.309 399.37 357.478 399.306C357.646 399.242 357.826 399.213 358.006 399.221H362.958L367.378 378.683C367.451 378.379 367.626 378.11 367.874 377.922C368.122 377.734 368.427 377.638 368.737 377.651C369.048 377.664 369.344 377.785 369.575 377.994C369.807 378.202 369.959 378.485 370.006 378.793L374.366 405.127L378.079 392.107C378.156 391.832 378.32 391.591 378.545 391.418C378.77 391.244 379.045 391.149 379.328 391.146H379.355C379.635 391.146 379.909 391.235 380.136 391.401C380.364 391.566 380.533 391.8 380.621 392.068L382.988 399.228H386.233C386.463 398.524 386.883 397.897 387.446 397.417C388.008 396.937 388.692 396.623 389.421 396.509C390.15 396.395 390.896 396.486 391.577 396.771C392.258 397.057 392.847 397.526 393.28 398.127C393.712 398.728 393.971 399.437 394.028 400.177C394.085 400.916 393.937 401.657 393.602 402.318C393.266 402.978 392.756 403.533 392.126 403.92C391.497 404.307 390.774 404.512 390.036 404.512L390.029 404.502Z"
        fill="#FF4A4A" fill-opacity="0.08" />
    <path
        d="M17.5923 0H17.4131C10.2841 0 3.97943 3.79247 0.352852 9.38871C-3.27373 3.79247 -9.57844 0 -16.7074 0H-16.8866C-22.2366 0.051257 -27.3504 2.22313 -31.1166 6.04363C-34.8828 9.86414 -36.9971 15.0246 -37 20.4035C-37 27.0829 -34.0901 36.5605 -28.4161 44.3592C-17.6057 59.2193 0.352852 72.2203 0.352852 72.2203C0.352852 72.2203 18.3114 59.2217 29.1194 44.3592C34.7958 36.5605 37.7033 27.0829 37.7033 20.4035C37.7004 15.025 35.5865 9.86491 31.8208 6.04447C28.0551 2.22403 22.9419 0.0518858 17.5923 0ZM15.0288 45.5025C14.2169 45.4994 13.4249 45.2495 12.7568 44.7857C12.0887 44.3219 11.5757 43.6659 11.2852 42.9037H7.02309C6.74243 42.9019 6.46932 42.8121 6.24189 42.6468C6.01447 42.4814 5.84407 42.2488 5.7545 41.9814L4.4453 38.016L0.302677 52.5686C0.222008 52.8488 0.0531197 53.095 -0.178646 53.2704C-0.410412 53.4458 -0.692539 53.5409 -0.982635 53.5414H-1.06625C-1.36893 53.5266 -1.65744 53.408 -1.88354 53.2051C-2.10965 53.0023 -2.25968 52.7276 -2.30856 52.4269L-6.5778 26.6122L-9.6979 41.8877C-9.76944 42.1779 -9.9356 42.4356 -10.1699 42.6198C-10.4041 42.8039 -10.693 42.9039 -10.9904 42.9037H-16.9941C-17.174 42.9114 -17.3537 42.8823 -17.5222 42.8184C-17.6907 42.7544 -17.8447 42.6568 -17.9747 42.5315C-18.1047 42.4062 -18.2082 42.2557 -18.2789 42.0892C-18.3496 41.9226 -18.386 41.7434 -18.386 41.5623C-18.386 41.3812 -18.3496 41.202 -18.2789 41.0354C-18.2082 40.8688 -18.1047 40.7184 -17.9747 40.593C-17.8447 40.4677 -17.6907 40.3702 -17.5222 40.3062C-17.3537 40.2422 -17.174 40.2132 -16.9941 40.2209H-12.0416L-7.62181 19.6829C-7.54926 19.3793 -7.37404 19.1104 -7.12612 18.9222C-6.8782 18.7341 -6.57298 18.6383 -6.26263 18.6514C-5.95227 18.6644 -5.65606 18.7855 -5.42463 18.9938C-5.19321 19.2021 -5.04094 19.4847 -4.99385 19.7934L-0.633827 46.1269L3.07876 33.1067C3.15606 32.8325 3.31951 32.5907 3.5447 32.4176C3.76989 32.2444 4.04476 32.1491 4.32824 32.146H4.35452C4.6353 32.146 4.90887 32.2353 5.13624 32.4009C5.36361 32.5665 5.53316 32.8 5.62072 33.0682L7.98827 40.2281H11.2326C11.4633 39.5235 11.8831 38.8968 12.4457 38.4169C13.0083 37.9371 13.6919 37.6229 14.4209 37.509C15.1499 37.395 15.8961 37.4858 16.577 37.7713C17.258 38.0568 17.8472 38.5258 18.2798 39.1267C18.7123 39.7276 18.9712 40.437 19.0281 41.1765C19.0849 41.916 18.9374 42.657 18.6018 43.3175C18.2663 43.9781 17.7557 44.5326 17.1264 44.9199C16.4972 45.3071 15.7738 45.5121 15.036 45.5121L15.0288 45.5025Z"
        fill="#FF4A4A" fill-opacity="0.08" />
</svg>
