<svg fill="none" height="62" viewBox="0 0 62 62" width="62" xmlns="http://www.w3.org/2000/svg">
    <rect height="61" rx="13.5" stroke="#F2F2F2" width="61" x="0.5" y="0.5" />
    <g clip-path="url(#clip0)">
        <path
            d="M19.8871 27.71C20.7006 25.2486 22.2707 23.1071 24.3733 21.5909C26.4759 20.0746 29.0037 19.2611 31.596 19.2665C34.5346 19.2665 37.1914 20.3097 39.278 22.0172L45.3498 15.9471C41.6496 12.7217 36.908 10.7308 31.596 10.7308C23.3716 10.7308 16.2913 15.422 12.8867 22.2937L19.8871 27.71Z"
            fill="#EA4335" />
        <path
            d="M38.6208 42.0515C36.7255 43.2738 34.319 43.9259 31.5961 43.9259C29.0141 43.9312 26.4959 43.1242 24.398 41.6191C22.3 40.1141 20.7286 37.9872 19.9063 35.5397L12.8816 40.8726C14.6052 44.3611 17.2725 47.2963 20.5806 49.3449C23.8887 51.3934 27.7051 52.4732 31.5961 52.4616C36.6959 52.4616 41.568 50.648 45.2177 47.2452L38.6225 42.0515H38.6208Z"
            fill="#34A853" />
        <path
            d="M45.2178 47.2452C49.0344 43.6842 51.5122 38.3844 51.5122 31.5961C51.5122 30.3616 51.3227 29.0349 51.0393 27.8021H31.5962V35.8649H42.787C42.2358 38.5756 40.7526 40.6743 38.6226 42.0514L45.2178 47.2452Z"
            fill="#4A90E2" />
        <path
            d="M19.9065 35.5397C19.4811 34.2685 19.265 32.9367 19.2666 31.5962C19.2666 30.2365 19.4839 28.9306 19.8873 27.71L12.887 22.2937C11.4549 25.1848 10.7167 28.3699 10.7309 31.5962C10.7309 34.9346 11.5047 38.0818 12.8818 40.8726L19.9065 35.5397Z"
            fill="#FBBC05" />
    </g>
    <defs>
        <clipPath id="clip0">
            <rect fill="white" height="41.7308" transform="translate(10.7307 10.7308)"
                width="41.7308" />
        </clipPath>
    </defs>
</svg>
