<svg fill="none" height="244" viewBox="0 0 292 244" width="292" xmlns="http://www.w3.org/2000/svg">
    <g clip-path="url(#clip0)">
        <path
            d="M120.317 57.417H118.991V21.0489C118.991 18.2847 118.448 15.5476 117.391 12.9938C116.335 10.44 114.786 8.11961 112.834 6.16504C110.882 4.21046 108.565 2.66001 106.015 1.60221C103.464 0.544409 100.731 -3.1536e-05 97.9702 -2.28881e-05H21.0212C18.2606 -3.1536e-05 15.5271 0.544409 12.9767 1.60221C10.4263 2.66001 8.10895 4.21047 6.15695 6.16504C4.20495 8.11961 2.65654 10.44 1.60013 12.9938C0.543719 15.5476 -4.31824e-06 18.2847 0 21.0489V220.567C-2.59094e-06 223.331 0.543723 226.068 1.60014 228.622C2.65655 231.176 4.20496 233.496 6.15696 235.451C8.10895 237.406 10.4263 238.956 12.9767 240.014C15.5271 241.072 18.2606 241.616 21.0212 241.616H97.9702C100.731 241.616 103.464 241.072 106.015 240.014C108.565 238.956 110.882 237.406 112.834 235.451C114.786 233.496 116.335 231.176 117.391 228.622C118.448 226.068 118.991 223.331 118.991 220.567V83.3044H120.317V57.417Z"
            fill="#CDCDCD" />
        <path
            d="M98.8186 5.4762H88.7742C89.2361 6.61016 89.4124 7.84047 89.2876 9.05875C89.1628 10.277 88.7407 11.4459 88.0585 12.4623C87.3763 13.4788 86.4549 14.3116 85.3755 14.8875C84.2962 15.4634 83.0919 15.7647 81.8688 15.7648H37.7857C36.5626 15.7647 35.3584 15.4634 34.279 14.8875C33.1996 14.3116 32.2782 13.4788 31.596 12.4623C30.9138 11.4459 30.4917 10.277 30.3669 9.05875C30.2421 7.84047 30.4185 6.61016 30.8804 5.4762H21.4989C19.4374 5.47619 17.396 5.88278 15.4914 6.67273C13.5868 7.46268 11.8562 8.62054 10.3985 10.0802C8.94076 11.5398 7.78443 13.2727 6.99551 15.1798C6.20659 17.0869 5.80054 19.131 5.80054 21.1952V220.421C5.80054 222.485 6.20659 224.529 6.99551 226.436C7.78442 228.343 8.94075 230.076 10.3985 231.536C11.8562 232.996 13.5868 234.153 15.4914 234.943C17.396 235.733 19.4374 236.14 21.4989 236.14H98.8186C100.88 236.14 102.921 235.733 104.826 234.943C106.731 234.153 108.461 232.996 109.919 231.536C111.377 230.076 112.533 228.343 113.322 226.436C114.111 224.529 114.517 222.485 114.517 220.421V21.1952C114.517 19.131 114.111 17.0869 113.322 15.1798C112.533 13.2727 111.377 11.5398 109.919 10.0802C108.461 8.62054 106.731 7.46268 104.826 6.67273C102.921 5.88278 100.88 5.47619 98.8186 5.4762Z"
            fill="white" />
        <path
            d="M37.3787 45.9766H32.7622C32.5999 45.9766 32.4442 46.0412 32.3294 46.1561C32.2146 46.271 32.1501 46.4269 32.1501 46.5894V48.6184C32.1501 48.781 32.2146 48.9369 32.3294 49.0518C32.4442 49.1667 32.5999 49.2313 32.7622 49.2313H33.5272V52.2715H36.6137V49.2313H37.3787C37.5411 49.2313 37.6967 49.1667 37.8115 49.0518C37.9263 48.9369 37.9908 48.781 37.9908 48.6184V46.5894C37.9908 46.4269 37.9263 46.271 37.8115 46.1561C37.6967 46.0412 37.5411 45.9766 37.3787 45.9766Z"
            fill="#CDCDCD" />
        <path
            d="M42.0029 64.546C39.1756 60.4035 37.7302 55.4712 37.8738 50.4557C37.8764 50.34 37.8389 50.2269 37.7677 50.1357C37.6964 50.0446 37.5959 49.9809 37.4831 49.9555V49.0788H32.6074V49.9433H32.5403C32.4076 49.9435 32.2804 49.9964 32.1867 50.0905C32.093 50.1846 32.0405 50.3121 32.0406 50.4449C32.0406 50.4571 32.0411 50.4692 32.042 50.4814C32.4261 55.8429 31.1291 60.651 28.1508 64.9056C27.9795 65.1501 27.8919 65.4437 27.9013 65.7423L28.4344 82.2553C28.4473 82.6236 28.6016 82.9727 28.8654 83.2298C29.1291 83.4869 29.4818 83.632 29.8498 83.6349H40.8778C41.2501 83.6319 41.6064 83.4834 41.871 83.2212C42.1355 82.9589 42.2873 82.6036 42.2941 82.2309L42.4995 66.1982C42.5056 65.6097 42.3324 65.0334 42.0029 64.546Z"
            fill="#CDCDCD" />
        <path
            d="M40.2569 70.0311H30.6579C30.5158 70.0311 30.3754 70.0619 30.2463 70.1213C30.1172 70.1807 30.0024 70.2674 29.9099 70.3754C29.8174 70.4834 29.7493 70.6101 29.7103 70.7469C29.6712 70.8837 29.6622 71.0274 29.6838 71.168L31.1344 80.609H39.4636L41.2255 71.1998C41.2522 71.0573 41.2472 70.9106 41.2109 70.7703C41.1745 70.6299 41.1077 70.4993 41.0153 70.3877C40.9228 70.2761 40.8069 70.1864 40.6758 70.1247C40.5447 70.0631 40.4017 70.0311 40.2569 70.0311Z"
            fill="white" />
        <path
            d="M88.7696 95.4433H84.1531C83.9907 95.4433 83.8351 95.5079 83.7203 95.6228C83.6055 95.7378 83.541 95.8936 83.541 96.0562V98.0852C83.541 98.2477 83.6055 98.4036 83.7203 98.5186C83.8351 98.6335 83.9907 98.6981 84.1531 98.6981H84.9181V101.738H88.0046V98.6981H88.7696C88.9319 98.6981 89.0876 98.6335 89.2024 98.5185C89.3172 98.4036 89.3817 98.2477 89.3817 98.0852V96.0562C89.3817 95.8936 89.3172 95.7378 89.2024 95.6228C89.0876 95.5079 88.9319 95.4433 88.7696 95.4433Z"
            fill="#CDCDCD" />
        <path
            d="M93.3935 114.013C90.5662 109.87 89.1208 104.938 89.2644 99.9224C89.267 99.8067 89.2295 99.6936 89.1583 99.6024C89.0871 99.5113 88.9865 99.4476 88.8737 99.4222V98.5455H83.9981V99.41H83.9309C83.8652 99.4101 83.8002 99.4231 83.7395 99.4484C83.6788 99.4736 83.6237 99.5106 83.5773 99.5572C83.5309 99.6038 83.4942 99.659 83.4691 99.7199C83.444 99.7807 83.4312 99.8458 83.4313 99.9116C83.4313 99.9238 83.4317 99.9359 83.4326 99.9481C83.8167 105.31 82.5197 110.118 79.5415 114.372C79.3701 114.617 79.2825 114.91 79.2919 115.209L79.8251 131.722C79.8379 132.09 79.9923 132.439 80.256 132.696C80.5197 132.954 80.8724 133.099 81.2405 133.102H92.2685C92.6407 133.099 92.9971 132.95 93.2616 132.688C93.5261 132.426 93.678 132.07 93.6847 131.698L93.8902 115.665C93.8962 115.076 93.723 114.5 93.3935 114.013Z"
            fill="#CDCDCD" />
        <path
            d="M91.6477 119.498H82.0487C81.9067 119.498 81.7662 119.529 81.6371 119.588C81.508 119.647 81.3933 119.734 81.3008 119.842C81.2083 119.95 81.1401 120.077 81.1011 120.214C81.0621 120.35 81.0531 120.494 81.0747 120.635L82.5252 130.076H90.8545L92.6164 120.667C92.6431 120.524 92.6381 120.377 92.6017 120.237C92.5654 120.097 92.4986 119.966 92.4061 119.854C92.3136 119.743 92.1977 119.653 92.0667 119.591C91.9356 119.53 91.7926 119.498 91.6478 119.498H91.6477Z"
            fill="white" />
        <path
            d="M30.8886 165.375H28.6988C28.6218 165.375 28.5479 165.405 28.4935 165.46C28.439 165.514 28.4084 165.588 28.4084 165.665V166.628C28.4084 166.705 28.439 166.779 28.4935 166.833C28.5479 166.888 28.6218 166.919 28.6988 166.919H29.0617V168.361H30.5257V166.919H30.8886C30.9656 166.919 31.0394 166.888 31.0939 166.833C31.1483 166.779 31.1789 166.705 31.1789 166.628V165.665C31.1789 165.588 31.1483 165.514 31.0939 165.46C31.0394 165.405 30.9656 165.375 30.8886 165.375Z"
            fill="#CDCDCD" />
        <path
            d="M33.0819 174.183C31.7408 172.218 31.0552 169.878 31.1233 167.499C31.1245 167.444 31.1067 167.391 31.073 167.348C31.0392 167.304 30.9915 167.274 30.938 167.262V166.846H28.6252V167.256H28.5934C28.5622 167.256 28.5313 167.263 28.5026 167.275C28.4738 167.287 28.4477 167.304 28.4256 167.326C28.4036 167.348 28.3862 167.374 28.3743 167.403C28.3624 167.432 28.3563 167.463 28.3564 167.494C28.3564 167.5 28.3566 167.506 28.357 167.512C28.5705 169.939 27.9164 172.364 26.5113 174.354C26.43 174.47 26.3884 174.609 26.3929 174.75L26.6458 182.583C26.6518 182.758 26.7251 182.924 26.8502 183.046C26.9753 183.168 27.1426 183.236 27.3172 183.238H32.5482C32.7248 183.236 32.8939 183.166 33.0193 183.042C33.1448 182.917 33.2168 182.749 33.22 182.572L33.3175 174.967C33.3204 174.688 33.2382 174.414 33.0819 174.183Z"
            fill="#CDCDCD" />
        <path d="M32.329 177.062H27.3376V179.561H32.329V177.062Z" fill="white" />
        <path
            d="M41.0822 165.375H38.8924C38.8154 165.375 38.7415 165.405 38.6871 165.46C38.6326 165.514 38.6021 165.588 38.6021 165.665V166.628C38.6021 166.705 38.6326 166.779 38.6871 166.833C38.7415 166.888 38.8154 166.919 38.8924 166.919H39.2553V168.361H40.7193V166.919H41.0822C41.1592 166.919 41.2331 166.888 41.2875 166.833C41.3419 166.779 41.3725 166.705 41.3725 166.628V165.665C41.3725 165.588 41.3419 165.514 41.2875 165.46C41.2331 165.405 41.1592 165.375 41.0822 165.375Z"
            fill="#CDCDCD" />
        <path
            d="M43.2755 174.183C41.9344 172.218 41.2488 169.878 41.3169 167.499C41.3181 167.444 41.3003 167.391 41.2666 167.348C41.2328 167.304 41.1851 167.274 41.1316 167.262V166.846H38.8188V167.256H38.787C38.7558 167.256 38.725 167.263 38.6962 167.275C38.6674 167.287 38.6413 167.304 38.6193 167.326C38.5973 167.348 38.5798 167.374 38.5679 167.403C38.556 167.432 38.5499 167.463 38.55 167.494C38.55 167.5 38.5502 167.506 38.5506 167.512C38.7641 169.939 38.11 172.364 36.7049 174.354C36.6236 174.47 36.582 174.609 36.5865 174.75L36.8394 182.583C36.8455 182.758 36.9187 182.924 37.0438 183.046C37.1689 183.168 37.3362 183.236 37.5108 183.238H42.7419C42.9184 183.236 43.0875 183.166 43.2129 183.042C43.3384 182.917 43.4104 182.749 43.4136 182.572L43.5111 174.967C43.514 174.688 43.4318 174.414 43.2755 174.183Z"
            fill="#CDCDCD" />
        <path d="M42.5228 177.062H37.5315V179.561H42.5228V177.062Z" fill="white" />
        <path
            d="M51.2758 165.375H49.086C49.009 165.375 48.9351 165.405 48.8807 165.46C48.8262 165.514 48.7957 165.588 48.7957 165.665V166.628C48.7957 166.705 48.8262 166.779 48.8807 166.833C48.9351 166.888 49.009 166.919 49.086 166.919H49.4489V168.361H50.9129V166.919H51.2758C51.3528 166.919 51.4267 166.888 51.4811 166.833C51.5356 166.779 51.5661 166.705 51.5661 166.628V165.665C51.5661 165.588 51.5356 165.514 51.4811 165.46C51.4267 165.405 51.3528 165.375 51.2758 165.375Z"
            fill="#CDCDCD" />
        <path
            d="M53.4694 174.183C52.1282 172.218 51.4426 169.878 51.5108 167.499C51.512 167.444 51.4942 167.391 51.4604 167.348C51.4266 167.304 51.3789 167.274 51.3254 167.262V166.846H49.0127V167.256H48.9808C48.9496 167.256 48.9188 167.263 48.89 167.275C48.8612 167.287 48.8351 167.304 48.8131 167.326C48.7911 167.348 48.7736 167.374 48.7618 167.403C48.7499 167.432 48.7438 167.463 48.7438 167.494C48.7438 167.5 48.744 167.506 48.7445 167.512C48.9579 169.939 48.3038 172.364 46.8987 174.354C46.8174 174.47 46.7759 174.609 46.7804 174.75L47.0332 182.583C47.0393 182.758 47.1125 182.924 47.2376 183.046C47.3627 183.168 47.53 183.236 47.7046 183.238H52.9357C53.1123 183.236 53.2813 183.166 53.4068 183.042C53.5323 182.917 53.6043 182.749 53.6075 182.572L53.7049 174.967C53.7078 174.688 53.6257 174.414 53.4694 174.183Z"
            fill="#CDCDCD" />
        <path d="M52.7164 177.062H47.7251V179.561H52.7164V177.062Z" fill="white" />
        <path
            d="M80.7496 146.238H76.1331C76.0527 146.238 75.9731 146.254 75.8988 146.285C75.8246 146.315 75.7571 146.361 75.7003 146.417C75.6434 146.474 75.5983 146.542 75.5676 146.616C75.5368 146.691 75.521 146.77 75.521 146.851V148.88C75.521 149.042 75.5855 149.198 75.7003 149.313C75.8151 149.428 75.9707 149.493 76.1331 149.493H76.8981V152.533H79.9846V149.493H80.7496C80.9119 149.493 81.0676 149.428 81.1824 149.313C81.2972 149.198 81.3616 149.042 81.3616 148.88V146.851C81.3616 146.77 81.3458 146.691 81.315 146.616C81.2843 146.542 81.2392 146.474 81.1824 146.417C81.1255 146.361 81.0581 146.315 80.9838 146.285C80.9096 146.254 80.83 146.238 80.7496 146.238Z"
            fill="#CDCDCD" />
        <path
            d="M85.3735 164.807C82.5462 160.665 81.1008 155.733 81.2444 150.717C81.247 150.601 81.2095 150.488 81.1383 150.397C81.0671 150.306 80.9665 150.242 80.8537 150.217V149.34H75.9781V150.205H75.9109C75.8452 150.205 75.7801 150.218 75.7195 150.243C75.6588 150.268 75.6037 150.305 75.5573 150.352C75.5109 150.398 75.4741 150.454 75.4491 150.515C75.424 150.575 75.4112 150.641 75.4112 150.706C75.4113 150.718 75.4117 150.731 75.4126 150.743C75.7967 156.104 74.4997 160.912 71.5215 165.167C71.3501 165.412 71.2625 165.705 71.2719 166.004L71.8051 182.517C71.8179 182.885 71.9722 183.234 72.236 183.491C72.4997 183.748 72.8524 183.893 73.2204 183.896H84.2485C84.6207 183.893 84.9771 183.745 85.2416 183.483C85.5061 183.22 85.658 182.865 85.6647 182.492L85.8702 166.46C85.8762 165.871 85.703 165.295 85.3735 164.807Z"
            fill="#CDCDCD" />
        <path
            d="M83.6277 170.293H74.0287C73.8866 170.293 73.7462 170.323 73.6171 170.383C73.488 170.442 73.3733 170.529 73.2808 170.637C73.1882 170.745 73.1201 170.872 73.0811 171.008C73.0421 171.145 73.0331 171.289 73.0547 171.429L74.5052 180.87H82.8345L84.5964 171.461C84.6231 171.319 84.6181 171.172 84.5817 171.032C84.5454 170.891 84.4786 170.761 84.3861 170.649C84.2936 170.538 84.1777 170.448 84.0467 170.386C83.9156 170.324 83.7726 170.293 83.6277 170.293Z"
            fill="white" />
        <path
            d="M83.2699 85.7607H55.751C57.6749 75.345 57.2323 62.7677 55.751 49.2417H83.2699C81.828 62.7678 81.3971 75.3451 83.2699 85.7607Z"
            fill="#CDCDCD" />
        <path
            d="M69.6762 73.145C73.3385 73.145 76.3073 70.1723 76.3073 66.5052C76.3073 62.8382 73.3385 59.8654 69.6762 59.8654C66.014 59.8654 63.0452 62.8382 63.0452 66.5052C63.0452 70.1723 66.014 73.145 69.6762 73.145Z"
            fill="white" />
        <path
            d="M58.0719 134.231H30.553C32.4769 123.816 32.0343 111.238 30.553 97.7124H58.0719C56.63 111.238 56.1991 123.816 58.0719 134.231Z"
            fill="#CDCDCD" />
        <path
            d="M44.4782 121.616C48.1405 121.616 51.1093 118.643 51.1093 114.976C51.1093 111.309 48.1405 108.336 44.4782 108.336C40.816 108.336 37.8472 111.309 37.8472 114.976C37.8472 118.643 40.816 121.616 44.4782 121.616Z"
            fill="white" />
        <path
            d="M98.8529 88.0847H71.334C73.2579 77.669 72.8153 65.0916 71.334 51.5656H98.8529C97.411 65.0917 96.9801 77.669 98.8529 88.0847Z"
            fill="#CDCDCD" />
        <path
            d="M85.2593 75.469C88.9215 75.469 91.8903 72.4962 91.8903 68.8292C91.8903 65.1621 88.9215 62.1893 85.2593 62.1893C81.597 62.1893 78.6282 65.1621 78.6282 68.8292C78.6282 72.4962 81.597 75.469 85.2593 75.469Z"
            fill="white" />
        <path
            d="M98.8529 86.4247H71.334C73.2579 76.009 72.8153 63.4317 71.334 49.9056H98.8529C97.411 63.4317 96.9801 76.009 98.8529 86.4247Z"
            fill="#CDCDCD" />
        <path
            d="M85.2593 73.809C88.9215 73.809 91.8903 70.8363 91.8903 67.1692C91.8903 63.5021 88.9215 60.5294 85.2593 60.5294C81.597 60.5294 78.6282 63.5021 78.6282 67.1692C78.6282 70.8363 81.597 73.809 85.2593 73.809Z"
            fill="white" />
        <path
            d="M98.8529 88.0847H71.334C73.2579 77.669 72.8153 65.0916 71.334 51.5656H98.8529C97.411 65.0917 96.9801 77.669 98.8529 88.0847Z"
            fill="#CDCDCD" />
        <path
            d="M85.2593 75.469C88.9215 75.469 91.8903 72.4962 91.8903 68.8292C91.8903 65.1621 88.9215 62.1893 85.2593 62.1893C81.597 62.1893 78.6282 65.1621 78.6282 68.8292C78.6282 72.4962 81.597 75.469 85.2593 75.469Z"
            fill="white" />
        <path d="M105.152 83.7688H14.97V93.7285H105.152V83.7688Z" fill="#CDCDCD" />
        <path d="M105.152 133.235H14.97V143.195H105.152V133.235Z" fill="#CDCDCD" />
        <path d="M105.152 182.702H14.97V192.662H105.152V182.702Z" fill="#CDCDCD" />
        <path
            d="M262.029 223.108L239.562 207.197C247.139 199.805 254.031 189.281 260.622 177.382L283.089 193.293C274.111 203.503 266.506 213.522 262.029 223.108Z"
            fill="#FF6767" />
        <path
            d="M262.035 206.168C265.697 206.168 268.666 203.195 268.666 199.528C268.666 195.861 265.697 192.888 262.035 192.888C258.373 192.888 255.404 195.861 255.404 199.528C255.404 203.195 258.373 206.168 262.035 206.168Z"
            fill="white" />
        <path
            d="M153.649 150.499H151.183C151.096 150.499 151.013 150.534 150.952 150.595C150.891 150.656 150.856 150.74 150.856 150.826V151.91C150.856 151.953 150.865 151.996 150.881 152.036C150.898 152.075 150.922 152.112 150.952 152.142C150.982 152.172 151.018 152.196 151.058 152.213C151.098 152.229 151.14 152.238 151.183 152.238H151.592V153.862H153.241V152.238H153.649C153.736 152.238 153.819 152.203 153.881 152.142C153.942 152.081 153.976 151.997 153.976 151.91V150.826C153.976 150.74 153.942 150.656 153.881 150.595C153.819 150.534 153.736 150.499 153.649 150.499Z"
            fill="#CDCDCD" />
        <path
            d="M156.12 160.419C154.609 158.206 153.837 155.571 153.914 152.892C153.915 152.83 153.895 152.77 153.857 152.721C153.819 152.672 153.765 152.638 153.705 152.625V152.156H151.1V152.618H151.065C151.029 152.618 150.995 152.625 150.962 152.639C150.93 152.652 150.9 152.672 150.876 152.697C150.851 152.722 150.831 152.751 150.818 152.784C150.804 152.816 150.798 152.851 150.798 152.886C150.798 152.893 150.798 152.899 150.798 152.906C151.039 155.64 150.302 158.37 148.72 160.611C148.628 160.742 148.581 160.899 148.586 161.058L148.871 169.88C148.878 170.076 148.96 170.263 149.101 170.4C149.242 170.538 149.431 170.615 149.627 170.617H155.519C155.717 170.615 155.908 170.536 156.049 170.396C156.19 170.256 156.272 170.066 156.275 169.867L156.385 161.302C156.388 160.987 156.296 160.679 156.12 160.419Z"
            fill="#FF6767" />
        <path
            d="M153.135 150.852C153.135 151.04 153.061 151.219 152.929 151.352C152.796 151.484 152.617 151.559 152.43 151.559C152.243 151.559 152.063 151.484 151.931 151.352C151.799 151.219 151.724 151.04 151.724 150.852"
            fill="black" opacity="0.2" />
        <path d="M154.972 162.119H149.999V165.439H154.972V162.119Z" fill="white" />
        <path
            d="M231.694 184.961H227.077C226.915 184.961 226.759 185.026 226.644 185.14C226.53 185.255 226.465 185.411 226.465 185.574V187.603C226.465 187.765 226.53 187.921 226.644 188.036C226.759 188.151 226.915 188.216 227.077 188.216H227.842V191.256H230.929V188.216H231.694C231.856 188.216 232.012 188.151 232.126 188.036C232.241 187.921 232.306 187.765 232.306 187.603V185.574C232.306 185.411 232.241 185.255 232.126 185.14C232.012 185.026 231.856 184.961 231.694 184.961Z"
            fill="#CDCDCD" />
        <path
            d="M236.318 203.53C233.49 199.388 232.045 194.456 232.189 189.44C232.191 189.324 232.154 189.211 232.082 189.12C232.011 189.029 231.911 188.965 231.798 188.94V188.063H226.922V188.928H226.855C226.789 188.928 226.724 188.941 226.664 188.966C226.603 188.991 226.548 189.028 226.501 189.075C226.455 189.121 226.418 189.177 226.393 189.238C226.368 189.298 226.355 189.364 226.355 189.429C226.355 189.441 226.356 189.454 226.357 189.466C226.741 194.827 225.444 199.635 222.466 203.89C222.294 204.134 222.207 204.428 222.216 204.727L222.749 221.24C222.762 221.608 222.916 221.957 223.18 222.214C223.444 222.471 223.796 222.616 224.165 222.619H235.193C235.565 222.616 235.921 222.468 236.186 222.206C236.45 221.943 236.602 221.588 236.609 221.215L236.814 205.183C236.82 204.594 236.647 204.018 236.318 203.53Z"
            fill="#FF6767" />
        <path
            d="M230.731 185.622C230.731 185.973 230.592 186.309 230.344 186.557C230.097 186.805 229.761 186.944 229.411 186.944C229.06 186.944 228.724 186.805 228.477 186.557C228.229 186.309 228.09 185.973 228.09 185.622"
            fill="black" opacity="0.2" />
        <path
            d="M234.572 209.016H224.973C224.831 209.016 224.69 209.046 224.561 209.106C224.432 209.165 224.317 209.252 224.225 209.36C224.132 209.468 224.064 209.594 224.025 209.731C223.986 209.868 223.977 210.012 223.999 210.152L225.449 219.593H233.779L235.54 210.184C235.567 210.042 235.562 209.895 235.526 209.755C235.489 209.614 235.423 209.484 235.33 209.372C235.238 209.261 235.122 209.171 234.991 209.109C234.86 209.047 234.717 209.016 234.572 209.016Z"
            fill="white" />
        <path
            d="M218.522 223.082H191.003C192.927 212.667 192.484 200.089 191.003 186.563H218.522C217.08 200.089 216.649 212.667 218.522 223.082Z"
            fill="#FF6767" />
        <path
            d="M204.928 210.467C208.59 210.467 211.559 207.494 211.559 203.827C211.559 200.16 208.59 197.187 204.928 197.187C201.266 197.187 198.297 200.16 198.297 203.827C198.297 207.494 201.266 210.467 204.928 210.467Z"
            fill="white" />
        <path d="M105.963 108.152L112.141 107.589L116.072 98.0296L109.052 94.0929L105.963 108.152Z"
            fill="#FFEFDE" />
        <path
            d="M162.659 134.397C162.864 133.884 162.945 133.329 162.894 132.779C162.844 132.229 162.663 131.698 162.368 131.231C162.072 130.765 161.67 130.375 161.195 130.094C160.719 129.813 160.184 129.65 159.633 129.617L150.041 129.044L148.629 133.747L158.503 136.462C159.328 136.689 160.208 136.604 160.974 136.223C161.741 135.842 162.34 135.192 162.659 134.397Z"
            fill="#FFEFDE" />
        <path
            d="M152.359 136.541L152.254 127.717L130.948 124.313L114.534 105.463C113.68 104.483 112.5 103.845 111.213 103.669C109.925 103.493 108.618 103.789 107.532 104.505C106.875 104.938 106.321 105.51 105.909 106.181C105.496 106.852 105.237 107.606 105.147 108.388C105.058 109.171 105.141 109.964 105.392 110.711C105.642 111.458 106.053 112.14 106.596 112.711L120.137 129.397L152.359 136.541Z"
            fill="#1D2366" />
        <path
            d="M101.189 235.807H106.805L120.735 172.742L135.167 192.225L143.591 234.401H148.926L147.803 189.132L128.989 140.769H110.456C105.391 149.947 101.418 159.408 105.963 169.168L101.189 235.807Z"
            fill="#2F2E41" />
        <path
            d="M140.148 239.638C140.086 239.837 140.067 240.047 140.092 240.254C140.118 240.461 140.187 240.66 140.295 240.838C140.403 241.016 140.548 241.169 140.719 241.287C140.891 241.405 141.086 241.484 141.291 241.521L155.034 243.963C155.577 244.062 156.138 243.959 156.61 243.674C157.083 243.388 157.434 242.939 157.599 242.411C157.759 241.907 157.737 241.362 157.536 240.873C157.335 240.384 156.968 239.981 156.5 239.735C153.478 238.182 150.878 235.918 148.921 233.138C147.411 234.546 145.723 234.413 143.93 233.376L142.028 233.614L140.148 239.638Z"
            fill="#2F2E41" />
        <path
            d="M98.5887 239.638C98.5266 239.837 98.5075 240.047 98.5328 240.254C98.5581 240.461 98.627 240.66 98.7352 240.838C98.8433 241.016 98.9881 241.169 99.1599 241.287C99.3317 241.405 99.5266 241.484 99.7316 241.521L113.474 243.963C114.017 244.062 114.578 243.959 115.051 243.674C115.523 243.388 115.875 242.939 116.04 242.411C116.2 241.907 116.177 241.362 115.976 240.873C115.775 240.384 115.409 239.981 114.941 239.735C111.919 238.182 109.318 235.918 107.362 233.138C105.851 234.546 104.163 234.413 102.37 233.376L100.469 233.614L98.5887 239.638Z"
            fill="#2F2E41" />
        <path
            d="M116.212 101.544C120.555 101.544 124.075 98.0193 124.075 93.6712C124.075 89.323 120.555 85.7981 116.212 85.7981C111.87 85.7981 108.35 89.323 108.35 93.6712C108.35 98.0193 111.87 101.544 116.212 101.544Z"
            fill="#FFEFDE" />
        <path
            d="M109.192 142.878L129.691 142.315L123.671 123.343C127.412 117.338 123.647 111.338 118.318 105.34L114.106 102.528L107.367 101.966C104.449 105.092 102.852 109.228 102.911 113.507C103.045 122.669 104.665 132.643 109.192 142.878Z"
            fill="#1D2366" />
        <path
            d="M156.289 155.648C156.68 155.257 156.972 154.779 157.142 154.253C157.311 153.727 157.354 153.169 157.265 152.623C157.177 152.077 156.961 151.561 156.634 151.115C156.307 150.67 155.879 150.309 155.385 150.062L146.792 145.757L143.646 149.524L151.657 155.91C152.327 156.443 153.169 156.712 154.023 156.663C154.878 156.615 155.684 156.254 156.289 155.648Z"
            fill="#FFEFDE" />
        <path
            d="M145.978 153.562L149.348 145.408L131.097 133.886L123.412 110.091C123.012 108.853 122.178 107.802 121.064 107.133C119.949 106.463 118.63 106.221 117.351 106.451C116.577 106.59 115.842 106.898 115.2 107.353C114.557 107.807 114.022 108.398 113.633 109.082C113.243 109.767 113.009 110.529 112.945 111.314C112.882 112.099 112.992 112.889 113.267 113.627L119.161 134.302L145.978 153.562Z"
            fill="#1D2366" />
        <path
            d="M103.295 90.5782C103.295 93.6416 105.282 98.3858 107.788 100.419C109.474 101.788 111.702 101.73 112.562 99.8571C113.443 97.9357 116.481 93.4193 121.828 90.5782C128.957 86.7908 119.3 80.3113 112.562 81.2993C107.498 82.0417 103.295 85.4536 103.295 90.5782Z"
            fill="#2F2E41" />
        <path
            d="M108.069 86.3605C111.171 86.3605 113.685 83.8427 113.685 80.7369C113.685 77.6311 111.171 75.1133 108.069 75.1133C104.967 75.1133 102.453 77.6311 102.453 80.7369C102.453 83.8427 104.967 86.3605 108.069 86.3605Z"
            fill="#2F2E41" />
        <path
            d="M114.527 78.7686C114.527 77.3509 113.991 75.9857 113.028 74.9468C112.064 73.9078 110.744 73.2719 109.333 73.1663C109.472 73.1559 109.612 73.1451 109.754 73.1451C111.243 73.1451 112.672 73.7375 113.725 74.7922C114.778 75.8468 115.37 77.2772 115.37 78.7686C115.37 80.2601 114.778 81.6905 113.725 82.7451C112.672 83.7997 111.243 84.3922 109.754 84.3922C109.612 84.3922 109.472 84.3813 109.333 84.3709C110.744 84.2654 112.064 83.6294 113.028 82.5905C113.991 81.5516 114.527 80.1864 114.527 78.7686Z"
            fill="#2F2E41" />
        <path
            d="M116.353 96.4829C117.051 96.4829 117.616 95.7276 117.616 94.7959C117.616 93.8641 117.051 93.1088 116.353 93.1088C115.655 93.1088 115.089 93.8641 115.089 94.7959C115.089 95.7276 115.655 96.4829 116.353 96.4829Z"
            fill="#FFEFDE" />
        <path
            d="M275.477 225.494H188.05L169.537 137.861H153.737V133.929H172.72L191.233 221.562H275.477V225.494Z"
            fill="black" />
        <path
            d="M200.862 241.504C205.51 241.504 209.277 237.732 209.277 233.078C209.277 228.424 205.51 224.652 200.862 224.652C196.215 224.652 192.447 228.424 192.447 233.078C192.447 237.732 196.215 241.504 200.862 241.504Z"
            fill="black" />
        <path
            d="M263.695 241.504C268.343 241.504 272.111 237.732 272.111 233.078C272.111 228.424 268.343 224.652 263.695 224.652C259.048 224.652 255.28 228.424 255.28 233.078C255.28 237.732 259.048 241.504 263.695 241.504Z"
            fill="black" />
        <path
            d="M273.883 223.643H188.822L173.814 149.377H287.967C288.55 149.377 289.125 149.503 289.654 149.747C290.183 149.991 290.653 150.347 291.032 150.79C291.41 151.234 291.689 151.754 291.847 152.315C292.006 152.876 292.041 153.465 291.951 154.041L277.866 220.231C277.721 221.184 277.239 222.052 276.508 222.678C275.776 223.304 274.845 223.647 273.883 223.643ZM189.746 222.519H273.883C274.577 222.522 275.249 222.275 275.777 221.823C276.305 221.371 276.653 220.744 276.757 220.057L290.842 153.867C290.908 153.451 290.882 153.026 290.768 152.621C290.653 152.216 290.452 151.84 290.179 151.52C289.906 151.2 289.567 150.943 289.185 150.767C288.803 150.591 288.388 150.5 287.967 150.5H175.176L189.746 222.519Z"
            fill="black" />
        <path d="M205.358 223.405L195.529 150.03L196.636 149.847L206.465 223.222L205.358 223.405Z"
            fill="black" />
        <path d="M260.009 222.841L258.901 222.662L268.443 149.848L269.551 150.028L260.009 222.841Z"
            fill="black" />
        <path d="M233.971 149.938H232.849V223.313H233.971V149.938Z" fill="black" />
        <path d="M179.545 169.6L179.542 170.723L288.153 170.987L288.155 169.863L179.545 169.6Z"
            fill="black" />
        <path d="M280.491 204.306L185.074 204.959L185.082 206.083L280.499 205.43L280.491 204.306Z"
            fill="black" />
        <path
            d="M155.42 138.703C158.828 138.703 161.591 137.194 161.591 135.333C161.591 133.471 158.828 131.962 155.42 131.962C152.012 131.962 149.249 133.471 149.249 135.333C149.249 137.194 152.012 138.703 155.42 138.703Z"
            fill="#1D2366" />
    </g>
    <defs>
        <clipPath id="clip0">
            <rect fill="white" height="244" width="292" />
        </clipPath>
    </defs>
</svg>
