<svg fill="none" height="166" viewBox="0 0 257 166" width="257" xmlns="http://www.w3.org/2000/svg">
    <path d="M208.836 5.70522L0.912109 35.8347L15.1648 134.805L223.089 104.675L208.836 5.70522Z"
        fill="#F1F1F1" />
    <path d="M204.113 15.0536L8.08008 43.46L19.9716 126.034L216.005 97.6272L204.113 15.0536Z"
        fill="white" />
    <path d="M207.924 8.54277e-08L0 30.1295L1.27603 38.9901L209.2 8.86066L207.924 8.54277e-08Z"
        fill="#E5E5E5" />
    <path
        d="M7.31435 36.0479C8.22793 36.0479 8.96854 35.305 8.96854 34.3885C8.96854 33.4721 8.22793 32.7292 7.31435 32.7292C6.40076 32.7292 5.66016 33.4721 5.66016 34.3885C5.66016 35.305 6.40076 36.0479 7.31435 36.0479Z"
        fill="white" />
    <path
        d="M13.5287 35.1474C14.4423 35.1474 15.1829 34.4045 15.1829 33.4881C15.1829 32.5716 14.4423 31.8287 13.5287 31.8287C12.6151 31.8287 11.8745 32.5716 11.8745 33.4881C11.8745 34.4045 12.6151 35.1474 13.5287 35.1474Z"
        fill="white" />
    <path
        d="M19.7435 34.2469C20.6571 34.2469 21.3978 33.504 21.3978 32.5875C21.3978 31.6711 20.6571 30.9282 19.7435 30.9282C18.83 30.9282 18.0894 31.6711 18.0894 32.5875C18.0894 33.504 18.83 34.2469 19.7435 34.2469Z"
        fill="white" />
    <path d="M256.6 48.2898H46.5176V148.287H256.6V48.2898Z" fill="#E6E6E6" />
    <path d="M250.592 56.8647H52.5244V140.296H250.592V56.8647Z" fill="white" />
    <path d="M256.51 42.5124H46.4277V51.465H256.51V42.5124Z" fill="#CBCBCB" />
    <path
        d="M53.06 49.4361C53.9735 49.4361 54.7142 48.6931 54.7142 47.7767C54.7142 46.8603 53.9735 46.1174 53.06 46.1174C52.1464 46.1174 51.4058 46.8603 51.4058 47.7767C51.4058 48.6931 52.1464 49.4361 53.06 49.4361Z"
        fill="white" />
    <path
        d="M59.3388 49.4361C60.2524 49.4361 60.993 48.6931 60.993 47.7767C60.993 46.8603 60.2524 46.1174 59.3388 46.1174C58.4252 46.1174 57.6846 46.8603 57.6846 47.7767C57.6846 48.6931 58.4252 49.4361 59.3388 49.4361Z"
        fill="white" />
    <path
        d="M65.6181 49.4361C66.5317 49.4361 67.2723 48.6931 67.2723 47.7767C67.2723 46.8603 66.5317 46.1174 65.6181 46.1174C64.7045 46.1174 63.9639 46.8603 63.9639 47.7767C63.9639 48.6931 64.7045 49.4361 65.6181 49.4361Z"
        fill="white" />
    <path d="M194.553 69.5493H166.657V71.6525H194.553V69.5493Z" fill="#E6E6E6" />
    <path d="M209.734 75.7236H166.657V77.8268H209.734V75.7236Z" fill="#E6E6E6" />
    <path d="M202.211 81.6037H167.105V83.7069H202.211V81.6037Z" fill="#E6E6E6" />
    <path d="M187.152 88.0556H166.657V90.1588H187.152V88.0556Z" fill="#E6E6E6" />
    <path d="M197.589 94.3578H166.657V96.4609H197.589V94.3578Z" fill="#E6E6E6" />
    <path d="M157.359 68.8877H153.943V72.3141H157.359V68.8877Z" fill="#E6E6E6" />
    <path d="M157.359 75.062H153.943V78.4883H157.359V75.062Z" fill="#E6E6E6" />
    <path d="M157.359 80.9421H153.943V84.3685H157.359V80.9421Z" fill="#E6E6E6" />
    <path d="M157.359 87.394H153.943V90.8204H157.359V87.394Z" fill="#E6E6E6" />
    <path d="M157.359 93.6962H153.943V97.1225H157.359V93.6962Z" fill="#E6E6E6" />
    <path d="M194.553 100.699H166.657V102.802H194.553V100.699Z" fill="#E6E6E6" />
    <path d="M209.734 106.874H166.657V108.977H209.734V106.874Z" fill="#E6E6E6" />
    <path d="M202.211 112.754H167.105V114.857H202.211V112.754Z" fill="#E6E6E6" />
    <path d="M187.152 119.206H166.657V121.309H187.152V119.206Z" fill="#E6E6E6" />
    <path d="M197.589 125.508H166.657V127.611H197.589V125.508Z" fill="#E6E6E6" />
    <path d="M157.359 100.038H153.943V103.464H157.359V100.038Z" fill="#E6E6E6" />
    <path d="M157.359 106.212H153.943V109.638H157.359V106.212Z" fill="#E6E6E6" />
    <path d="M157.359 112.092H153.943V115.519H157.359V112.092Z" fill="#E6E6E6" />
    <path d="M157.359 118.544H153.943V121.97H157.359V118.544Z" fill="#E6E6E6" />
    <path d="M157.359 124.846H153.943V128.273H157.359V124.846Z" fill="#E6E6E6" />
    <path d="M106.306 117.197H78.4106V119.3H106.306V117.197Z" fill="#E6E6E6" />
    <path d="M109.785 122.662H74.6782V124.765H109.785V122.662Z" fill="#E6E6E6" />
    <path
        d="M110.489 90.666C110.487 93.827 109.669 96.9337 108.113 99.6826C106.558 102.432 104.318 104.729 101.612 106.35C98.9072 107.971 95.829 108.861 92.6785 108.932C89.5281 109.003 86.4131 108.254 83.6377 106.757L83.6342 106.753C80.7993 105.221 78.4199 102.963 76.7385 100.208C75.057 97.453 74.1337 94.3003 74.0626 91.071C73.9914 87.8416 74.7749 84.6511 76.3333 81.8244C77.8917 78.9977 80.1693 76.636 82.9339 74.9798C85.6986 73.3237 88.8515 72.4323 92.0715 72.3965C95.2914 72.3607 98.4633 73.1817 101.264 74.776C104.064 76.3703 106.394 78.6809 108.014 81.4722C109.635 84.2635 110.488 87.4359 110.489 90.666V90.666Z"
        fill="#E6E6E6" />
    <path
        d="M92.3679 89.7791C95.1025 89.7791 97.3193 87.5554 97.3193 84.8123C97.3193 82.0692 95.1025 79.8455 92.3679 79.8455C89.6333 79.8455 87.4165 82.0692 87.4165 84.8123C87.4165 87.5554 89.6333 89.7791 92.3679 89.7791Z"
        fill="white" />
    <path
        d="M100.822 100.042C95.287 101.991 89.2512 101.967 83.7311 99.9753L83.7275 99.9728L87.4163 92.6687H97.3192L100.822 100.042Z"
        fill="white" />
    <path
        d="M37.5466 136.018C28.9163 136.018 21.895 128.536 21.895 119.339C21.895 110.143 28.9163 102.662 37.5466 102.662C46.1768 102.662 53.1981 110.143 53.1981 119.339C53.1981 128.536 46.1768 136.018 37.5466 136.018ZM37.5466 106.876C31.2327 106.876 26.0961 112.467 26.0961 119.339C26.0961 126.212 31.2327 131.803 37.5466 131.803C43.8604 131.803 48.9971 126.212 48.9971 119.339C48.9971 112.467 43.8604 106.876 37.5466 106.876Z"
        fill="#6C63FF" />
    <path
        d="M52.3682 165.083H22.7254C20.1113 165.08 17.6052 164.037 15.7568 162.183C13.9084 160.329 12.8687 157.815 12.8657 155.193V126.026C12.8677 124.231 13.5796 122.51 14.845 121.24C16.1105 119.971 17.8262 119.257 19.6159 119.255H55.4777C57.2673 119.257 58.9831 119.971 60.2486 121.24C61.514 122.51 62.2258 124.231 62.2278 126.026V155.193C62.2249 157.815 61.1852 160.329 59.3368 162.183C57.4884 164.037 54.9823 165.08 52.3682 165.083Z"
        fill="#3F3D56" />
    <path
        d="M43.3233 135.847C43.3241 134.817 43.0512 133.806 42.5326 132.917C42.014 132.028 41.2686 131.294 40.3731 130.79C39.4775 130.286 38.4643 130.03 37.4376 130.05C36.411 130.069 35.408 130.363 34.5322 130.9C33.6563 131.438 32.9391 132.2 32.4544 133.108C31.9698 134.016 31.7352 135.037 31.7748 136.067C31.8145 137.096 32.1269 138.096 32.6799 138.964C33.233 139.832 34.0066 140.536 34.9213 141.004V150.07H40.1726V141.004C41.1206 140.52 41.9166 139.781 42.4726 138.871C43.0287 137.961 43.3231 136.915 43.3233 135.847Z"
        fill="white" />
</svg>
