<svg fill="none" height="202" viewBox="0 0 202 202" width="202" xmlns="http://www.w3.org/2000/svg">
    <line stroke="#818181" stroke-width="2" x1="3" x2="3" y1="2" y2="39" />
    <line stroke="#818181" stroke-width="2" x1="2" x2="39" y1="1" y2="1" />
    <line stroke="#818181" stroke-width="2" x1="200" x2="163" y1="3" y2="3" />
    <line stroke="#818181" stroke-width="2" x1="201" x2="201" y1="2" y2="39" />
    <line stroke="#818181" stroke-width="2" x1="199" x2="199" y1="200" y2="163" />
    <line stroke="#818181" stroke-width="2" x1="200" x2="163" y1="201" y2="201" />
    <line stroke="#818181" stroke-width="2" x1="2" x2="39" y1="199" y2="199" />
    <line stroke="#818181" stroke-width="2" x1="1" x2="0.999998" y1="200" y2="163" />
    <path d="M195 7H7V195H195V7Z" fill="#FFFAFA" />
    <path d="M26.5833 18.75H18.75V26.5833H26.5833V18.75Z" fill="black" />
    <path d="M34.4167 18.75H26.5833V26.5833H34.4167V18.75Z" fill="black" />
    <path d="M42.25 18.75H34.4167V26.5833H42.25V18.75Z" fill="black" />
    <path d="M50.0833 18.75H42.25V26.5833H50.0833V18.75Z" fill="black" />
    <path d="M57.9167 18.75H50.0833V26.5833H57.9167V18.75Z" fill="black" />
    <path d="M65.75 18.75H57.9167V26.5833H65.75V18.75Z" fill="black" />
    <path d="M73.5833 18.75H65.75V26.5833H73.5833V18.75Z" fill="black" />
    <path d="M89.25 18.75H81.4167V26.5833H89.25V18.75Z" fill="black" />
    <path d="M104.917 18.75H97.0833V26.5833H104.917V18.75Z" fill="black" />
    <path d="M120.583 18.75H112.75V26.5833H120.583V18.75Z" fill="black" />
    <path d="M136.25 18.75H128.417V26.5833H136.25V18.75Z" fill="black" />
    <path d="M144.083 18.75H136.25V26.5833H144.083V18.75Z" fill="black" />
    <path d="M151.917 18.75H144.083V26.5833H151.917V18.75Z" fill="black" />
    <path d="M159.75 18.75H151.917V26.5833H159.75V18.75Z" fill="black" />
    <path d="M167.583 18.75H159.75V26.5833H167.583V18.75Z" fill="black" />
    <path d="M175.417 18.75H167.583V26.5833H175.417V18.75Z" fill="black" />
    <path d="M183.25 18.75H175.417V26.5833H183.25V18.75Z" fill="black" />
    <path d="M26.5833 26.5833H18.75V34.4167H26.5833V26.5833Z" fill="black" />
    <path d="M73.5833 26.5833H65.75V34.4167H73.5833V26.5833Z" fill="black" />
    <path d="M97.0833 26.5833H89.25L89.25 34.4167H97.0833L97.0833 26.5833Z" fill="black" />
    <path d="M112.75 26.5833H104.917L104.917 34.4167H112.75V26.5833Z" fill="black" />
    <path d="M136.25 26.5833H128.417V34.4167H136.25V26.5833Z" fill="black" />
    <path d="M183.25 26.5833H175.417V34.4167H183.25V26.5833Z" fill="black" />
    <path d="M26.5833 34.4167H18.75V42.25H26.5833V34.4167Z" fill="black" />
    <path d="M42.25 34.4167H34.4167V42.25H42.25V34.4167Z" fill="black" />
    <path d="M50.0833 34.4167H42.25V42.25H50.0833V34.4167Z" fill="black" />
    <path d="M57.9167 34.4167H50.0833V42.25H57.9167V34.4167Z" fill="black" />
    <path d="M73.5833 34.4167H65.75V42.25H73.5833V34.4167Z" fill="black" />
    <path d="M136.25 34.4167H128.417V42.25H136.25V34.4167Z" fill="black" />
    <path d="M151.917 34.4167H144.083V42.25H151.917V34.4167Z" fill="black" />
    <path d="M159.75 34.4167H151.917V42.25H159.75V34.4167Z" fill="black" />
    <path d="M167.583 34.4167H159.75V42.25H167.583V34.4167Z" fill="black" />
    <path d="M183.25 34.4167H175.417V42.25H183.25V34.4167Z" fill="black" />
    <path d="M26.5833 42.25H18.75V50.0833H26.5833V42.25Z" fill="black" />
    <path d="M42.25 42.25H34.4167V50.0833H42.25V42.25Z" fill="black" />
    <path d="M50.0833 42.25H42.25V50.0833H50.0833V42.25Z" fill="black" />
    <path d="M57.9167 42.25H50.0833V50.0833H57.9167V42.25Z" fill="black" />
    <path d="M73.5833 42.25H65.75V50.0833H73.5833V42.25Z" fill="black" />
    <path d="M104.917 42.25H97.0833V50.0833H104.917V42.25Z" fill="black" />
    <path d="M120.583 42.25H112.75V50.0833H120.583V42.25Z" fill="black" />
    <path d="M136.25 42.25H128.417V50.0833H136.25V42.25Z" fill="black" />
    <path d="M151.917 42.25H144.083V50.0833H151.917V42.25Z" fill="black" />
    <path d="M159.75 42.25H151.917V50.0833H159.75V42.25Z" fill="black" />
    <path d="M167.583 42.25H159.75V50.0833H167.583V42.25Z" fill="black" />
    <path d="M183.25 42.25H175.417V50.0833H183.25V42.25Z" fill="black" />
    <path d="M26.5833 50.0833H18.75V57.9167H26.5833V50.0833Z" fill="black" />
    <path d="M42.25 50.0833H34.4167V57.9167H42.25V50.0833Z" fill="black" />
    <path d="M50.0833 50.0833H42.25V57.9167H50.0833V50.0833Z" fill="black" />
    <path d="M57.9167 50.0833H50.0833V57.9167H57.9167V50.0833Z" fill="black" />
    <path d="M73.5833 50.0833H65.75V57.9167H73.5833V50.0833Z" fill="black" />
    <path d="M89.25 50.0833H81.4167V57.9167H89.25V50.0833Z" fill="black" />
    <path d="M112.75 50.0833H104.917L104.917 57.9167H112.75V50.0833Z" fill="black" />
    <path d="M136.25 50.0833H128.417V57.9167H136.25V50.0833Z" fill="black" />
    <path d="M151.917 50.0833H144.083V57.9167H151.917V50.0833Z" fill="black" />
    <path d="M159.75 50.0833H151.917V57.9167H159.75V50.0833Z" fill="black" />
    <path d="M167.583 50.0833H159.75V57.9167H167.583V50.0833Z" fill="black" />
    <path d="M183.25 50.0833H175.417V57.9167H183.25V50.0833Z" fill="black" />
    <path d="M26.5833 57.9167H18.75V65.75H26.5833V57.9167Z" fill="black" />
    <path d="M73.5833 57.9167H65.75V65.75H73.5833V57.9167Z" fill="black" />
    <path d="M97.0833 57.9167H89.25L89.25 65.75H97.0833V57.9167Z" fill="black" />
    <path d="M120.583 57.9167H112.75V65.75H120.583V57.9167Z" fill="black" />
    <path d="M136.25 57.9167H128.417V65.75H136.25V57.9167Z" fill="black" />
    <path d="M183.25 57.9167H175.417V65.75H183.25V57.9167Z" fill="black" />
    <path d="M26.5833 65.75H18.75V73.5833H26.5833V65.75Z" fill="black" />
    <path d="M34.4167 65.75H26.5833V73.5833H34.4167V65.75Z" fill="black" />
    <path d="M42.25 65.75H34.4167V73.5833H42.25V65.75Z" fill="black" />
    <path d="M50.0833 65.75H42.25V73.5833H50.0833V65.75Z" fill="black" />
    <path d="M57.9167 65.75H50.0833V73.5833H57.9167V65.75Z" fill="black" />
    <path d="M65.75 65.75H57.9167V73.5833H65.75V65.75Z" fill="black" />
    <path d="M73.5833 65.75H65.75V73.5833H73.5833V65.75Z" fill="black" />
    <path d="M89.25 65.75H81.4167V73.5833H89.25L89.25 65.75Z" fill="black" />
    <path d="M104.917 65.75H97.0833L97.0833 73.5833H104.917V65.75Z" fill="black" />
    <path d="M120.583 65.75H112.75V73.5833H120.583V65.75Z" fill="black" />
    <path d="M136.25 65.75H128.417V73.5833H136.25V65.75Z" fill="black" />
    <path d="M144.083 65.75H136.25V73.5833H144.083V65.75Z" fill="black" />
    <path d="M151.917 65.75H144.083V73.5833H151.917V65.75Z" fill="black" />
    <path d="M159.75 65.75H151.917V73.5833H159.75V65.75Z" fill="black" />
    <path d="M167.583 65.75H159.75V73.5833H167.583V65.75Z" fill="black" />
    <path d="M175.417 65.75H167.583V73.5833H175.417V65.75Z" fill="black" />
    <path d="M183.25 65.75H175.417V73.5833H183.25V65.75Z" fill="black" />
    <path d="M89.25 73.5833H81.4167V81.4167H89.25V73.5833Z" fill="black" />
    <path d="M104.917 73.5833H97.0833V81.4167H104.917V73.5833Z" fill="black" />
    <path d="M120.583 73.5833H112.75V81.4167H120.583V73.5833Z" fill="black" />
    <path d="M26.5833 81.4167H18.75V89.25H26.5833V81.4167Z" fill="black" />
    <path d="M50.0833 81.4167H42.25V89.25H50.0833V81.4167Z" fill="black" />
    <path d="M57.9167 81.4167H50.0833V89.25H57.9167V81.4167Z" fill="black" />
    <path d="M65.75 81.4167H57.9167V89.25H65.75V81.4167Z" fill="black" />
    <path d="M73.5833 81.4167H65.75V89.25H73.5833V81.4167Z" fill="black" />
    <path d="M81.4167 81.4167L73.5833 81.4167V89.25H81.4167L81.4167 81.4167Z" fill="black" />
    <path d="M89.25 81.4167H81.4167L81.4167 89.25H89.25V81.4167Z" fill="black" />
    <path d="M112.75 81.4167H104.917L104.917 89.25H112.75V81.4167Z" fill="black" />
    <path d="M120.583 81.4167H112.75V89.25H120.583V81.4167Z" fill="black" />
    <path d="M128.417 81.4167L120.583 81.4167V89.25H128.417V81.4167Z" fill="black" />
    <path d="M136.25 81.4167H128.417V89.25H136.25V81.4167Z" fill="black" />
    <path d="M151.917 81.4167H144.083V89.25H151.917V81.4167Z" fill="black" />
    <path d="M183.25 81.4167H175.417V89.25H183.25V81.4167Z" fill="black" />
    <path d="M57.9167 89.25H50.0833V97.0833H57.9167V89.25Z" fill="black" />
    <path d="M65.75 89.25H57.9167V97.0833H65.75V89.25Z" fill="black" />
    <path d="M89.25 89.25H81.4167L81.4167 97.0833H89.25V89.25Z" fill="black" />
    <path d="M97.0833 89.25L89.25 89.25V97.0833H97.0833V89.25Z" fill="black" />
    <path d="M112.75 89.25H104.917V97.0833H112.75V89.25Z" fill="black" />
    <path d="M136.25 89.25H128.417V97.0833H136.25V89.25Z" fill="black" />
    <path d="M144.083 89.25H136.25V97.0833H144.083V89.25Z" fill="black" />
    <path d="M167.583 89.25H159.75V97.0833H167.583V89.25Z" fill="black" />
    <path d="M175.417 89.25L167.583 89.25V97.0833H175.417V89.25Z" fill="black" />
    <path d="M26.5833 97.0833H18.75V104.917H26.5833V97.0833Z" fill="black" />
    <path d="M34.4167 97.0833H26.5833V104.917H34.4167V97.0833Z" fill="black" />
    <path d="M42.25 97.0833H34.4167V104.917H42.25V97.0833Z" fill="black" />
    <path d="M50.0833 97.0833L42.25 97.0833V104.917H50.0833V97.0833Z" fill="black" />
    <path d="M73.5833 97.0833L65.75 97.0833V104.917H73.5833V97.0833Z" fill="black" />
    <path d="M81.4167 97.0833L73.5833 97.0833V104.917H81.4167L81.4167 97.0833Z" fill="black" />
    <path d="M112.75 97.0833H104.917V104.917H112.75V97.0833Z" fill="black" />
    <path d="M120.583 97.0833L112.75 97.0833V104.917H120.583V97.0833Z" fill="black" />
    <path d="M151.917 97.0833L144.083 97.0833V104.917H151.917V97.0833Z" fill="black" />
    <path d="M159.75 97.0833L151.917 97.0833V104.917H159.75V97.0833Z" fill="black" />
    <path d="M175.417 97.0833H167.583V104.917H175.417V97.0833Z" fill="black" />
    <path d="M183.25 97.0833L175.417 97.0833V104.917H183.25V97.0833Z" fill="black" />
    <path d="M26.5833 104.917H18.75V112.75H26.5833V104.917Z" fill="black" />
    <path d="M34.4167 104.917H26.5833V112.75H34.4167V104.917Z" fill="black" />
    <path d="M42.25 104.917H34.4167V112.75H42.25V104.917Z" fill="black" />
    <path d="M65.75 104.917L57.9167 104.917V112.75H65.75V104.917Z" fill="black" />
    <path d="M81.4167 104.917H73.5833V112.75H81.4167V104.917Z" fill="black" />
    <path d="M89.25 104.917L81.4167 104.917V112.75H89.25V104.917Z" fill="black" />
    <path d="M97.0833 104.917H89.25V112.75H97.0833V104.917Z" fill="black" />
    <path d="M104.917 104.917L97.0833 104.917V112.75H104.917L104.917 104.917Z" fill="black" />
    <path d="M144.083 104.917L136.25 104.917V112.75H144.083V104.917Z" fill="black" />
    <path d="M151.917 104.917H144.083V112.75H151.917V104.917Z" fill="black" />
    <path d="M159.75 104.917H151.917V112.75H159.75V104.917Z" fill="black" />
    <path d="M167.583 104.917H159.75V112.75H167.583V104.917Z" fill="black" />
    <path d="M26.5833 112.75H18.75V120.583H26.5833V112.75Z" fill="black" />
    <path d="M34.4167 112.75H26.5833V120.583H34.4167V112.75Z" fill="black" />
    <path d="M57.9167 112.75H50.0833V120.583H57.9167V112.75Z" fill="black" />
    <path d="M73.5833 112.75H65.75V120.583H73.5833V112.75Z" fill="black" />
    <path d="M81.4167 112.75H73.5833V120.583H81.4167V112.75Z" fill="black" />
    <path d="M97.0833 112.75H89.25L89.25 120.583H97.0833V112.75Z" fill="black" />
    <path d="M120.583 112.75H112.75V120.583H120.583V112.75Z" fill="black" />
    <path d="M128.417 112.75H120.583V120.583H128.417V112.75Z" fill="black" />
    <path d="M136.25 112.75H128.417V120.583H136.25V112.75Z" fill="black" />
    <path d="M144.083 112.75H136.25V120.583H144.083V112.75Z" fill="black" />
    <path d="M159.75 112.75H151.917V120.583H159.75V112.75Z" fill="black" />
    <path d="M183.25 112.75H175.417V120.583H183.25V112.75Z" fill="black" />
    <path d="M89.25 120.583H81.4167L81.4167 128.417H89.25L89.25 120.583Z" fill="black" />
    <path d="M112.75 120.583H104.917V128.417H112.75V120.583Z" fill="black" />
    <path d="M120.583 120.583H112.75V128.417H120.583V120.583Z" fill="black" />
    <path d="M128.417 120.583H120.583V128.417H128.417V120.583Z" fill="black" />
    <path d="M136.25 120.583H128.417V128.417H136.25V120.583Z" fill="black" />
    <path d="M175.417 120.583H167.583V128.417H175.417V120.583Z" fill="black" />
    <path d="M183.25 120.583H175.417V128.417H183.25V120.583Z" fill="black" />
    <path d="M26.5833 128.417H18.75V136.25H26.5833V128.417Z" fill="black" />
    <path d="M34.4167 128.417H26.5833V136.25H34.4167V128.417Z" fill="black" />
    <path d="M42.25 128.417H34.4167V136.25H42.25V128.417Z" fill="black" />
    <path d="M50.0833 128.417H42.25V136.25H50.0833V128.417Z" fill="black" />
    <path d="M57.9167 128.417H50.0833V136.25H57.9167V128.417Z" fill="black" />
    <path d="M65.75 128.417H57.9167V136.25H65.75V128.417Z" fill="black" />
    <path d="M73.5833 128.417H65.75V136.25H73.5833V128.417Z" fill="black" />
    <path d="M89.25 128.417H81.4167V136.25H89.25V128.417Z" fill="black" />
    <path d="M104.917 128.417H97.0833V136.25H104.917L104.917 128.417Z" fill="black" />
    <path d="M112.75 128.417H104.917L104.917 136.25H112.75V128.417Z" fill="black" />
    <path d="M120.583 128.417H112.75V136.25H120.583V128.417Z" fill="black" />
    <path d="M128.417 128.417H120.583V136.25H128.417V128.417Z" fill="black" />
    <path d="M151.917 128.417H144.083V136.25H151.917V128.417Z" fill="black" />
    <path d="M167.583 128.417H159.75V136.25H167.583V128.417Z" fill="black" />
    <path d="M175.417 128.417H167.583V136.25H175.417V128.417Z" fill="black" />
    <path d="M183.25 128.417H175.417V136.25H183.25V128.417Z" fill="black" />
    <path d="M26.5833 136.25H18.75V144.083H26.5833V136.25Z" fill="black" />
    <path d="M73.5833 136.25H65.75V144.083H73.5833V136.25Z" fill="black" />
    <path d="M89.25 136.25H81.4167V144.083H89.25V136.25Z" fill="black" />
    <path d="M97.0833 136.25H89.25V144.083H97.0833L97.0833 136.25Z" fill="black" />
    <path d="M104.917 136.25H97.0833L97.0833 144.083H104.917V136.25Z" fill="black" />
    <path d="M144.083 136.25H136.25V144.083H144.083V136.25Z" fill="black" />
    <path d="M151.917 136.25H144.083V144.083H151.917V136.25Z" fill="black" />
    <path d="M167.583 136.25H159.75V144.083H167.583V136.25Z" fill="black" />
    <path d="M175.417 136.25H167.583V144.083H175.417V136.25Z" fill="black" />
    <path d="M183.25 136.25H175.417V144.083H183.25V136.25Z" fill="black" />
    <path d="M26.5833 144.083H18.75V151.917H26.5833V144.083Z" fill="black" />
    <path d="M42.25 144.083H34.4167V151.917H42.25V144.083Z" fill="black" />
    <path d="M50.0833 144.083H42.25V151.917H50.0833V144.083Z" fill="black" />
    <path d="M57.9167 144.083H50.0833V151.917H57.9167V144.083Z" fill="black" />
    <path d="M73.5833 144.083H65.75V151.917H73.5833V144.083Z" fill="black" />
    <path d="M89.25 144.083H81.4167V151.917H89.25V144.083Z" fill="black" />
    <path d="M104.917 144.083H97.0833L97.0833 151.917H104.917V144.083Z" fill="black" />
    <path d="M112.75 144.083H104.917V151.917H112.75V144.083Z" fill="black" />
    <path d="M151.917 144.083H144.083V151.917H151.917V144.083Z" fill="black" />
    <path d="M167.583 144.083H159.75V151.917H167.583V144.083Z" fill="black" />
    <path d="M175.417 144.083H167.583V151.917H175.417V144.083Z" fill="black" />
    <path d="M183.25 144.083H175.417V151.917H183.25V144.083Z" fill="black" />
    <path d="M26.5833 151.917H18.75V159.75H26.5833V151.917Z" fill="black" />
    <path d="M42.25 151.917H34.4167V159.75H42.25V151.917Z" fill="black" />
    <path d="M50.0833 151.917H42.25V159.75H50.0833V151.917Z" fill="black" />
    <path d="M57.9167 151.917H50.0833V159.75H57.9167V151.917Z" fill="black" />
    <path d="M73.5833 151.917H65.75V159.75H73.5833V151.917Z" fill="black" />
    <path d="M89.25 151.917H81.4167V159.75H89.25V151.917Z" fill="black" />
    <path d="M97.0833 151.917H89.25V159.75H97.0833L97.0833 151.917Z" fill="black" />
    <path d="M136.25 151.917H128.417V159.75H136.25V151.917Z" fill="black" />
    <path d="M167.583 151.917H159.75V159.75H167.583V151.917Z" fill="black" />
    <path d="M26.5833 159.75H18.75V167.583H26.5833V159.75Z" fill="black" />
    <path d="M42.25 159.75H34.4167V167.583H42.25V159.75Z" fill="black" />
    <path d="M50.0833 159.75H42.25V167.583H50.0833V159.75Z" fill="black" />
    <path d="M57.9167 159.75H50.0833V167.583H57.9167V159.75Z" fill="black" />
    <path d="M73.5833 159.75H65.75V167.583H73.5833V159.75Z" fill="black" />
    <path d="M97.0833 159.75H89.25L89.25 167.583H97.0833V159.75Z" fill="black" />
    <path d="M128.417 159.75H120.583V167.583H128.417V159.75Z" fill="black" />
    <path d="M136.25 159.75H128.417V167.583H136.25V159.75Z" fill="black" />
    <path d="M159.75 159.75H151.917V167.583H159.75V159.75Z" fill="black" />
    <path d="M167.583 159.75H159.75V167.583H167.583V159.75Z" fill="black" />
    <path d="M26.5833 167.583H18.75V175.417H26.5833V167.583Z" fill="black" />
    <path d="M73.5833 167.583H65.75V175.417H73.5833V167.583Z" fill="black" />
    <path d="M97.0833 167.583H89.25V175.417H97.0833V167.583Z" fill="black" />
    <path d="M104.917 167.583H97.0833V175.417H104.917V167.583Z" fill="black" />
    <path d="M120.583 167.583H112.75V175.417H120.583V167.583Z" fill="black" />
    <path d="M136.25 167.583H128.417V175.417H136.25V167.583Z" fill="black" />
    <path d="M144.083 167.583H136.25V175.417H144.083V167.583Z" fill="black" />
    <path d="M159.75 167.583H151.917V175.417H159.75V167.583Z" fill="black" />
    <path d="M26.5833 175.417H18.75V183.25H26.5833V175.417Z" fill="black" />
    <path d="M34.4167 175.417H26.5833V183.25H34.4167V175.417Z" fill="black" />
    <path d="M42.25 175.417H34.4167V183.25H42.25V175.417Z" fill="black" />
    <path d="M50.0833 175.417H42.25V183.25H50.0833V175.417Z" fill="black" />
    <path d="M57.9167 175.417H50.0833V183.25H57.9167V175.417Z" fill="black" />
    <path d="M65.75 175.417H57.9167V183.25H65.75V175.417Z" fill="black" />
    <path d="M73.5833 175.417H65.75V183.25H73.5833V175.417Z" fill="black" />
    <path d="M89.25 175.417H81.4167V183.25H89.25L89.25 175.417Z" fill="black" />
    <path d="M120.583 175.417H112.75V183.25H120.583V175.417Z" fill="black" />
    <path d="M128.417 175.417H120.583V183.25H128.417V175.417Z" fill="black" />
    <path d="M151.917 175.417H144.083V183.25H151.917V175.417Z" fill="black" />
    <path d="M159.75 175.417H151.917V183.25H159.75V175.417Z" fill="black" />
    <path d="M183.25 175.417H175.417V183.25H183.25V175.417Z" fill="black" />
</svg>
