<svg fill="none" height="236" viewBox="0 0 262 236" width="262" xmlns="http://www.w3.org/2000/svg">
    <path
        d="M134.178 0.514289L125.653 2.72072L20.6235 29.9045L12.0985 32.111C7.96052 33.1869 4.41679 35.8663 2.24475 39.5613C0.0727088 43.2563 -0.550273 47.6652 0.512482 51.8206L37.4789 195.69C38.5509 199.843 41.2206 203.4 44.9022 205.58C48.5838 207.76 52.9766 208.385 57.1169 207.318L57.139 207.313L179.175 175.727L179.197 175.722C183.335 174.646 186.879 171.966 189.051 168.271C191.223 164.576 191.846 160.167 190.783 156.012L153.817 12.1425C152.745 7.98952 150.075 4.43287 146.393 2.2529C142.712 0.0729351 138.319 -0.55233 134.178 0.514289Z"
        fill="#F2F2F2" />
    <path
        d="M135.338 5.02521L125.24 7.63859L23.3548 34.0086L13.2576 36.6219C10.3109 37.3881 7.78732 39.2962 6.24055 41.9275C4.69378 44.5588 4.25013 47.6984 5.00695 50.6576L41.9733 194.527C42.7367 197.484 44.6379 200.017 47.2596 201.57C49.8814 203.122 53.0096 203.567 55.9581 202.808L55.9801 202.802L178.016 171.217L178.038 171.211C180.985 170.445 183.508 168.537 185.055 165.905C186.602 163.274 187.046 160.135 186.289 157.175L149.322 13.306C148.559 10.3485 146.658 7.81578 144.036 6.26337C141.414 4.71097 138.286 4.26568 135.338 5.02521Z"
        fill="white" />
    <path
        d="M127.713 51.6139L65.9784 67.5921C65.2889 67.7706 64.5569 67.6668 63.9436 67.3037C63.3304 66.9406 62.8859 66.3478 62.7081 65.6557C62.5303 64.9637 62.6337 64.2291 62.9955 63.6136C63.3573 62.9981 63.948 62.552 64.6375 62.3736L126.373 46.3953C127.062 46.2176 127.793 46.3218 128.406 46.685C129.019 47.0482 129.463 47.6407 129.64 48.3323C129.818 49.024 129.715 49.7581 129.354 50.3734C128.992 50.9888 128.402 51.4349 127.713 51.6139Z"
        fill="#F2F2F2" />
    <path
        d="M140.7 57.6446L68.2411 76.3985C67.5515 76.577 66.8196 76.4732 66.2063 76.1101C65.593 75.7469 65.1486 75.1541 64.9708 74.4621C64.793 73.7701 64.8964 73.0355 65.2582 72.42C65.62 71.8044 66.2107 71.3584 66.9002 71.1799L139.359 52.426C140.049 52.2476 140.781 52.3513 141.394 52.7145C142.007 53.0776 142.452 53.6704 142.63 54.3624C142.808 55.0545 142.704 55.7891 142.342 56.4046C141.981 57.0201 141.39 57.4662 140.7 57.6446Z"
        fill="#F2F2F2" />
    <path
        d="M137.854 91.0795L76.1188 107.058C75.7773 107.146 75.4219 107.166 75.0728 107.117C74.7237 107.067 74.3877 106.949 74.084 106.769C73.7804 106.59 73.515 106.351 73.303 106.069C73.091 105.786 72.9365 105.464 72.8485 105.121C72.7604 104.779 72.7405 104.422 72.7898 104.072C72.8391 103.721 72.9567 103.384 73.1359 103.079C73.315 102.774 73.5523 102.508 73.834 102.295C74.1157 102.083 74.4365 101.928 74.7779 101.839L136.513 85.8609C136.854 85.7726 137.21 85.7526 137.559 85.8021C137.908 85.8516 138.244 85.9696 138.548 86.1494C138.851 86.3292 139.117 86.5673 139.329 86.85C139.541 87.1328 139.695 87.4547 139.783 87.7974C139.871 88.14 139.891 88.4967 139.842 88.8471C139.793 89.1975 139.675 89.5347 139.496 89.8395C139.317 90.1443 139.079 90.4107 138.798 90.6234C138.516 90.8362 138.195 90.9912 137.854 91.0795Z"
        fill="#F2F2F2" />
    <path
        d="M150.841 97.1103L78.3817 115.864C78.0403 115.953 77.6849 115.973 77.3357 115.923C76.9866 115.874 76.6506 115.756 76.347 115.576C76.0433 115.396 75.7779 115.158 75.5659 114.875C75.3539 114.592 75.1995 114.27 75.1114 113.928C75.0234 113.585 75.0034 113.228 75.0528 112.878C75.1021 112.528 75.2197 112.19 75.3988 111.886C75.578 111.581 75.8152 111.314 76.0969 111.102C76.3787 110.889 76.6994 110.734 77.0408 110.646L149.5 91.8917C150.19 91.7132 150.922 91.817 151.535 92.1801C152.148 92.5433 152.593 93.1361 152.77 93.8281C152.948 94.5201 152.845 95.2547 152.483 95.8702C152.121 96.4858 151.531 96.9318 150.841 97.1103Z"
        fill="#F2F2F2" />
    <path
        d="M147.994 130.545L86.2593 146.523C85.57 146.701 84.8385 146.597 84.2256 146.234C83.6127 145.871 83.1686 145.278 82.9908 144.587C82.8131 143.895 82.9163 143.161 83.2778 142.545C83.6392 141.93 84.2293 141.484 84.9184 141.305L146.653 125.327C147.343 125.148 148.075 125.252 148.688 125.615C149.301 125.978 149.746 126.571 149.924 127.263C150.102 127.955 149.998 128.69 149.636 129.305C149.274 129.921 148.684 130.367 147.994 130.545Z"
        fill="#F2F2F2" />
    <path
        d="M160.982 136.576L88.5222 155.33C88.1807 155.419 87.8251 155.439 87.4757 155.39C87.1264 155.34 86.7901 155.222 86.4862 155.043C86.1823 154.863 85.9166 154.625 85.7044 154.342C85.4923 154.059 85.3377 153.737 85.2496 153.394C85.1615 153.051 85.1416 152.694 85.191 152.344C85.2404 151.993 85.3582 151.656 85.5376 151.351C85.717 151.046 85.9545 150.78 86.2365 150.567C86.5186 150.354 86.8396 150.199 87.1813 150.111L159.641 131.357C160.33 131.179 161.062 131.283 161.675 131.646C162.289 132.009 162.733 132.602 162.911 133.294C163.089 133.986 162.985 134.72 162.624 135.336C162.262 135.951 161.671 136.397 160.982 136.576Z"
        fill="#F2F2F2" />
    <path
        d="M55.4393 83.9755L33.5919 89.63C33.2613 89.7152 32.9105 89.6653 32.6165 89.4912C32.3226 89.3171 32.1094 89.0331 32.0238 88.7015L27.0087 69.1834C26.9239 68.8516 26.9736 68.4995 27.1471 68.2045C27.3205 67.9094 27.6035 67.6955 27.9339 67.6096L49.7813 61.955C50.1119 61.8698 50.4627 61.9198 50.7567 62.0938C51.0506 62.2679 51.2638 62.5519 51.3494 62.8835L56.3645 82.4017C56.4493 82.7335 56.3996 83.0855 56.2262 83.3806C56.0527 83.6756 55.7697 83.8896 55.4393 83.9755Z"
        fill="#E6E6E6" />
    <path
        d="M65.5798 123.441L43.7324 129.096C43.4018 129.181 43.051 129.131 42.757 128.957C42.4631 128.783 42.2499 128.499 42.1643 128.167L37.1492 108.649C37.0644 108.317 37.1141 107.965 37.2876 107.67C37.461 107.375 37.744 107.161 38.0744 107.075L59.9218 101.421C60.2524 101.336 60.6032 101.385 60.8972 101.56C61.1911 101.734 61.4043 102.018 61.4899 102.349L66.5049 121.867C66.5898 122.199 66.5401 122.551 66.3666 122.846C66.1932 123.141 65.9102 123.355 65.5798 123.441Z"
        fill="#E6E6E6" />
    <path
        d="M75.7203 162.907L53.8729 168.561C53.5423 168.646 53.1915 168.596 52.8975 168.422C52.6036 168.248 52.3904 167.964 52.3048 167.633L47.2897 148.115C47.2049 147.783 47.2546 147.431 47.4281 147.136C47.6015 146.841 47.8845 146.627 48.2149 146.541L70.0623 140.886C70.3929 140.801 70.7437 140.851 71.0377 141.025C71.3317 141.199 71.5448 141.483 71.6304 141.815L76.6455 161.333C76.7303 161.665 76.6806 162.017 76.5072 162.312C76.3337 162.607 76.0508 162.821 75.7203 162.907Z"
        fill="#E6E6E6" />
    <path
        d="M219.323 36.9836H93.2493C88.9747 36.9884 84.8766 38.6948 81.854 41.7284C78.8315 44.762 77.1313 48.875 77.1265 53.1652V201.741C77.1313 206.032 78.8315 210.145 81.854 213.178C84.8766 216.212 88.9747 217.918 93.2493 217.923H219.323C223.598 217.918 227.696 216.212 230.718 213.178C233.741 210.145 235.441 206.032 235.446 201.741V53.1652C235.441 48.875 233.741 44.762 230.718 41.7284C227.696 38.6948 223.598 36.9884 219.323 36.9836Z"
        fill="#E6E6E6" />
    <path
        d="M219.324 41.6419H93.2495C90.2055 41.6453 87.2871 42.8605 85.1347 45.0208C82.9822 47.1811 81.7715 50.1101 81.7681 53.1652V201.741C81.7715 204.796 82.9822 207.725 85.1347 209.886C87.2871 212.046 90.2055 213.261 93.2495 213.265H219.324C222.368 213.261 225.286 212.046 227.438 209.886C229.591 207.725 230.801 204.796 230.805 201.741V53.1652C230.801 50.1101 229.591 47.1811 227.438 45.0208C225.286 42.8606 222.368 41.6454 219.324 41.6419Z"
        fill="white" />
    <path
        d="M232.568 236C248.823 236 262 222.775 262 206.461C262 190.147 248.823 176.922 232.568 176.922C216.314 176.922 203.137 190.147 203.137 206.461C203.137 222.775 216.314 236 232.568 236Z"
        fill="#FF6767" />
    <path
        d="M246.644 202.608H236.407V192.334C236.407 191.312 236.003 190.332 235.283 189.61C234.563 188.887 233.587 188.481 232.568 188.481C231.55 188.481 230.574 188.887 229.854 189.61C229.134 190.332 228.73 191.312 228.73 192.334V202.608H218.492C217.474 202.608 216.498 203.014 215.778 203.737C215.058 204.459 214.654 205.439 214.654 206.461C214.654 207.483 215.058 208.463 215.778 209.186C216.498 209.908 217.474 210.314 218.492 210.314H228.73V220.588C228.73 221.61 229.134 222.59 229.854 223.313C230.574 224.035 231.55 224.441 232.568 224.441C233.587 224.441 234.563 224.035 235.283 223.313C236.003 222.59 236.407 221.61 236.407 220.588V210.314H246.644C247.663 210.314 248.639 209.908 249.359 209.186C250.079 208.463 250.483 207.483 250.483 206.461C250.483 205.439 250.079 204.459 249.359 203.737C248.639 203.014 247.663 202.608 246.644 202.608Z"
        fill="white" />
    <path
        d="M200.349 123.284H136.594C136.242 123.285 135.892 123.215 135.566 123.08C135.24 122.945 134.944 122.746 134.694 122.496C134.444 122.246 134.246 121.949 134.111 121.621C133.976 121.294 133.906 120.944 133.906 120.59C133.906 120.235 133.976 119.885 134.111 119.558C134.246 119.23 134.444 118.933 134.694 118.683C134.944 118.433 135.24 118.234 135.566 118.099C135.892 117.964 136.242 117.894 136.594 117.895H200.349C201.061 117.896 201.743 118.18 202.246 118.685C202.749 119.19 203.031 119.875 203.031 120.59C203.031 121.304 202.749 121.989 202.246 122.494C201.743 122.999 201.061 123.283 200.349 123.284Z"
        fill="#E6E6E6" />
    <path
        d="M211.424 132.379H136.594C136.242 132.379 135.892 132.31 135.566 132.174C135.24 132.039 134.944 131.841 134.694 131.59C134.444 131.34 134.246 131.043 134.111 130.716C133.976 130.389 133.906 130.038 133.906 129.684C133.906 129.33 133.976 128.979 134.111 128.652C134.246 128.325 134.444 128.028 134.694 127.778C134.944 127.527 135.24 127.329 135.566 127.194C135.892 127.058 136.242 126.989 136.594 126.989H211.424C212.136 126.989 212.819 127.273 213.323 127.779C213.826 128.284 214.109 128.969 214.109 129.684C214.109 130.399 213.826 131.084 213.323 131.589C212.819 132.095 212.136 132.379 211.424 132.379Z"
        fill="#E6E6E6" />
    <path
        d="M200.349 164.041H136.594C136.242 164.041 135.892 163.972 135.566 163.837C135.24 163.701 134.944 163.503 134.694 163.253C134.444 163.003 134.246 162.705 134.111 162.378C133.976 162.051 133.906 161.7 133.906 161.346C133.906 160.992 133.976 160.642 134.111 160.314C134.246 159.987 134.444 159.69 134.694 159.44C134.944 159.19 135.24 158.991 135.566 158.856C135.892 158.721 136.242 158.651 136.594 158.652H200.349C201.061 158.652 201.744 158.936 202.248 159.441C202.751 159.946 203.034 160.632 203.034 161.346C203.034 162.061 202.751 162.746 202.248 163.252C201.744 163.757 201.061 164.041 200.349 164.041Z"
        fill="#E6E6E6" />
    <path
        d="M211.424 173.135H136.594C136.242 173.136 135.892 173.066 135.566 172.931C135.24 172.796 134.944 172.598 134.694 172.347C134.444 172.097 134.246 171.8 134.111 171.473C133.976 171.146 133.906 170.795 133.906 170.441C133.906 170.087 133.976 169.736 134.111 169.409C134.246 169.082 134.444 168.785 134.694 168.534C134.944 168.284 135.24 168.086 135.566 167.95C135.892 167.815 136.242 167.746 136.594 167.746H211.424C211.777 167.746 212.127 167.815 212.453 167.95C212.779 168.086 213.075 168.284 213.325 168.534C213.574 168.785 213.772 169.082 213.907 169.409C214.043 169.736 214.112 170.087 214.112 170.441C214.112 170.795 214.043 171.146 213.907 171.473C213.772 171.8 213.574 172.097 213.325 172.347C213.075 172.598 212.779 172.796 212.453 172.931C212.127 173.066 211.777 173.136 211.424 173.135Z"
        fill="#E6E6E6" />
    <path
        d="M122.313 136.507H99.7508C99.4095 136.507 99.0822 136.371 98.8409 136.128C98.5995 135.886 98.4638 135.558 98.4634 135.215V115.058C98.4638 114.716 98.5995 114.387 98.8409 114.145C99.0822 113.903 99.4095 113.767 99.7508 113.766H122.313C122.654 113.767 122.982 113.903 123.223 114.145C123.464 114.387 123.6 114.716 123.6 115.058V135.215C123.6 135.558 123.464 135.886 123.223 136.128C122.982 136.371 122.654 136.507 122.313 136.507Z"
        fill="#E6E6E6" />
    <path
        d="M122.313 177.264H99.7508C99.4095 177.264 99.0822 177.127 98.8409 176.885C98.5995 176.643 98.4638 176.314 98.4634 175.972V155.815C98.4638 155.473 98.5995 155.144 98.8409 154.902C99.0822 154.66 99.4095 154.523 99.7508 154.523H122.313C122.654 154.523 122.982 154.66 123.223 154.902C123.464 155.144 123.6 155.473 123.6 155.815V175.972C123.6 176.314 123.464 176.643 123.223 176.885C122.982 177.127 122.654 177.264 122.313 177.264Z"
        fill="#E6E6E6" />
    <path
        d="M200.42 77.9138H153.416C152.704 77.9138 152.021 77.6299 151.518 77.1246C151.014 76.6192 150.731 75.9338 150.731 75.2192C150.731 74.5045 151.014 73.8191 151.518 73.3137C152.021 72.8084 152.704 72.5245 153.416 72.5245H200.42C201.132 72.5245 201.815 72.8084 202.319 73.3137C202.822 73.8191 203.105 74.5045 203.105 75.2192C203.105 75.9338 202.822 76.6192 202.319 77.1246C201.815 77.6299 201.132 77.9138 200.42 77.9138Z"
        fill="#CCCCCC" />
    <path
        d="M211.495 87.0083H153.416C153.064 87.0083 152.715 86.9386 152.389 86.8032C152.063 86.6678 151.767 86.4693 151.518 86.2191C151.269 85.9688 151.071 85.6718 150.936 85.3449C150.801 85.0179 150.731 84.6675 150.731 84.3137C150.731 83.9598 150.801 83.6094 150.936 83.2825C151.071 82.9555 151.269 82.6585 151.518 82.4082C151.767 82.158 152.063 81.9595 152.389 81.8241C152.715 81.6887 153.064 81.619 153.416 81.619H211.495C212.207 81.619 212.89 81.9029 213.394 82.4082C213.897 82.9136 214.18 83.599 214.18 84.3137C214.18 85.0283 213.897 85.7137 213.394 86.2191C212.89 86.7244 212.207 87.0083 211.495 87.0083Z"
        fill="#CCCCCC" />
    <path
        d="M143.013 98.0298H99.68C99.3387 98.0294 99.0114 97.8931 98.7701 97.6509C98.5287 97.4087 98.393 97.0802 98.3926 96.7377V62.7952C98.393 62.4526 98.5287 62.1242 98.7701 61.8819C99.0114 61.6397 99.3387 61.5035 99.68 61.5031H143.013C143.355 61.5035 143.682 61.6397 143.923 61.8819C144.165 62.1242 144.3 62.4526 144.301 62.7952V96.7377C144.3 97.0802 144.165 97.4087 143.923 97.6509C143.682 97.8931 143.355 98.0294 143.013 98.0298Z"
        fill="#FF6767" />
</svg>
