<svg fill="none" height="366" viewBox="0 0 162 366" width="162" xmlns="http://www.w3.org/2000/svg">
    <path
        d="M17.3798 147.287H46.9124C47.1881 147.287 47.4524 147.397 47.6473 147.592C47.8422 147.788 47.9517 148.054 47.9517 148.33V162.942C47.9517 163.218 47.8422 163.484 47.6473 163.68C47.4524 163.875 47.1881 163.985 46.9124 163.985H17.3798C17.1041 163.985 16.8398 163.875 16.6449 163.68C16.45 163.484 16.3405 163.218 16.3405 162.942V148.33C16.3405 148.054 16.45 147.788 16.6449 147.592C16.8398 147.397 17.1041 147.287 17.3798 147.287Z"
        stroke="#D0BDA7" stroke-linecap="round" stroke-linejoin="round" stroke-width="2" />
    <path
        d="M33.2194 130.557H62.7364C63.0121 130.557 63.2764 130.667 63.4713 130.863C63.6662 131.058 63.7758 131.324 63.7758 131.601V146.212C63.7758 146.489 63.6662 146.754 63.4713 146.95C63.2764 147.145 63.0121 147.255 62.7364 147.255H33.2194C32.9437 147.255 32.6794 147.145 32.4845 146.95C32.2896 146.754 32.1801 146.489 32.1801 146.212V131.601C32.1801 131.324 32.2896 131.058 32.4845 130.863C32.6794 130.667 32.9437 130.557 33.2194 130.557Z"
        stroke="#D0BDA7" stroke-linecap="round" stroke-linejoin="round" stroke-width="2" />
    <path
        d="M49.0225 147.287H78.5603C78.836 147.287 79.1003 147.397 79.2952 147.592C79.4901 147.788 79.5996 148.054 79.5996 148.33V162.942C79.5996 163.218 79.4901 163.484 79.2952 163.68C79.1003 163.875 78.836 163.985 78.5603 163.985H49.0225C48.7468 163.985 48.4825 163.875 48.2876 163.68C48.0927 163.484 47.9832 163.218 47.9832 162.942V148.33C47.9832 148.054 48.0927 147.788 48.2876 147.592C48.4825 147.397 48.7468 147.287 49.0225 147.287Z"
        stroke="#D0BDA7" stroke-linecap="round" stroke-linejoin="round" stroke-width="2" />
    <path
        d="M2.03933 164.048H31.5927C31.8684 164.048 32.1327 164.158 32.3277 164.354C32.5226 164.549 32.6321 164.815 32.6321 165.092V179.703C32.6321 179.98 32.5226 180.245 32.3277 180.441C32.1327 180.636 31.8684 180.746 31.5927 180.746H2.03933C1.76368 180.746 1.49933 180.636 1.30441 180.441C1.1095 180.245 1 179.98 1 179.703V165.092C1 164.815 1.1095 164.549 1.30441 164.354C1.49933 164.158 1.76368 164.048 2.03933 164.048V164.048Z"
        stroke="#D0BDA7" stroke-linecap="round" stroke-linejoin="round" stroke-width="2" />
    <path clip-rule="evenodd" d="M59.1089 332.917H74.4858V348.087H59.1089V332.917Z" fill="#FFEAD2"
        fill-rule="evenodd" />
    <path clip-rule="evenodd" d="M116.886 332.479H132.268V347.643H116.886V332.479Z" fill="#FFEAD2"
        fill-rule="evenodd" />
    <path clip-rule="evenodd"
        d="M31.837 39.1115L42.0536 36.9615C42.7563 36.8111 43.4898 36.9463 44.0936 37.3374C44.6974 37.7286 45.1223 38.3439 45.2755 39.0488L49.4796 58.6174C49.5526 58.9639 49.5567 59.3215 49.4916 59.6695C49.4265 60.0176 49.2936 60.3493 49.1004 60.6456C48.9072 60.9419 48.6577 61.1969 48.366 61.396C48.0744 61.5951 47.7464 61.7344 47.401 61.8058L37.1947 63.961C36.492 64.1114 35.7585 63.9762 35.1547 63.5851C34.5509 63.1939 34.126 62.5786 33.9728 61.8737L29.7479 42.3051C29.675 41.9575 29.6713 41.599 29.7369 41.25C29.8026 40.901 29.9364 40.5685 30.1306 40.2717C30.3247 39.9749 30.5755 39.7195 30.8683 39.5204C31.1612 39.3213 31.4904 39.1823 31.837 39.1115Z"
        fill="#9B9B9B" fill-rule="evenodd" />
    <path clip-rule="evenodd"
        d="M35.1475 70.6404C33.8899 68.6418 24.4164 50.0699 27.3525 48.4939C30.2886 46.918 31.9256 48.5618 32.6427 50.2682C34.2017 48.6035 37.4184 46.6153 38.7488 48.066C40.3078 49.7307 39.0138 52.392 37.8446 53.4304C39.1801 52.9608 40.4117 52.6842 41.4822 54.1871C42.8489 56.0553 41.0925 61.404 40.1571 62.2076L45.0939 66.9041C45.0939 66.9041 36.3999 72.6181 35.1475 70.6404Z"
        fill="#FFEAD2" fill-rule="evenodd" />
    <path clip-rule="evenodd"
        d="M119.411 185.104C119.411 176.984 127.487 170.404 137.454 170.404C147.421 170.404 155.491 176.984 155.491 185.104C155.491 193.223 147.416 199.804 137.454 199.804C127.492 199.804 119.411 193.223 119.411 185.104Z"
        fill="#BF9111" fill-rule="evenodd" />
    <path clip-rule="evenodd"
        d="M103.894 17.4138C117.784 17.4138 124.68 30.1047 125.346 34.5141C126.011 38.9236 125.153 48.2122 126.385 51.9328C129.804 62.0563 142.256 67.5303 142.256 77.7738C142.256 101.475 116.272 94.6132 108.368 94.3105C100.464 94.0079 79.6565 93.34 79.6565 79.1201C79.6565 73.4635 83.4864 73.4635 83.554 66.1057C83.6112 59.8855 80.1502 58.1269 80.1502 43.2235C80.1866 37.1285 88.4233 17.3407 103.894 17.4138Z"
        fill="black" fill-rule="evenodd" />
    <path clip-rule="evenodd"
        d="M84.4115 140.712C84.0374 136.662 81.6053 95.8343 93.8383 79.1358C93.4319 77.7838 93.1314 76.4019 92.9392 75.0029C88.4545 78.2487 71.6849 95.3543 69.5543 98.1982C67.6159 95.7248 46.7305 66.3353 45.6912 65.9857C44.6519 65.6361 34.4456 70.3951 34.2222 71.4858C33.9987 72.5764 59.083 121.148 65.4021 123.194C68.0524 124.05 71.794 121.425 72.9633 121.044C73.1244 123.653 49.7238 192.013 72.0591 192.535C85.3365 175.904 84.7805 144.74 84.4115 140.712Z"
        fill="#FF6D6D" fill-rule="evenodd" />
    <path clip-rule="evenodd"
        d="M78.8616 153.116L47.77 334.817L75.2396 334.702L95.6417 247.786L105.848 336.168L132.195 335.829L133.998 153.345L78.8616 153.116Z"
        fill="#3B4161" fill-rule="evenodd" />
    <path clip-rule="evenodd"
        d="M119.884 157.452C117.031 158.062 81.1792 157.332 77.9053 155.5C74.6314 153.669 75.307 147.735 83.3774 145.732C80.5193 145.017 74.4496 141.52 82.6343 140.294C84.0946 125.605 77.7546 71.8302 102.964 70.8909C120.783 68.2556 123.75 83.9679 123.75 83.9679C123.75 83.9679 122.737 156.841 119.884 157.452Z"
        fill="#1D2366" fill-rule="evenodd" />
    <path clip-rule="evenodd"
        d="M102.958 24.1976C93.381 24.1976 85.6172 33.2617 85.6172 44.4393C85.6172 55.6169 93.381 64.6602 102.958 64.6602C107.007 64.5966 110.877 62.9731 113.767 60.1255C113.409 55.0533 113.362 49.9029 114.142 47.2102C115.347 43.8705 114.911 45.269 113.674 45.1229L114.76 44.1941C114.76 41.8719 115.145 43.4583 117.457 43.4583L120.201 43.3435C119.728 32.6877 112.208 24.1976 102.958 24.1976Z"
        fill="#FFEAD2" fill-rule="evenodd" />
    <path clip-rule="evenodd"
        d="M83.159 40.8961C86.8694 39.9151 89.7743 38.1148 92.9755 32.3903C96.7898 35.9127 100.033 35.9805 105.697 34.8638C105.364 37.6451 105.094 40.7918 108.737 41.1675C112.38 41.5432 123.147 46.2501 123.147 46.2501L122.628 33.914L113.123 23.2165L102.023 21.1814L92.2376 25.7892L86.1263 33.7523C86.1263 33.7523 79.4694 41.8511 83.159 40.8961Z"
        fill="black" fill-rule="evenodd" />
    <path clip-rule="evenodd"
        d="M107.75 42.5034C107.75 41.0023 108.193 39.535 109.023 38.2868C109.853 37.0385 111.033 36.0653 112.414 35.4902C113.795 34.9151 115.314 34.7638 116.78 35.0555C118.247 35.3472 119.594 36.0688 120.652 37.129C121.71 38.1893 122.431 39.5407 122.725 41.0125C123.018 42.4843 122.871 44.0105 122.301 45.3981C121.731 46.7857 120.764 47.9726 119.523 48.8088C118.282 49.645 116.821 50.0929 115.327 50.096C114.332 50.0987 113.347 49.9043 112.427 49.5239C111.508 49.1435 110.672 48.5846 109.968 47.8792C109.265 47.1738 108.706 46.3359 108.326 45.4134C107.945 44.4909 107.749 43.5019 107.75 42.5034Z"
        fill="#FFEAD2" fill-rule="evenodd" />
    <path clip-rule="evenodd"
        d="M100.329 61.8789C101.062 65.4639 100.464 70.1081 99.5964 73.4218C102.158 74.8933 112.417 75.3995 115.535 73.1452C114.345 68.7775 112.531 52.7938 114.147 47.2155C110.078 46.8606 99.5964 58.2887 100.329 61.8789Z"
        fill="#FFEAD2" fill-rule="evenodd" />
    <path clip-rule="evenodd"
        d="M120.326 171.875C119.208 173.723 117.993 175.51 116.688 177.229C116.688 177.229 113.274 176.144 112.338 177.401C111.403 178.659 105.162 186.586 108.228 189.284C111.294 191.981 114.734 185.245 115.701 184.368C118.883 187.279 121.884 190.385 124.686 193.667C124.686 193.667 124.66 188.923 125.179 187.254C125.699 185.584 128.9 181.127 129.971 179.948C131.041 178.769 122.082 168.911 120.326 171.875Z"
        fill="#FFEAD2" fill-rule="evenodd" />
    <path clip-rule="evenodd"
        d="M116.631 73.4478C115.005 77.5703 113.061 81.5988 108.026 84.5524C107.74 89.1706 112.032 152.474 115.592 159.028C117.032 161.597 118.821 163.952 120.908 166.026C119.812 168.979 118.829 171.656 119.235 172.512C119.754 173.629 128.781 181.383 130.002 181.044C130.802 180.825 133.073 178.466 134.986 176.347C143.82 181.461 151.974 185.104 152.135 189.878C152.135 193.291 150.992 194.361 149.594 196.005C151.61 195.003 156.448 189.884 156.552 183.585C156.682 175.643 149.058 161.752 147.718 158.229C150.207 155.391 158.916 143.363 160.969 132.79C155.7 112.235 134.887 74.0166 116.631 73.4478Z"
        fill="#FF6D6D" fill-rule="evenodd" />
    <path
        d="M123.153 111.108C124.94 113.963 137.355 132.775 137.355 132.775C137.355 132.775 125.72 156.742 121.693 165.092"
        stroke="#FF6D6D" stroke-linecap="round" stroke-linejoin="round" stroke-width="2" />
    <path
        d="M155.367 145.199C153.18 144.131 151.359 142.432 150.138 140.32C148.918 138.207 148.352 135.777 148.514 133.34C148.675 130.903 149.557 128.57 151.047 126.639C152.536 124.708 154.565 123.267 156.874 122.5"
        stroke="#FF6D6D" stroke-linecap="round" stroke-linejoin="round" stroke-width="2" />
    <path d="M141.663 128.595L137.35 132.769" stroke="#FF6D6D" stroke-linecap="round"
        stroke-linejoin="round" stroke-width="2" />
    <path d="M142.677 135.238L137.35 132.462" stroke="#FF6D6D" stroke-linecap="round"
        stroke-linejoin="round" stroke-width="2" />
    <path d="M121.848 167.904C123.054 169.282 130.683 174.725 132.761 175.612" stroke="#FF6D6D"
        stroke-linecap="round" stroke-linejoin="round" stroke-width="2" />
    <path
        d="M58.4128 115.194C59.5549 114.001 61.026 113.178 62.6372 112.831C64.2485 112.483 65.9264 112.627 67.4556 113.244C68.9848 113.861 70.2955 114.923 71.2195 116.293C72.1435 117.663 72.6386 119.279 72.6413 120.934V121.127"
        stroke="#FF6D6D" stroke-linecap="round" stroke-linejoin="round" stroke-width="2" />
    <path d="M69.5287 98.1878L65.2622 104.559" stroke="#FF6D6D" stroke-linecap="round"
        stroke-linejoin="round" stroke-width="2" />
    <path d="M73.332 103.197L69.658 98.0782" stroke="#FF6D6D" stroke-linecap="round"
        stroke-linejoin="round" stroke-width="2" />
    <path d="M48.9185 69.9359L36.9973 77.5598" stroke="#FF6D6D" stroke-linecap="round"
        stroke-linejoin="round" stroke-width="2" />
    <path d="M95.6107 247.869C94.8624 242.776 92.0147 199.177 94.0206 184.003" stroke="#737999"
        stroke-linecap="round" stroke-linejoin="round" stroke-width="2" />
    <path d="M124.956 259.543L132.964 256.339L124.348 250.943" stroke="#737999"
        stroke-linecap="round" stroke-linejoin="round" stroke-width="2" />
    <path d="M84.4116 261.03L92.8146 259.783L87.3477 253.886" stroke="#737999"
        stroke-linecap="round" stroke-linejoin="round" stroke-width="2" />
    <path d="M76.9075 164.528C79.5058 164.883 104.45 166.266 120.559 165.483" stroke="#737999"
        stroke-linecap="round" stroke-linejoin="round" stroke-width="2" />
    <path d="M49.5266 324.453L77.8173 323.649" stroke="#737999" stroke-linecap="round"
        stroke-linejoin="round" stroke-width="2" />
    <path d="M104.704 326.426L132.283 325.638" stroke="#737999" stroke-linecap="round"
        stroke-linejoin="round" stroke-width="2" />
    <path d="M115.612 184.441L127.138 196.125" stroke="#737999" stroke-linecap="round"
        stroke-linejoin="round" stroke-width="2" />
    <path d="M108.639 177.375L110.795 179.557" stroke="#737999" stroke-linecap="round"
        stroke-linejoin="round" stroke-width="2" />
    <path d="M113.991 336.064L105.972 165.702" stroke="#737999" stroke-linecap="round"
        stroke-linejoin="round" stroke-width="2" />
    <path d="M93.7709 219.33L65.9584 334.738" stroke="#737999" stroke-linecap="round"
        stroke-linejoin="round" stroke-width="2" />
    <path clip-rule="evenodd"
        d="M99.5964 44.3663C99.5964 43.3226 100.023 42.5034 100.553 42.5034C101.083 42.5034 101.514 43.3383 101.514 44.3663C101.514 45.3943 101.083 46.224 100.553 46.224C100.023 46.224 99.5964 45.3891 99.5964 44.3663Z"
        fill="#B5545C" fill-rule="evenodd" />
    <path clip-rule="evenodd"
        d="M88.6104 44.3663C88.6104 43.3226 89.0417 42.5034 89.5717 42.5034C90.1018 42.5034 90.5279 43.3383 90.5279 44.3663C90.5279 45.3943 90.1018 46.224 89.5717 46.224C89.0417 46.224 88.6104 45.3891 88.6104 44.3663Z"
        fill="#B5545C" fill-rule="evenodd" />
    <path d="M94.0878 44.7107C94.2437 46.1614 93.9319 49.4072 92.8406 50.8265" stroke="#B5545C"
        stroke-linecap="round" stroke-linejoin="round" stroke-width="2" />
    <path
        d="M101.161 53.707C101.209 53.8981 101.233 54.0944 101.233 54.2915C101.236 54.6665 101.147 55.0363 100.974 55.3688C100.802 55.7014 100.551 55.9866 100.243 56.1995C99.9359 56.4125 99.5814 56.5468 99.2106 56.5908C98.8397 56.6348 98.4638 56.5871 98.1155 56.4519"
        stroke="#B5545C" stroke-linecap="round" stroke-linejoin="round" stroke-width="2" />
    <path
        d="M100.573 64.4515C101.362 64.5792 102.159 64.6438 102.958 64.6445C105.023 64.6418 107.064 64.2045 108.95 63.3609"
        stroke="#B5545C" stroke-linecap="round" stroke-linejoin="round" stroke-width="2" />
    <path
        d="M110.65 41.5901C110.793 40.6621 111.198 39.7948 111.817 39.091C112.436 38.3871 113.243 37.8763 114.142 37.619C115.042 37.3618 115.996 37.3689 116.891 37.6395C117.787 37.9101 118.586 38.4329 119.195 39.1459C119.803 39.8589 120.196 40.7322 120.325 41.6622C120.454 42.5923 120.315 43.5401 119.925 44.3932C119.534 45.2464 118.908 45.9692 118.12 46.4759C117.333 46.9826 116.418 47.2519 115.482 47.252C115.015 47.2501 114.55 47.1834 114.1 47.0537"
        stroke="#B5545C" stroke-linecap="round" stroke-linejoin="round" stroke-width="2" />
    <path d="M146.746 159.294L135.911 174.949" stroke="#FF6D6D" stroke-linecap="round"
        stroke-linejoin="round" stroke-width="2" />
    <path clip-rule="evenodd"
        d="M141.357 20.6335H147.354C147.634 20.6335 147.873 20.9674 147.873 21.3797V25.1316C147.873 25.5439 147.639 25.8726 147.354 25.8726H141.357C141.076 25.8726 140.837 25.5439 140.837 25.1316V21.3797C140.842 20.9674 141.076 20.6335 141.357 20.6335Z"
        fill="#FF6D6D" fill-rule="evenodd" />
    <path clip-rule="evenodd"
        d="M150.461 23.4931V25.7996C150.461 25.8674 150.414 25.8935 150.362 25.8622L148.367 24.7194L146.376 23.5662C146.319 23.5349 146.319 23.4827 146.376 23.4514L148.367 22.2929L150.362 21.1397C150.372 21.1325 150.384 21.1284 150.396 21.1277C150.408 21.1271 150.42 21.13 150.43 21.1361C150.441 21.1421 150.449 21.1511 150.455 21.162C150.46 21.1728 150.462 21.185 150.461 21.1971V23.4931Z"
        fill="#FF6D6D" fill-rule="evenodd" />
    <path
        d="M136.82 23.2531C136.82 21.4985 137.338 19.7834 138.309 18.3245C139.28 16.8657 140.66 15.7287 142.274 15.0572C143.888 14.3858 145.664 14.2101 147.378 14.5524C149.092 14.8947 150.666 15.7396 151.901 16.9802C153.137 18.2209 153.978 19.8016 154.319 21.5224C154.66 23.2432 154.485 25.0269 153.816 26.6479C153.148 28.2689 152.015 29.6543 150.563 30.6291C149.11 31.6039 147.402 32.1242 145.655 32.1242C143.312 32.1242 141.064 31.1895 139.408 29.5259C137.751 27.8622 136.82 25.6058 136.82 23.2531Z"
        stroke="#FF6D6D" stroke-linecap="round" stroke-linejoin="round" stroke-width="2" />
    <path
        d="M21.4958 1.7589H148.066C151.475 1.7589 154.746 3.11907 157.157 5.54017C159.568 7.96128 160.922 11.245 160.922 14.669V79.4123C160.922 82.8363 159.568 86.12 157.157 88.5411C154.746 90.9622 151.475 92.3224 148.066 92.3224H21.4958C18.0861 92.3224 14.8159 90.9622 12.4049 88.5411C9.99381 86.12 8.63928 82.8363 8.63928 79.4123V14.669C8.63928 11.245 9.99381 7.96128 12.4049 5.54017C14.8159 3.11907 18.0861 1.7589 21.4958 1.7589V1.7589Z"
        stroke="#9B9B9B" stroke-linecap="round" stroke-linejoin="round" stroke-width="2" />
    <path d="M160.111 10.0403H9.60034" stroke="#9B9B9B" stroke-linecap="round"
        stroke-linejoin="round" stroke-width="2" />
    <path
        d="M17.8839 6.04835C17.8839 5.68483 17.9913 5.32949 18.1926 5.02731C18.3938 4.72513 18.6798 4.48971 19.0143 4.35084C19.3489 4.21196 19.7169 4.17589 20.0719 4.24719C20.4269 4.31849 20.7528 4.49395 21.0084 4.75136C21.2641 5.00877 21.4379 5.33655 21.5079 5.69321C21.5778 6.04986 21.5409 6.41935 21.4016 6.7549C21.2624 7.09044 21.0271 7.37696 20.7256 7.57816C20.4241 7.77937 20.07 7.88622 19.7079 7.88519C19.468 7.88519 19.2304 7.83764 19.0087 7.74526C18.7871 7.65289 18.5858 7.51751 18.4163 7.34687C18.2469 7.17624 18.1126 6.97371 18.0213 6.75088C17.9299 6.52806 17.8832 6.28932 17.8839 6.04835Z"
        stroke="#FF6D6D" stroke-linecap="round" stroke-linejoin="round" stroke-width="2" />
    <path
        d="M25.0916 6.04834C25.0916 5.68505 25.1988 5.32991 25.3998 5.02785C25.6008 4.72578 25.8865 4.49035 26.2208 4.35132C26.555 4.2123 26.9228 4.17592 27.2776 4.2468C27.6325 4.31767 27.9584 4.49261 28.2142 4.7495C28.4701 5.00639 28.6443 5.33368 28.7149 5.68999C28.7854 6.0463 28.7492 6.41563 28.6108 6.75127C28.4723 7.08691 28.2379 7.37378 27.937 7.57562C27.6362 7.77745 27.2826 7.88518 26.9208 7.88518C26.4356 7.88518 25.9704 7.69166 25.6273 7.34718C25.2843 7.00271 25.0916 6.5355 25.0916 6.04834Z"
        stroke="#FF6D6D" stroke-linecap="round" stroke-linejoin="round" stroke-width="2" />
    <path
        d="M32.3047 6.04834C32.3047 5.68505 32.412 5.32991 32.613 5.02785C32.814 4.72578 33.0997 4.49035 33.4339 4.35132C33.7682 4.2123 34.1359 4.17592 34.4908 4.2468C34.8456 4.31767 35.1716 4.49261 35.4274 4.7495C35.6832 5.00639 35.8574 5.33368 35.928 5.68999C35.9986 6.0463 35.9624 6.41563 35.8239 6.75127C35.6855 7.08691 35.451 7.37378 35.1502 7.57562C34.8494 7.77745 34.4957 7.88518 34.1339 7.88518C33.8935 7.88587 33.6553 7.83883 33.4331 7.74676C33.2109 7.65469 33.0089 7.51942 32.8389 7.34872C32.6689 7.17801 32.5342 6.97525 32.4425 6.75208C32.3509 6.52892 32.304 6.28975 32.3047 6.04834V6.04834Z"
        stroke="#FF6D6D" stroke-linecap="round" stroke-linejoin="round" stroke-width="2" />
    <path clip-rule="evenodd"
        d="M116.885 341.84L132.268 341.71L132.117 363.752L84.5674 363.449C84.7493 358.915 93.4952 350.858 104.159 349.261C114.822 347.664 116.885 343.281 116.885 341.84Z"
        fill="#9B9B9B" fill-rule="evenodd" />
    <path d="M93.1888 353.347C95.1172 355.012 96.7988 356.944 98.1828 359.087" stroke="#4E4242"
        stroke-linecap="round" stroke-linejoin="round" stroke-width="2" />
    <path d="M100.412 350.477C102.343 352.139 104.025 354.072 105.406 356.217" stroke="#4E4242"
        stroke-linecap="round" stroke-linejoin="round" stroke-width="2" />
    <path d="M104.31 350.023C90.8658 335.448 116.548 331.722 104.356 350.023" stroke="#4E4242"
        stroke-linecap="round" stroke-linejoin="round" stroke-width="2" />
    <path d="M104.413 349.997C118.767 332.969 126.951 361.179 104.413 350.049" stroke="#4E4242"
        stroke-linecap="round" stroke-linejoin="round" stroke-width="2" />
    <path d="M132.257 345.535H114.511" stroke="#4E4242" stroke-linecap="round"
        stroke-linejoin="round" stroke-width="2" />
    <path d="M132.133 363.689L84.7859 363.449" stroke="#4E4242" stroke-linecap="round"
        stroke-linejoin="round" stroke-width="2" />
    <path clip-rule="evenodd"
        d="M59.1093 342.284L74.4862 342.154L74.3355 364.196L26.7913 363.909C26.9731 359.374 35.7191 351.317 46.3827 349.72C57.0462 348.123 59.1093 343.724 59.1093 342.284Z"
        fill="#9B9B9B" fill-rule="evenodd" />
    <path d="M35.3967 353.79C37.3251 355.455 39.0067 357.388 40.3907 359.53" stroke="#4E4242"
        stroke-linecap="round" stroke-linejoin="round" stroke-width="2" />
    <path d="M42.6198 350.92C44.5507 352.582 46.2327 354.516 47.6137 356.66" stroke="#4E4242"
        stroke-linecap="round" stroke-linejoin="round" stroke-width="2" />
    <path d="M46.5175 350.461C33.0738 335.892 58.7556 332.166 46.5643 350.461" stroke="#4E4242"
        stroke-linecap="round" stroke-linejoin="round" stroke-width="2" />
    <path d="M46.6162 350.44C60.9694 333.408 69.1489 361.623 46.6162 350.492" stroke="#4E4242"
        stroke-linecap="round" stroke-linejoin="round" stroke-width="2" />
    <path d="M74.46 345.979H56.7134" stroke="#4E4242" stroke-linecap="round" stroke-linejoin="round"
        stroke-width="2" />
    <path d="M74.3352 364.133L26.9833 363.909" stroke="#4E4242" stroke-linecap="round"
        stroke-linejoin="round" stroke-width="2" />
    <path clip-rule="evenodd"
        d="M29.8206 59.7185C29.1242 58.0591 29.4308 51.771 33.2296 49.6837L29.8206 59.7185Z"
        fill="#FFEAD2" fill-rule="evenodd" />
    <path d="M29.8206 59.7185C29.1242 58.0591 29.4308 51.771 33.2296 49.6837" stroke="#B5545C"
        stroke-linecap="round" stroke-linejoin="round" stroke-width="2" />
    <path clip-rule="evenodd"
        d="M34.9341 61.7275C34.508 59.6402 35.62 55.2516 37.8806 53.7018L34.9341 61.7275Z"
        fill="#FFEAD2" fill-rule="evenodd" />
    <path d="M34.9341 61.7275C34.508 59.6402 35.62 55.2516 37.8806 53.7018" stroke="#B5545C"
        stroke-linecap="round" stroke-linejoin="round" stroke-width="2" />
    <path d="M108.093 84.5158C111.439 81.9849 115.238 77.1319 116.547 73.6618" stroke="#FF6D6D"
        stroke-linecap="round" stroke-linejoin="round" stroke-width="2" />
    <path d="M85.8717 146.217C95.6882 148.351 107.381 147.605 113.097 146.963" stroke="#4C4FD9"
        stroke-linecap="round" stroke-linejoin="round" stroke-width="2" />
    <path clip-rule="evenodd"
        d="M21.5631 1.7589H148.143C151.553 1.7589 154.823 3.11907 157.234 5.54017C159.645 7.96128 161 11.245 161 14.669V79.4123C161 82.8363 159.645 86.12 157.234 88.5411C154.823 90.9622 151.553 92.3224 148.143 92.3224H21.5631C18.1533 92.3224 14.8832 90.9622 12.4721 88.5411C10.0611 86.12 8.70654 82.8363 8.70654 79.4123V14.669C8.70654 11.245 10.0611 7.96128 12.4721 5.54017C14.8832 3.11907 18.1533 1.7589 21.5631 1.7589Z"
        fill="white" fill-rule="evenodd" opacity="0.26" />
</svg>
