<svg fill="none" height="262" viewBox="0 0 361 262" width="361" xmlns="http://www.w3.org/2000/svg">
    <path
        d="M212.652 46.0294C189.189 45.2223 166.823 37.7258 145.5 29.5257C124.176 21.3256 103.041 12.2384 80.1262 7.89328C65.3936 5.09543 48.5448 4.70193 36.6765 12.5186C25.253 20.0384 21.5631 33.0205 19.5783 45.0656C18.0855 54.1294 17.2195 63.6668 21.3003 72.1537C24.141 78.0428 29.1821 82.9949 32.6698 88.6373C44.801 108.269 36.2249 132.479 23.0761 151.664C16.9095 160.668 9.75545 169.235 4.99735 178.809C0.239242 188.383 -1.96458 199.351 2.20045 209.115C6.3284 218.785 16.1614 226.062 26.8166 231.174C48.4572 241.548 73.9562 244.516 98.8216 246.217C153.863 249.942 209.202 248.328 264.388 246.714C284.812 246.114 305.327 245.51 325.418 242.379C336.575 240.641 348.096 237.887 356.197 231.237C366.478 222.794 369.029 208.501 362.138 197.913C350.58 180.159 318.624 175.747 310.544 156.693C306.099 146.205 310.665 134.52 317.128 124.793C330.988 103.927 354.226 85.6194 355.449 61.766C356.292 45.3824 345.121 28.9788 327.848 21.2256C309.745 13.0921 284.64 14.1192 271.286 27.5616C257.534 41.4107 233.366 46.7397 212.652 46.0294Z"
        fill="#FF6767" opacity="0.1" />
    <path
        d="M81.6326 241.782C81.6326 241.782 63.0989 227.916 59.5977 210.279C58.1779 202.871 54.3695 196.118 48.7437 191.034C46.0524 188.642 43.1457 186.499 40.0598 184.631"
        stroke="#535461" stroke-miterlimit="10" stroke-width="2" />
    <path
        d="M37.792 173.52C39.4163 175.694 40.1509 184.908 40.1509 184.908C40.1509 184.908 31.467 181.523 29.8394 179.352C29.0579 178.309 28.7272 177.001 28.9203 175.716C29.1134 174.431 29.8143 173.275 30.8689 172.501C31.9235 171.728 33.2453 171.401 34.5437 171.592C35.842 171.783 37.0105 172.476 37.792 173.52Z"
        fill="#FF6767" />
    <path
        d="M53.3669 180.749C53.5354 183.447 49.0974 191.577 49.0974 191.577C49.0974 191.577 43.662 184.061 43.4901 181.363C43.4248 180.077 43.8742 178.817 44.7409 177.856C45.6076 176.896 46.8219 176.312 48.1207 176.231C49.4194 176.151 50.698 176.58 51.6793 177.425C52.6607 178.271 53.2658 179.465 53.3635 180.749H53.3669Z"
        fill="#FF6767" />
    <path
        d="M68.4635 201.532C67.2369 203.946 59.254 208.748 59.254 208.748C59.254 208.748 58.4014 199.544 59.628 197.13C60.2318 195.994 61.2619 195.139 62.4966 194.748C63.7313 194.356 65.072 194.46 66.23 195.037C67.388 195.614 68.2709 196.618 68.6886 197.832C69.1063 199.047 69.0255 200.375 68.4635 201.532Z"
        fill="#FF6767" />
    <path
        d="M76.3117 219.793C75.513 222.377 68.4669 228.443 68.4669 228.443C68.4669 228.443 66.0507 219.516 66.8494 216.928C67.2332 215.687 68.0998 214.647 69.2585 214.037C70.4172 213.428 71.773 213.299 73.0278 213.679C74.2826 214.058 75.3335 214.916 75.9493 216.063C76.5652 217.209 76.6955 218.551 76.3117 219.793Z"
        fill="#FF6767" />
    <path
        d="M41.0638 198.113C43.7596 198.474 52.2817 194.665 52.2817 194.665C52.2817 194.665 45.0907 188.769 42.3814 188.409C41.081 188.236 39.7645 188.582 38.7215 189.369C37.6784 190.157 36.9943 191.323 36.8196 192.609C36.6449 193.896 36.9939 195.199 37.7898 196.231C38.5858 197.263 39.7635 197.941 41.0638 198.113Z"
        fill="#FF6767" />
    <path
        d="M50.516 219.359C53.2118 218.902 60.1771 212.75 60.1771 212.75C60.1771 212.75 51.5303 209.255 48.8379 209.712C48.1933 209.816 47.5759 210.046 47.0216 210.388C46.4672 210.73 45.9867 211.177 45.6079 211.704C45.2291 212.231 44.9595 212.826 44.8146 213.457C44.6696 214.087 44.6523 214.739 44.7636 215.376C44.8748 216.013 45.1124 216.622 45.4627 217.168C45.813 217.713 46.2691 218.185 46.8045 218.555C47.34 218.926 47.9442 219.187 48.5824 219.325C49.2206 219.463 49.8801 219.475 50.5228 219.359H50.516Z"
        fill="#FF6767" />
    <path
        d="M62.563 238.764C65.2959 238.764 73.2148 233.865 73.2148 233.865C73.2148 233.865 65.2925 228.973 62.5596 228.973C61.2476 228.973 59.9894 229.489 59.0617 230.407C58.134 231.325 57.6128 232.57 57.6128 233.869C57.6128 235.167 58.134 236.412 59.0617 237.33C59.9894 238.248 61.2476 238.764 62.5596 238.764H62.563Z"
        fill="#FF6767" />
    <path
        d="M261.679 121.855C261.679 121.855 273.103 101.83 290.322 96.0606C297.553 93.6842 303.81 89.0519 308.155 82.8584C310.193 79.8974 311.951 76.7573 313.408 73.4778"
        stroke="#535461" stroke-miterlimit="10" stroke-width="2" />
    <path
        d="M324.218 69.8095C322.257 71.6903 313.128 73.6378 313.128 73.6378C313.128 73.6378 315.369 64.6673 317.331 62.7832C318.277 61.9061 319.534 61.432 320.83 61.4628C322.127 61.4937 323.359 62.0271 324.262 62.9482C325.165 63.8693 325.666 65.1044 325.658 66.3877C325.65 67.671 325.133 68.8998 324.218 69.8095Z"
        fill="#FF6767" />
    <path
        d="M319.056 86.0262C316.36 86.5531 307.642 83.2783 307.642 83.2783C307.642 83.2783 314.449 76.9423 317.128 76.4254C317.771 76.2842 318.437 76.2715 319.085 76.3882C319.733 76.5048 320.351 76.7485 320.903 77.1048C321.455 77.4611 321.929 77.9229 322.298 78.4631C322.667 79.0033 322.923 79.6111 323.052 80.2506C323.18 80.8901 323.178 81.5486 323.046 82.1874C322.914 82.8262 322.654 83.4323 322.282 83.9704C321.909 84.5084 321.432 84.9673 320.878 85.3204C320.324 85.6734 319.705 85.9134 319.056 86.0262Z"
        fill="#FF6767" />
    <path
        d="M300.266 103.594C297.685 102.71 291.818 95.5203 291.818 95.5203C291.818 95.5203 300.916 93.4594 303.504 94.3431C304.126 94.5473 304.701 94.8716 305.195 95.2973C305.689 95.7229 306.093 96.2415 306.383 96.8228C306.672 97.4042 306.843 98.0367 306.884 98.6838C306.925 99.3308 306.835 99.9794 306.621 100.592C306.406 101.205 306.071 101.769 305.635 102.252C305.198 102.736 304.669 103.128 304.077 103.408C303.486 103.687 302.845 103.847 302.19 103.879C301.536 103.911 300.882 103.814 300.266 103.594Z"
        fill="#FF6767" />
    <path
        d="M282.999 113.718C280.304 113.278 273.308 107.159 273.308 107.159C273.308 107.159 281.931 103.604 284.624 104.044C285.92 104.255 287.078 104.967 287.843 106.023C288.609 107.079 288.919 108.392 288.706 109.675C288.493 110.957 287.774 112.103 286.707 112.861C285.64 113.618 284.312 113.926 283.016 113.715L282.999 113.718Z"
        fill="#FF6767" />
    <path
        d="M300.03 76.2655C300.027 78.97 304.984 86.8167 304.984 86.8167C304.984 86.8167 309.934 78.98 309.934 76.2789C309.951 75.6255 309.836 74.9753 309.595 74.3666C309.354 73.758 308.993 73.2032 308.532 72.735C308.071 72.2668 307.52 71.8947 306.912 71.6407C306.303 71.3866 305.649 71.2557 304.989 71.2557C304.328 71.2557 303.675 71.3866 303.066 71.6407C302.457 71.8947 301.907 72.2668 301.446 72.735C300.985 73.2032 300.623 73.758 300.382 74.3666C300.142 74.9753 300.027 75.6255 300.044 76.2789L300.03 76.2655Z"
        fill="#FF6767" />
    <path
        d="M280.003 88.3574C280.819 90.9385 287.909 96.9577 287.909 96.9577C287.909 96.9577 290.268 88.0139 289.445 85.4328C289.019 84.237 288.14 83.2515 286.994 82.684C285.849 82.1164 284.525 82.0111 283.302 82.3901C282.079 82.7691 281.053 83.603 280.439 84.716C279.825 85.8291 279.671 87.1345 280.01 88.3574H280.003Z"
        fill="#FF6767" />
    <path
        d="M262.188 102.753C262.552 105.421 268.509 112.547 268.509 112.547C268.509 112.547 272.354 104.127 271.99 101.449C271.918 100.801 271.716 100.173 271.394 99.6025C271.073 99.0323 270.64 98.5314 270.121 98.1293C269.601 97.7272 269.006 97.4319 268.369 97.2609C267.733 97.0899 267.068 97.0466 266.414 97.1336C265.76 97.2205 265.131 97.436 264.563 97.7672C263.994 98.0985 263.499 98.5389 263.105 99.0625C262.711 99.5861 262.427 100.182 262.269 100.816C262.112 101.45 262.084 102.109 262.188 102.753Z"
        fill="#FF6767" />
    <path
        d="M324.218 69.8095C322.257 71.6903 313.128 73.6378 313.128 73.6378C313.128 73.6378 315.369 64.6673 317.331 62.7832C318.277 61.9061 319.534 61.432 320.83 61.4628C322.127 61.4937 323.359 62.0271 324.262 62.9482C325.165 63.8693 325.666 65.1044 325.658 66.3877C325.65 67.671 325.133 68.8998 324.218 69.8095Z"
        fill="black" opacity="0.25" />
    <path
        d="M319.056 86.0262C316.36 86.5531 307.642 83.2783 307.642 83.2783C307.642 83.2783 314.449 76.9423 317.128 76.4254C317.771 76.2842 318.437 76.2715 319.085 76.3882C319.733 76.5048 320.351 76.7485 320.903 77.1048C321.455 77.4611 321.929 77.9229 322.298 78.4631C322.667 79.0033 322.923 79.6111 323.052 80.2506C323.18 80.8901 323.178 81.5486 323.046 82.1874C322.914 82.8262 322.654 83.4323 322.282 83.9704C321.909 84.5084 321.432 84.9673 320.878 85.3204C320.324 85.6734 319.705 85.9134 319.056 86.0262Z"
        fill="black" opacity="0.25" />
    <path
        d="M300.266 103.594C297.685 102.71 291.818 95.5203 291.818 95.5203C291.818 95.5203 300.916 93.4594 303.504 94.3431C304.126 94.5473 304.701 94.8716 305.195 95.2973C305.689 95.7229 306.093 96.2415 306.383 96.8228C306.672 97.4042 306.843 98.0367 306.884 98.6838C306.925 99.3308 306.835 99.9794 306.621 100.592C306.406 101.205 306.071 101.769 305.635 102.252C305.198 102.736 304.669 103.128 304.077 103.408C303.486 103.687 302.845 103.847 302.19 103.879C301.536 103.911 300.882 103.814 300.266 103.594Z"
        fill="black" opacity="0.25" />
    <path
        d="M282.999 113.718C280.304 113.278 273.308 107.159 273.308 107.159C273.308 107.159 281.931 103.604 284.624 104.044C285.92 104.255 287.078 104.967 287.843 106.023C288.609 107.079 288.919 108.392 288.706 109.675C288.493 110.957 287.774 112.103 286.707 112.861C285.64 113.618 284.312 113.926 283.016 113.715L282.999 113.718Z"
        fill="black" opacity="0.25" />
    <path
        d="M300.03 76.2655C300.027 78.97 304.984 86.8167 304.984 86.8167C304.984 86.8167 309.934 78.98 309.934 76.2789C309.951 75.6255 309.836 74.9753 309.595 74.3666C309.354 73.758 308.993 73.2032 308.532 72.735C308.071 72.2668 307.52 71.8947 306.912 71.6407C306.303 71.3866 305.649 71.2557 304.989 71.2557C304.328 71.2557 303.675 71.3866 303.066 71.6407C302.457 71.8947 301.907 72.2668 301.446 72.735C300.985 73.2032 300.623 73.758 300.382 74.3666C300.142 74.9753 300.027 75.6255 300.044 76.2789L300.03 76.2655Z"
        fill="black" opacity="0.25" />
    <path
        d="M280.003 88.3574C280.819 90.9385 287.909 96.9577 287.909 96.9577C287.909 96.9577 290.268 88.0139 289.445 85.4328C289.019 84.237 288.14 83.2515 286.994 82.684C285.849 82.1164 284.525 82.0111 283.302 82.3901C282.079 82.7691 281.053 83.603 280.439 84.716C279.825 85.8291 279.671 87.1345 280.01 88.3574H280.003Z"
        fill="black" opacity="0.25" />
    <path
        d="M262.188 102.753C262.552 105.421 268.509 112.547 268.509 112.547C268.509 112.547 272.354 104.127 271.99 101.449C271.918 100.801 271.716 100.173 271.394 99.6025C271.073 99.0323 270.64 98.5314 270.121 98.1293C269.601 97.7272 269.006 97.4319 268.369 97.2609C267.733 97.0899 267.068 97.0466 266.414 97.1336C265.76 97.2205 265.131 97.436 264.563 97.7672C263.994 98.0985 263.499 98.5389 263.105 99.0625C262.711 99.5861 262.427 100.182 262.269 100.816C262.112 101.45 262.084 102.109 262.188 102.753Z"
        fill="black" opacity="0.25" />
    <path
        d="M262.336 121.458C262.336 121.458 264.58 98.5683 277.945 86.3965C283.582 81.3238 287.405 74.5797 288.842 67.1751C289.496 63.6551 289.822 60.083 289.816 56.5039"
        stroke="#535461" stroke-miterlimit="10" stroke-width="2" />
    <path
        d="M298.194 48.7806C297.183 51.2883 289.621 56.7306 289.621 56.7306C289.621 56.7306 287.997 47.6301 289.018 45.1224C289.509 43.9183 290.464 42.9567 291.672 42.4492C292.88 41.9417 294.242 41.9298 295.459 42.4163C296.676 42.9027 297.648 43.8476 298.16 45.043C298.673 46.2384 298.685 47.5865 298.194 48.7906V48.7806Z"
        fill="#FF6767" />
    <path
        d="M300.118 65.6943C297.884 67.2483 288.56 67.7585 288.56 67.7585C288.56 67.7585 292.192 59.2416 294.426 57.6876C294.956 57.2951 295.56 57.0119 296.203 56.8547C296.845 56.6974 297.513 56.6693 298.167 56.7721C298.82 56.8748 299.446 57.1063 300.008 57.4528C300.569 57.7994 301.055 58.2539 301.436 58.7895C301.817 59.325 302.085 59.9308 302.225 60.5709C302.365 61.211 302.374 61.8724 302.251 62.5159C302.128 63.1595 301.876 63.7721 301.51 64.3174C301.143 64.8628 300.67 65.3298 300.118 65.6909V65.6943Z"
        fill="#FF6767" />
    <path
        d="M290.123 89.2978C287.401 89.5245 279.091 85.2961 279.091 85.2961C279.091 85.2961 286.572 79.7604 289.294 79.5337C290.602 79.4249 291.9 79.8346 292.902 80.6726C293.904 81.5106 294.529 82.7083 294.639 84.0022C294.749 85.2961 294.335 86.5803 293.488 87.5721C292.641 88.564 291.431 89.1823 290.123 89.2911V89.2978Z"
        fill="#FF6767" />
    <path
        d="M278.494 105.468C275.849 106.135 266.939 103.377 266.939 103.377C266.939 103.377 273.365 96.6708 276.01 95.9905C277.28 95.6646 278.629 95.8513 279.76 96.5095C280.891 97.1677 281.711 98.2435 282.041 99.5003C282.37 100.757 282.181 102.092 281.516 103.211C280.851 104.33 279.764 105.142 278.494 105.468Z"
        fill="#FF6767" />
    <path
        d="M278.73 64.4003C279.835 66.8714 287.565 72.0702 287.565 72.0702C287.565 72.0702 288.88 62.9197 287.774 60.4487C287.223 59.2926 286.238 58.3955 285.027 57.9491C283.817 57.5027 282.479 57.5424 281.298 58.0597C280.116 58.577 279.187 59.5309 278.707 60.7176C278.227 61.9043 278.235 63.2296 278.73 64.4103V64.4003Z"
        fill="#FF6767" />
    <path
        d="M265.372 83.482C267.175 85.5128 276.118 88.1739 276.118 88.1739C276.118 88.1739 274.609 79.0534 272.806 77.0226C272.38 76.5292 271.86 76.1245 271.275 75.8318C270.69 75.5392 270.052 75.3645 269.398 75.318C268.744 75.2714 268.088 75.3539 267.467 75.5606C266.845 75.7673 266.272 76.0942 265.779 76.5222C265.287 76.9502 264.885 77.4707 264.598 78.0537C264.31 78.6366 264.142 79.2702 264.105 79.9178C264.067 80.5653 264.159 81.2139 264.377 81.8258C264.594 82.4376 264.933 83.0006 265.372 83.482Z"
        fill="#FF6767" />
    <path
        d="M254.963 103.797C256.392 106.098 264.752 110.216 264.752 110.216C264.752 110.216 264.823 100.976 263.404 98.6714C262.698 97.6075 261.601 96.8576 260.345 96.5808C259.09 96.304 257.774 96.522 256.679 97.1887C255.583 97.8554 254.793 98.9183 254.475 100.152C254.158 101.386 254.339 102.693 254.98 103.797H254.963Z"
        fill="#FF6767" />
    <path
        d="M245.15 31.8169C245.71 29.786 246.384 27.7452 246.855 25.6876C246.289 27.7452 245.612 29.7927 245.15 31.8169Z"
        fill="url(#paint0_linear)" />
    <path
        d="M242.643 51.3781C242.596 51.2981 242.562 51.218 242.525 51.1447C242.525 51.1113 242.491 51.0847 242.478 51.0513C242.405 51.0856 242.329 51.1157 242.252 51.1413C242.104 51.198 241.952 51.2514 241.797 51.2947C241.642 51.3381 241.578 51.3614 241.46 51.3881C241.363 51.4215 241.262 51.4471 241.16 51.4648L241.187 51.5248C241.312 51.4982 241.433 51.4748 241.558 51.4415L241.592 51.855C241.733 51.855 241.865 51.835 241.993 51.835C242.053 51.8317 242.114 51.8317 242.175 51.835C242.438 51.835 242.667 51.835 242.849 51.835C242.778 51.6849 242.704 51.5282 242.643 51.3781ZM311.049 159.133C309.465 157.023 306.305 134.366 306.305 134.366C306.305 134.366 300.087 118.256 301.782 111.827C303.477 105.398 297.152 88.9473 297.152 88.9473C297.152 88.9473 292.974 87.1498 292.748 84.4821C292.748 84.4821 275.687 79.1465 274.888 75.1448C274.241 71.8634 263.66 69.5091 259.859 68.7654C258.7 64.1368 257.534 59.8183 256.675 57.4607C256.442 56.727 256.223 56.0934 256.021 55.5932C254.569 51.925 250.08 51.5915 246.825 51.885C246.684 51.2598 246.422 50.6675 246.053 50.1409C245.999 49.9599 245.893 49.7986 245.747 49.6774C245.677 49.6185 245.602 49.565 245.524 49.5173C245.465 49.4092 245.388 49.3122 245.295 49.2305C245.203 49.1481 245.101 49.0765 244.992 49.0171C244.913 48.9752 244.832 48.9384 244.749 48.9071C244.554 48.8335 244.352 48.7788 244.146 48.7437C243.906 48.6948 243.663 48.6636 243.418 48.6503C244.013 48.3928 244.543 48.0092 244.972 47.5265C245.263 47.1876 245.48 46.7924 245.608 46.366C245.715 46.0114 245.763 45.642 245.75 45.2722C245.663 45.4246 245.561 45.5686 245.447 45.7024C245.588 44.2251 244.8 42.7245 244.348 41.2538C243.801 39.3393 243.7 37.3269 244.052 35.368C244.503 32.4135 245.622 29.4255 246.38 26.4176C246.382 26.401 246.382 26.3842 246.38 26.3676C246.778 24.8738 247.024 23.3444 247.115 21.8023C247.246 18.691 246.441 15.5864 245.147 12.7518C243.998 10.2408 242.303 7.76974 239.708 6.74931C237.781 5.97898 235.62 6.10237 233.545 5.97565C228.888 5.68886 224.446 4.06818 220.018 2.59422C215.591 1.12027 211.035 -0.220297 206.374 0.0364782C201.714 0.293253 196.919 2.51752 194.792 6.59924C194.118 7.87311 193.731 9.29038 192.926 10.4875C191.416 12.7452 188.713 13.8756 186.459 15.433C184.205 16.9903 182.22 19.2012 181.404 21.839C180.959 23.2601 180.896 24.7717 181.222 26.2242C181.296 26.5522 181.39 26.8752 181.505 27.1913C181.825 28.0724 182.324 28.8793 182.971 29.5623C183.459 30.067 184.02 30.4974 184.636 30.8395C185.409 31.2635 186.237 31.5821 187.096 31.7865C187.066 31.8866 187.035 31.9933 187.002 32.0967C186.948 32.2667 186.9 32.4301 186.85 32.6135C186.739 33.0237 186.634 33.4406 186.547 33.8607C186.543 33.8906 186.543 33.9209 186.547 33.9508C186.133 35.8476 185.925 37.7827 185.927 39.7232C185.926 40.6409 185.973 41.5581 186.068 42.471C187.416 56.0034 198.705 66.6779 212.652 67.3715C213.131 67.3949 213.613 67.4082 214.101 67.4082C214.324 67.4082 214.543 67.4082 214.775 67.4082C214.994 67.695 215.21 67.9884 215.415 68.2752C215.621 68.562 215.81 68.8555 215.988 69.1423L215.5 68.6421L215.011 68.1985C214.879 68.3784 214.731 68.5469 214.57 68.7021C214.251 68.5912 213.926 68.4998 213.596 68.4286C212.197 68.1218 210.068 68.0084 207.264 68.8455C204.686 69.6091 201.535 71.1798 197.849 74.1644L179.885 84.8355L170.166 90.6847L166.665 99.1549C166.665 99.1549 164.033 109.219 161.105 120.751C160.99 120.784 160.879 120.817 160.768 120.857C160.531 120.831 160.292 120.817 160.054 120.817C158.355 120.813 156.72 121.461 155.494 122.625C154.267 123.788 153.544 125.377 153.476 127.057C147.653 134.06 147.323 141.063 148.691 144.277C148.815 144.578 148.971 144.866 149.156 145.134C150.052 146.415 151.727 149.716 153.425 153.234C153.381 153.524 153.354 153.768 153.341 153.951C153.338 154.011 153.338 154.071 153.341 154.131C153.341 154.131 154.352 169.241 150.982 173.573C150.244 174.517 150.355 175.757 150.982 177.131C153.24 182.073 162.166 188.673 162.166 188.673C162.166 188.673 172.872 188.616 178.837 187.972C178.82 188.566 178.806 189.156 178.793 189.733C178.658 195.562 178.658 200.448 178.658 200.448L178.436 206.56C178.436 206.56 176.414 219.442 175.403 222.994C174.766 225.221 175.501 245.847 176.141 261.01H281.621C282.861 252.039 281.112 224.785 281.112 224.785C281.112 224.785 279.451 217.738 279.39 211.596C279.387 211.589 279.385 211.581 279.385 211.574C279.385 211.566 279.387 211.559 279.39 211.552C279.39 211.015 279.39 210.492 279.411 209.978L280.175 209.952L281.55 209.905H281.675C281.675 209.905 281.709 209.778 281.786 209.571C281.968 209.056 282.216 208.567 282.524 208.114C283.111 207.257 284.027 206.417 285.405 206.36C286.167 206.33 287.346 205.72 288.677 204.819C288.686 204.821 288.695 204.821 288.704 204.819C292.286 202.422 297.021 197.997 298.17 197.27C299.75 196.269 307.319 189.6 307.319 189.6C307.319 189.6 308.448 188.186 309.651 186.482L309.695 186.422C311.191 184.287 312.781 181.736 312.39 180.933C311.716 179.492 312.842 176.047 312.842 176.047C316.357 169.681 312.633 161.244 311.049 159.133ZM245.888 56.5636C245.92 56.6632 245.941 56.7662 245.949 56.8704C245.865 56.7604 245.78 56.6437 245.696 56.5369L245.615 56.4302L245.558 56.3502L245.686 56.1768C245.686 56.1768 245.686 56.1768 245.686 56.2001C245.775 56.3083 245.843 56.4314 245.888 56.5636ZM244.756 53.6091C244.389 53.6824 244.099 53.7491 243.91 53.7991C243.671 53.379 243.442 52.9588 243.236 52.5319C243.776 52.8421 244.285 53.2028 244.756 53.6091ZM244.122 54.1359C244.121 54.1293 244.121 54.1226 244.122 54.1159L244.149 54.1359C244.288 54.226 244.422 54.3127 244.547 54.4027C244.658 54.4828 244.759 54.5594 244.86 54.6395C244.793 54.7562 244.719 54.8763 244.645 54.973C244.527 54.7895 244.416 54.6128 244.308 54.4294C244.24 54.356 244.18 54.256 244.122 54.1359ZM242.101 50.0209C242.752 49.9573 243.407 49.9573 244.058 50.0209C244.149 50.0209 244.23 50.0375 244.311 50.0509C244.494 50.0788 244.673 50.1246 244.847 50.1876C245.245 50.7389 245.49 51.384 245.558 52.0584L245.376 52.0851L245.197 52.1184C244.86 52.1751 244.523 52.2318 244.261 52.2852L243.924 52.3552C243.475 52.4519 243.216 52.5253 243.206 52.5286C243.162 52.4386 243.118 52.3552 243.071 52.2685C242.997 52.1251 242.919 51.9784 242.852 51.835C242.785 51.6916 242.697 51.5282 242.626 51.3781C242.579 51.2981 242.545 51.218 242.508 51.1447C242.508 51.1113 242.475 51.0847 242.461 51.0513C242.441 51.0159 242.425 50.9791 242.411 50.9413C242.205 50.5278 242.016 50.1142 241.834 49.7074C241.814 49.6674 241.797 49.624 241.78 49.584L242.037 49.5673V49.6541L242.101 50.0209ZM161.701 256.888C161.674 251.923 161.311 246.55 160.3 241.508C159.868 239.364 159.423 237.22 158.972 235.112C158.857 234.585 158.746 234.065 158.635 233.545L157.597 233.682H157.503C154.672 220.473 151.713 208.834 151.713 208.834C151.713 208.834 145.837 186.628 146.517 184.858C146.605 184.628 146.494 184.007 146.244 183.097C144.822 178.048 138.885 164.136 136.809 159.38C136.809 159.36 136.792 159.337 136.785 159.32C136.448 158.523 136.206 157.986 136.132 157.83L136.62 150.733L136.647 150.306L136.711 149.399L136.684 149.376L136.711 148.956C136.711 148.956 131.582 144.794 122.895 141.79C122.558 141.669 122.201 141.553 121.847 141.439C122.282 138.568 122.858 135.327 123.61 132.169C123.68 131.852 123.758 131.545 123.839 131.235C123.91 130.925 123.99 130.625 124.071 130.321C124.199 129.828 124.337 129.341 124.479 128.861C124.947 128.714 125.409 128.551 125.864 128.377L126.039 128.311C131.643 126.153 136.268 122.058 139.056 116.785C141.844 111.512 142.607 105.418 141.203 99.6318C140.403 96.3499 138.925 93.2673 136.863 90.578C136.708 90.3712 136.543 90.1645 136.378 89.961C136.213 89.7576 136.014 89.5308 135.828 89.3241C136.802 87.1332 137.951 85.049 138.046 82.9181C138.062 82.6482 138.062 82.3776 138.046 82.1077V82.0744C137.921 80.7038 137.308 79.3166 135.879 77.8593C133.793 75.7217 130.824 74.6379 127.855 74.1177C124.887 73.5975 121.861 73.5841 118.875 73.234C113.925 72.6471 109.103 71.1364 104.153 70.6729C98.0553 70.1142 91.9166 71.1491 86.3501 73.6742C82.667 75.3415 78.9367 78.2561 78.7143 82.2545C78.5323 85.5592 80.8574 88.7272 80.2711 91.9919C79.6881 95.1999 76.3857 97.7243 76.6755 100.969C76.7868 102.236 77.4439 103.37 78.2661 104.38C78.5491 104.714 78.849 105.047 79.1591 105.381C80.3587 106.638 81.6796 107.845 82.3502 109.429C82.3772 109.496 82.4041 109.563 82.4277 109.629C82.9972 111.193 82.7411 113.171 81.3326 114.068C81.3404 114.074 81.3462 114.082 81.3494 114.091C81.3696 114.118 81.3898 114.138 81.4067 114.165C81.4088 114.159 81.4088 114.153 81.4067 114.148C81.9061 114.734 82.5793 115.149 83.3308 115.335L83.6173 115.422C83.3847 115.672 83.1657 115.932 82.9433 116.205L82.7984 116.396C82.427 116.89 82.0893 117.408 81.7875 117.946C81.6156 118.246 81.4505 118.546 81.3123 118.847C80.8504 119.761 80.516 120.734 80.3183 121.738C79.9577 123.945 80.4665 126.246 79.9206 128.407C79.2467 131.075 77.1136 133.123 75.9106 135.6C73.6326 140.269 74.9233 145.748 75.3816 150.903C76.005 157.906 74.994 164.939 73.9865 171.896C73.4518 175.595 72.9171 179.298 72.3825 183.004C71.0346 192.305 69.6867 201.607 68.3388 210.909C67.8468 214.317 67.2638 217.912 64.969 220.543H64.9926C64.9926 220.543 64.9926 220.563 64.969 220.569C65.6579 220.867 66.3905 221.054 67.1391 221.123C70.1348 221.42 73.3091 219.986 76.005 218.418C78.1399 217.198 80.1617 215.793 82.047 214.22C81.7706 215.22 81.4741 216.311 81.1573 217.485C81.1584 217.496 81.1584 217.507 81.1573 217.518C77.3529 231.857 71.2334 258.145 71.2334 258.145C71.2334 258.145 70.6774 259.289 69.9562 260.993H164.984C163.872 259.659 162.837 258.382 162.028 257.352L161.701 256.888ZM91.3407 124.299C91.3643 124.259 91.3812 124.222 91.4048 124.185C91.4048 124.292 91.4048 124.396 91.4048 124.496C91.4048 124.596 91.4048 124.686 91.4048 124.779C91.4048 124.872 91.4048 124.862 91.4048 124.909C91.4048 124.956 91.4048 124.909 91.4048 124.909C91.4048 125.046 91.3744 125.183 91.3509 125.319C91.3509 125.319 91.3509 125.336 91.3509 125.349L91.6878 125.473L92.0787 125.633C94.3881 126.535 96.7268 127.352 99.0946 128.084C99.3372 128.16 99.5832 128.234 99.8292 128.304L99.8797 128.717C99.9404 129.141 99.9977 129.571 100.052 130.001C100.052 130.001 100.052 130.021 100.052 130.035C100.203 131.225 100.351 132.412 100.483 133.573C100.483 133.573 94.296 131.238 94.3735 134.783C94.37 134.847 94.37 134.91 94.3735 134.973C94.3667 135.058 94.3667 135.142 94.3735 135.227C94.4308 137.988 95.3036 139.625 95.4788 140.466C95.4683 140.5 95.4499 140.532 95.4249 140.559C95.2754 140.881 95.2239 141.239 95.2766 141.589C95.2708 142.186 95.3181 142.782 95.4182 143.37C95.2362 143.48 95.0576 143.59 94.879 143.704C94.7442 143.787 94.6162 143.88 94.4847 143.974C93.6581 141.136 92.5766 138.377 91.2531 135.73C90.3264 133.843 89.2852 131.875 89.2953 129.804C89.2953 129.671 89.2953 129.534 89.3122 129.398C89.3497 128.797 89.4652 128.205 89.6559 127.634C89.7334 127.417 89.8176 127.203 89.912 126.993C90.1322 126.494 90.3785 126.007 90.65 125.533C90.8252 125.219 91.0105 124.909 91.1891 124.596C91.2464 124.502 91.3003 124.406 91.3542 124.312L91.3407 124.299ZM242.643 51.3781C242.596 51.2981 242.562 51.218 242.525 51.1447C242.525 51.1113 242.491 51.0847 242.478 51.0513C242.405 51.0856 242.329 51.1157 242.252 51.1413C242.104 51.198 241.952 51.2514 241.797 51.2947C241.642 51.3381 241.578 51.3614 241.46 51.3881L241.16 51.4648L241.187 51.5248C241.312 51.4982 241.433 51.4748 241.558 51.4415L241.592 51.855C241.733 51.855 241.865 51.835 241.993 51.835H242.175C242.438 51.835 242.667 51.835 242.849 51.835C242.778 51.6849 242.704 51.5282 242.643 51.3781Z"
        fill="url(#paint1_linear)" />
    <path
        d="M169.014 100.359L166.992 101.243C166.992 101.243 153.813 151.911 153.813 156.006C153.813 160.101 181.758 182.887 181.758 182.887L186.119 153.761C186.119 153.761 179.858 86.9698 169.014 100.359Z"
        fill="#E8F5FF" />
    <path
        d="M230.313 84.2421L218.637 78.2129C217.983 75.4539 216.822 72.8372 215.213 70.493C213.505 68.052 211.234 65.6543 208.403 64.4038C201.249 61.2291 238.663 44.5654 238.663 44.5654C239.253 46.5672 239.947 48.5374 240.743 50.4679C242.67 55.1766 245.868 61.2658 249.989 62.9999C256.995 65.9511 230.313 84.2421 230.313 84.2421Z"
        fill="#FFEFDE" />
    <path
        d="M240.743 50.4679C239.144 56.0319 235.819 60.9584 231.239 64.5515C226.658 68.1447 221.052 70.223 215.213 70.493C213.505 68.052 211.234 65.6543 208.403 64.4038C201.249 61.2291 238.663 44.5654 238.663 44.5654C239.253 46.5672 239.947 48.5374 240.743 50.4679Z"
        fill="black" opacity="0.1" />
    <path
        d="M241.794 42.0546C241.795 47.5115 240.161 52.8462 237.099 57.384C234.036 61.9218 229.682 65.4589 224.588 67.5479C219.494 69.637 213.888 70.1841 208.48 69.12C203.072 68.056 198.104 65.4287 194.204 61.5703C190.305 57.712 187.649 52.7959 186.573 47.4439C185.498 42.0919 186.05 36.5444 188.16 31.5029C190.27 26.4615 193.844 22.1526 198.429 19.1213C203.014 16.09 208.405 14.4723 213.919 14.473C217.584 14.4562 221.216 15.1581 224.606 16.5383C227.995 17.9184 231.074 19.9494 233.666 22.5138C236.258 25.0783 238.31 28.1256 239.706 31.4795C241.101 34.8335 241.81 38.4277 241.794 42.0546Z"
        fill="#FFEFDE" />
    <path
        d="M245.817 80.7007L238.215 98.2548L231.509 109.906H210.044L203.783 93.9763L206.32 77.456H222.714L233.298 76.8658L236.874 75.6853L239.179 76.9792L245.817 80.7007Z"
        fill="#575A89" />
    <path
        d="M243.199 57.3008C243.199 57.3008 247.94 58.3012 243.695 61.746C239.449 65.1908 224.8 76.1454 224.8 76.1454C224.8 76.1454 229.946 80.6807 228.881 85.9929L245.929 76.5889L248.961 61.5426C248.961 61.5426 249.302 57.0207 243.199 57.3008Z"
        fill="black" opacity="0.1" />
    <path
        d="M228.153 76.1455L217.309 77.9162C217.309 77.9162 219.547 86.103 218.428 88.4273C218.394 88.4996 218.366 88.5743 218.344 88.6508L213.919 100.486L217.235 109.78L228.713 94.2898L224.8 88.4273C224.8 88.4273 228.935 83.005 231.395 81.1242C233.855 79.2434 228.153 76.1455 228.153 76.1455Z"
        fill="black" opacity="0.1" />
    <path
        d="M228.153 75.6885L217.309 77.4559C217.309 77.4559 219.547 85.6427 218.428 87.967C218.394 88.0392 218.366 88.1139 218.344 88.1904L213.919 100.025L217.235 109.319L228.713 93.8195L224.8 87.957C224.8 87.957 228.935 82.5347 231.395 80.6539C233.855 78.7731 228.153 75.6885 228.153 75.6885Z"
        fill="#DCE6F2" />
    <path
        d="M243.654 56.417C243.654 56.417 248.395 57.4174 244.146 60.8622C239.897 64.307 224.8 76.1453 224.8 76.1453C224.8 76.1453 230.391 79.7968 229.329 85.1057L246.377 75.7051L249.41 60.6588C249.41 60.6588 249.747 56.1369 243.654 56.417Z"
        fill="#575A89" />
    <path
        d="M215.958 71.5368C215.958 71.5368 216.992 73.451 221.558 76.9024C221.558 76.9024 213.956 80.9041 216.864 86.5299L205.235 83.5286L203.446 77.9962L215.958 71.5368Z"
        fill="black" opacity="0.1" />
    <path
        d="M215.51 71.0965C215.51 71.0965 216.544 73.0106 221.11 76.4621C221.11 76.4621 213.508 80.4438 216.416 86.0862L204.791 83.0849L203.001 77.5559L215.51 71.0965Z"
        fill="#575A89" />
    <path
        d="M245.817 80.7008L238.215 98.2548L231.523 109.906H210.044L203.783 93.9764L206.317 77.4561H210.876C210.802 81.311 212.224 85.8396 212.133 87.5237C211.978 90.2915 216.305 105.224 216.305 105.224C216.305 105.224 225.359 90.7317 228.935 89.4411C231.182 88.6308 235.944 81.888 239.175 76.9792L245.817 80.7008Z"
        fill="black" opacity="0.1" />
    <path
        d="M275.765 173.076L274.993 174.037C274.993 174.037 280.583 201.805 279.037 208.111C278.774 209.248 278.624 210.407 278.589 211.573V211.623C278.316 218.039 280.273 226.365 280.273 226.365C280.273 226.365 281.837 250.909 280.947 261.003H176.276C175.662 246.077 175.002 226.739 175.602 224.595C176.613 221.057 178.635 208.221 178.635 208.221L178.857 202.139C178.857 202.139 178.857 196.259 179.039 189.71C179.116 186.765 179.231 183.674 179.396 180.933C179.608 177.485 179.905 174.58 180.313 173.153C180.564 172.071 180.708 170.968 180.744 169.858C180.744 169.755 180.744 169.648 180.764 169.542C180.764 169.208 180.798 168.848 180.811 168.478C180.811 168.374 180.811 168.271 180.811 168.144C180.875 165.997 180.852 163.449 180.781 160.808C180.781 160.664 180.781 160.518 180.781 160.371C180.724 158.39 180.64 156.369 180.545 154.448C180.252 148.446 179.871 143.37 179.871 143.37L167.016 101.219L170.48 92.7758L180.094 86.9467L197.869 76.3256C206.54 69.2726 212.248 70.1196 214.425 70.8933C214.636 70.9647 214.843 71.0482 215.045 71.1434C215.112 71.1767 215.166 71.2034 215.217 71.2334C215.286 71.2659 215.352 71.3038 215.416 71.3468C214.819 71.6306 214.302 72.0528 213.906 72.5773C213.46 73.1743 213.142 73.8552 212.972 74.5782C212.859 75.0263 212.779 75.4822 212.733 75.9421C212.689 76.4256 212.673 76.9258 212.673 77.4294C212.697 78.5337 212.792 79.6353 212.959 80.7274C212.959 80.7474 212.959 80.7741 212.959 80.8008C213.07 81.5811 213.208 82.3448 213.343 83.0617C213.342 83.0739 213.342 83.0862 213.343 83.0984C213.498 83.9354 213.653 84.7091 213.758 85.376C213.778 85.4961 213.795 85.6061 213.812 85.7095C213.886 86.1503 213.921 86.5966 213.916 87.0434C213.954 88.1223 214.101 89.1947 214.354 90.2448C214.442 90.685 214.543 91.1552 214.654 91.6454C214.806 92.3123 214.971 93.0393 215.149 93.7796C215.247 94.1864 215.352 94.6066 215.459 95.0234C215.5 95.1902 215.544 95.3569 215.584 95.527L215.651 95.7904C216.369 98.615 217.148 101.426 217.626 103.127C217.909 104.127 218.088 104.744 218.088 104.744C218.088 104.744 223.163 96.6241 227.213 92.0022C227.274 91.9355 227.328 91.8721 227.385 91.8121C227.786 91.3552 228.18 90.9384 228.558 90.5716C229.383 89.7579 230.125 89.1777 230.721 88.9642C230.848 88.9181 230.971 88.8612 231.088 88.7942C232.746 87.8638 235.422 84.4857 237.926 80.9475C238.172 80.614 238.411 80.2506 238.653 79.9071C239.209 79.1134 239.749 78.3164 240.257 77.5528C240.648 76.9692 241.022 76.4023 241.376 75.862C243.061 73.2676 244.247 71.3335 244.247 71.3335L246.586 71.2301L246.994 71.2101H247.267L257.885 70.7232C257.885 70.7232 258.343 70.7999 259.098 70.95C259.138 70.95 259.179 70.95 259.222 70.9766C262.99 71.717 273.456 74.0613 274.097 77.3127C274.878 81.2943 291.761 86.6066 291.761 86.6066C291.983 89.2744 296.118 91.0318 296.118 91.0318C296.118 91.0318 302.379 107.405 300.704 113.821C299.05 120.157 305.011 135.831 305.169 136.271L304.027 137.698L275.765 173.076Z"
        fill="#E8F5FF" />
    <path
        d="M243.196 56.1369C243.196 56.1369 253.531 53.2357 255.88 59.2082C258.228 65.1807 263.482 89.3009 263.482 89.3009C263.482 89.3009 249.841 91.8453 246.266 89.3009C244.169 87.7908 241.573 87.1191 238.997 87.4201L231.284 92.6189L229.006 91.952C229.006 91.952 241.346 73.7976 244.028 67.6284C246.711 61.4591 247.617 58.7013 243.196 56.1369Z"
        fill="black" opacity="0.1" />
    <path
        d="M242.748 54.803C242.748 54.803 253.09 51.9018 255.448 57.8743C257.807 63.8468 263.051 87.967 263.051 87.967C263.051 87.967 249.413 90.5114 245.834 87.967C243.739 86.4568 241.144 85.7851 238.569 86.0862L230.849 91.285L228.571 90.6181C228.571 90.6181 240.911 72.4638 243.594 66.2945C246.276 60.1252 247.169 57.3741 242.748 54.803Z"
        fill="#E8F5FF" />
    <path
        d="M173.374 151.027C173.374 151.027 181.088 152.908 182.544 157.223C183.999 161.538 176.842 161.648 176.842 161.648C176.842 161.648 172.481 154.015 173.374 151.027Z"
        fill="black" opacity="0.1" />
    <path
        d="M202.105 182.887C202.105 182.887 183.214 221.166 187.574 224.818C191.935 228.469 202.105 182.887 202.105 182.887Z"
        fill="black" opacity="0.1" />
    <path
        d="M228.153 154.679C228.153 154.679 243.246 191.861 240.227 197.603C237.208 203.346 246.71 197.603 246.71 197.603L228.153 154.679Z"
        fill="black" opacity="0.1" />
    <path
        d="M249.17 191.407C249.17 191.407 198.193 193.842 213.063 209.552C227.934 225.262 258.451 210.219 258.451 210.219L249.17 191.407Z"
        fill="#FFEFDE" />
    <path
        d="M241.794 42.0543C241.798 45.6726 241.08 49.2561 239.681 52.5988C239.213 52.6521 238.744 52.6855 238.293 52.7055C237.619 51.2416 237.979 49.5508 237.993 47.9402C238.006 46.3295 237.406 44.4353 235.839 44.0018C232.716 43.1315 230.559 48.9106 227.479 47.8668C225.12 47.0731 225.737 43.5316 224.379 41.4874C223.304 39.8701 221.151 39.4132 219.476 38.3995C215.914 36.2352 216.022 32.7738 214.367 29.499C212.635 26.0676 208.976 27.0814 205.798 29.1055C203.385 30.6462 201.303 32.7104 198.722 33.9376C196.487 35.0047 193.977 35.3915 191.5 35.4482C189.975 35.5067 188.45 35.3472 186.971 34.9747C188.711 28.5033 192.769 22.8788 198.39 19.1503C204.011 15.4217 210.81 13.8435 217.52 14.7101C224.23 15.5766 230.392 18.8287 234.858 23.8599C239.323 28.8911 241.788 35.3579 241.79 42.0543H241.794Z"
        fill="black" opacity="0.1" />
    <path
        d="M205.808 28.2218C203.392 29.7624 201.313 31.8233 198.732 33.0572C196.498 34.121 193.987 34.5078 191.51 34.5645C188.478 34.6312 185.212 34.1043 183.14 31.9367C181.236 29.9359 180.781 26.8579 181.586 24.2335C182.392 21.609 184.323 19.4314 186.59 17.8541C188.858 16.2768 191.49 15.1863 192.993 12.9287C193.788 11.7349 194.172 10.3276 194.833 9.05706C196.946 4.99201 201.697 2.79108 206.29 2.51763C210.883 2.24418 215.436 3.59809 219.81 5.06537C224.184 6.53266 228.591 8.14667 233.208 8.45013C235.263 8.57685 237.4 8.45013 239.307 9.22046C241.871 10.2509 243.553 12.7153 244.699 15.223C245.983 18.0508 246.781 21.1388 246.646 24.2268C246.363 30.8196 241.962 37.289 243.897 43.6049C244.409 45.289 245.369 47.0164 244.857 48.7004C244.109 51.1581 240.904 51.7184 238.313 51.8351C237.639 50.3711 238 48.6771 238.013 47.0697C238.027 45.4624 237.427 43.5649 235.863 43.1314C232.736 42.2677 230.579 48.0368 227.506 46.9964C225.164 46.1994 225.771 42.6612 224.409 40.617C223.334 38.9963 221.178 38.5428 219.506 37.5291C215.944 35.3648 216.052 31.9033 214.398 28.6286C212.652 25.1805 208.989 26.1943 205.808 28.2218Z"
        fill="#99607E" />
    <path
        d="M156.377 155.119L153.806 156.006C153.806 156.006 154.817 171.052 151.447 175.367C148.077 179.682 162.513 190.41 162.513 190.41C162.513 190.41 182.301 190.3 182.86 188.743C183.419 187.186 181.849 160.864 181.849 160.864C181.849 160.864 171.228 156.769 172.121 150.243C172.121 150.243 168.879 165.62 164.074 164.956C159.268 164.293 153.813 160.321 156.377 155.119Z"
        fill="#E8F5FF" />
    <path
        d="M164.953 169.612C168.7 169.612 171.737 166.863 171.737 163.472C171.737 160.082 168.7 157.333 164.953 157.333C161.207 157.333 158.17 160.082 158.17 163.472C158.17 166.863 161.207 169.612 164.953 169.612Z"
        fill="black" opacity="0.1" />
    <path
        d="M172.37 155.562C172.37 155.562 171.022 114.852 159.289 123.922C147.555 132.993 147.441 143.84 149.675 147.045C151.909 150.25 159.073 166.293 159.073 166.293C160.194 166.936 161.452 167.307 162.746 167.375C164.039 167.444 165.33 167.208 166.514 166.688C167.697 166.167 168.74 165.377 169.555 164.381C170.37 163.385 170.935 162.212 171.204 160.958L172.37 155.562Z"
        fill="#FFEFDE" />
    <path
        d="M245.565 52.4419C245.51 52.2631 245.405 52.1034 245.262 51.9817C244.682 51.4582 243.435 51.2748 241.555 51.4348L241.632 52.3152C244.139 52.1018 244.635 52.5953 244.699 52.6787V52.7621L244.776 52.8721C245.089 53.2879 245.31 53.7636 245.426 54.269C245.542 54.7743 245.551 55.2981 245.45 55.8067C244.901 58.5245 241.528 60.6887 241.494 60.7121L241.413 60.7588L241.363 60.8355C239.907 62.973 231.675 69.0056 229.521 70.5662L229.333 70.3528C228.369 71.1798 219.897 78.5196 219.439 81.3308C219.143 83.0948 217.134 83.7785 216.406 83.9686C215.638 83.3916 213.144 81.4275 211.847 79.2266C210.63 77.1557 215.527 73.114 215.958 71.5366L215.284 70.853C215.213 71.1065 208.925 76.9222 210.674 79.8935C212.076 82.2778 214.637 84.3187 215.533 84.9923C215.247 87.5667 213.464 102.683 210.725 106.265C207.321 110.717 204.46 133.153 204.777 140.986C205.057 147.946 203.22 161.091 197.087 166.737C196.026 167.757 194.745 168.527 193.34 168.989C191.936 169.451 190.444 169.593 188.976 169.405H188.902H188.828C188.74 169.405 179.844 170.305 172.37 164.069C166.254 158.977 162.79 150.667 162.069 139.362H161.921L161.86 136.071C163.518 135.814 165.012 134.932 166.026 133.609C167.041 132.286 167.498 130.626 167.302 128.976C167.105 127.327 166.27 125.817 164.972 124.764C163.674 123.711 162.014 123.196 160.341 123.329C158.668 123.462 157.112 124.231 156.001 125.475C154.889 126.719 154.307 128.342 154.379 130.001C154.45 131.66 155.169 133.228 156.383 134.374C157.598 135.52 159.214 136.156 160.893 136.147H160.967L161.028 139.419L160.731 139.439C161.472 151.11 165.112 159.744 171.514 165.076C176.381 169.067 182.597 171.08 188.906 170.708C189.353 170.757 189.803 170.781 190.254 170.782C193.145 170.797 195.928 169.689 198.004 167.697C204.464 161.745 206.428 148.116 206.122 140.919C205.785 132.619 208.787 110.99 211.8 107.052C214.752 103.187 216.541 88.127 216.854 85.2091C217.923 84.9123 220.339 83.9752 220.75 81.5409C221.046 79.7801 226.704 74.3545 230.185 71.3499L230.081 71.2299C231.954 69.8759 237.781 65.6075 240.669 62.8663C241.565 62.016 242.455 61.1656 243.385 60.3553C244.503 59.3748 245.925 57.8175 246.299 55.9768C246.427 55.3691 246.428 54.7421 246.301 54.1342C246.175 53.5263 245.924 52.9504 245.565 52.4419Z"
        fill="black" opacity="0.1" />
    <path
        d="M215.419 84.7823C215.277 84.6856 211.921 82.308 210.24 79.4468C208.494 76.4755 214.782 70.6631 214.849 70.4096L215.523 71.0932C215.095 72.6672 210.199 76.7123 211.416 78.7798C212.949 81.3909 216.177 83.6752 216.211 83.6986L215.419 84.7823Z"
        fill="#353146" />
    <path
        d="M229.083 71.2132L228.558 70.4963C228.666 70.4196 239.25 62.843 240.918 60.392L240.972 60.3186L241.049 60.2686C241.083 60.2453 244.456 58.0844 245.006 55.3632C245.107 54.8552 245.099 54.3317 244.983 53.8268C244.867 53.3218 244.645 52.8466 244.332 52.432L244.254 52.3186V52.2386C244.187 52.1519 243.691 51.6617 241.184 51.8751L241.107 50.9914C242.99 50.8313 244.234 51.0147 244.813 51.5383C244.958 51.6611 245.064 51.8218 245.12 52.0018C245.484 52.5088 245.74 53.0843 245.871 53.6929C246.002 54.3014 246.006 54.93 245.882 55.54C245.508 57.3841 244.089 58.9414 242.967 59.9185C242.04 60.7288 241.147 61.5858 240.254 62.4295C236.868 65.6409 229.454 70.9498 229.083 71.2132Z"
        fill="#E8F5FF" />
    <path d="M161.425 134.91L160.532 134.926L160.632 140.297L161.524 140.281L161.425 134.91Z"
        fill="#E8F5FF" />
    <path
        d="M160.458 135.724C164.059 135.724 166.978 132.835 166.978 129.271C166.978 125.707 164.059 122.818 160.458 122.818C156.857 122.818 153.938 125.707 153.938 129.271C153.938 132.835 156.857 135.724 160.458 135.724Z"
        fill="#FF6767" />
    <path
        d="M160.458 134.63C163.449 134.63 165.873 132.231 165.873 129.271C165.873 126.311 163.449 123.912 160.458 123.912C157.467 123.912 155.043 126.311 155.043 129.271C155.043 132.231 157.467 134.63 160.458 134.63Z"
        fill="#E8F5FF" />
    <path
        d="M189.829 170.352C189.379 170.353 188.929 170.329 188.481 170.282C182.173 170.65 175.958 168.637 171.09 164.649C164.687 159.314 161.055 150.69 160.307 139.009L161.654 138.925C162.376 150.23 165.84 158.544 171.959 163.632C179.433 169.852 188.326 168.968 188.414 168.968H188.488H188.562C190.03 169.155 191.522 169.013 192.927 168.551C194.332 168.089 195.613 167.32 196.676 166.3C202.806 160.654 204.643 147.509 204.363 140.549C204.026 132.709 206.887 110.273 210.294 105.825C213.276 101.926 215.126 84.3556 215.146 84.1788L215.197 83.6786L215.695 83.5919C215.726 83.5919 218.637 83.045 219.001 80.8908C219.473 78.0829 227.931 70.7432 228.891 69.9128L229.771 70.9132C226.276 73.9145 220.619 79.3435 220.335 81.1076C219.924 83.5486 217.508 84.4823 216.443 84.7758C216.106 87.697 214.331 102.753 211.389 106.618C208.376 110.557 205.374 132.186 205.711 140.486C206.001 147.682 204.056 161.315 197.596 167.264C195.516 169.261 192.727 170.37 189.829 170.352Z"
        fill="#353146" />
    <g opacity="0.1">
        <path
            d="M244.665 34.1711C245.218 32.1502 245.885 30.116 246.35 28.0685C245.794 30.126 245.123 32.1502 244.665 34.1711Z"
            fill="black" opacity="0.1" />
        <path
            d="M239.027 50.0512C238.353 48.5872 238.714 46.8932 238.727 45.2859C238.741 43.6785 238.141 41.7977 236.577 41.3475C233.45 40.4838 231.294 46.2563 228.22 45.2125C225.862 44.4155 226.485 40.8773 225.124 38.8331C224.049 37.2124 221.895 36.7589 220.224 35.7452C216.659 33.5809 216.767 30.1195 215.115 26.8447C213.38 23.41 209.724 24.4237 206.543 26.4512C204.127 27.9919 202.048 30.0561 199.466 31.2866C197.232 32.3504 194.722 32.7372 192.245 32.7939C189.229 32.8639 185.947 32.3337 183.874 30.1661C182.277 28.4988 181.701 26.0544 182.031 23.7634C181.974 23.9202 181.923 24.0769 181.873 24.2336C181.064 26.8581 181.536 29.9427 183.426 31.9369C185.499 34.1045 188.781 34.6314 191.797 34.5647C194.277 34.508 196.784 34.1211 199.021 33.0574C201.609 31.8235 203.689 29.7626 206.098 28.222C209.279 26.1945 212.939 25.1807 214.671 28.6155C216.322 31.8902 216.217 35.3517 219.779 37.5159C221.464 38.5163 223.604 38.9832 224.682 40.6039C226.03 42.6547 225.434 46.1862 227.779 46.9832C230.849 48.0237 233.006 42.2546 236.133 43.1183C237.696 43.5518 238.299 45.4526 238.283 47.0566C238.266 48.6606 237.915 50.358 238.582 51.8219C241.174 51.7052 244.378 51.155 245.13 48.6873C245.233 48.3331 245.281 47.9653 245.271 47.5968C244.176 49.4676 241.359 49.9478 239.027 50.0512Z"
            fill="black" opacity="0.1" />
    </g>
    <path
        d="M299.929 132.219L303.841 136.314C303.841 136.314 306.972 158.881 308.535 160.991C310.099 163.102 313.792 171.499 310.325 177.805C310.325 177.805 309.206 181.237 309.877 182.674C310.547 184.111 304.849 191.304 304.849 191.304C304.849 191.304 297.358 197.94 295.791 198.937C294.224 199.935 285.955 207.898 283.161 208.008C280.368 208.118 279.454 211.549 279.454 211.549L263.691 212.103C263.691 212.103 254.983 211.653 253.089 212.87C253.089 212.87 254.1 199.704 244.372 191.074L256.779 186.649C256.779 186.649 261.477 184.648 262.929 182.557C263.843 181.275 265.139 180.309 266.636 179.793C266.636 179.793 270.1 177.358 270.211 176.031C270.322 174.704 274.447 173.077 274.447 173.077L272.112 153.352L273.342 120.604C273.342 120.604 277.254 93.1662 285.527 94.7168C293.8 96.2675 299.929 132.219 299.929 132.219Z"
        fill="black" opacity="0.1" />
    <path
        d="M301.277 132.219L305.189 136.314C305.189 136.314 308.32 158.881 309.883 160.991C311.447 163.102 315.14 171.499 311.673 177.805C311.673 177.805 310.557 181.237 311.228 182.674C311.899 184.111 306.197 191.304 306.197 191.304C306.197 191.304 298.706 197.94 297.139 198.937C295.572 199.935 287.303 207.898 284.509 208.008C281.716 208.118 280.802 211.549 280.802 211.549L265.039 212.103C265.039 212.103 256.324 211.653 254.437 212.87C254.437 212.87 255.448 199.704 245.72 191.074L258.127 186.649C258.127 186.649 262.825 184.648 264.277 182.557C265.191 181.275 266.487 180.309 267.984 179.793C267.984 179.793 271.448 177.358 271.559 176.031C271.67 174.704 275.795 173.077 275.795 173.077L273.46 153.352L274.69 120.604C274.69 120.604 278.602 93.1662 286.875 94.7168C295.147 96.2675 301.277 132.219 301.277 132.219Z"
        fill="#E8F5FF" />
    <path
        d="M286.733 165.3C286.733 165.3 298.248 162.298 301.267 165.967C304.286 169.635 286.733 165.3 286.733 165.3Z"
        fill="black" opacity="0.1" />
    <path d="M284.051 170.332C287.963 173.043 300.037 173.153 300.037 173.153L284.051 170.332Z"
        fill="black" opacity="0.1" />
    <path
        d="M289.975 183.884C290.312 183.994 298.275 192.404 301.617 189.86C304.96 187.316 289.975 183.884 289.975 183.884Z"
        fill="black" opacity="0.1" />
    <path
        d="M182.736 113.301C182.736 113.301 185.074 129.235 183.922 135.724C182.769 142.214 186.975 150.254 186.975 150.254L182.736 113.301Z"
        fill="black" opacity="0.1" />
    <path
        d="M130.962 119.781C128.267 121.871 126.299 126.82 124.873 132.259C122.386 141.747 121.574 152.748 121.574 152.748C121.574 152.748 100.109 147.879 101.672 145.668C102.656 144.278 101.335 133.8 100.234 126.203C99.5765 121.715 98.9901 118.23 98.9901 118.23C98.9901 118.23 138.342 114.025 130.962 119.781Z"
        fill="#FFEFDE" />
    <path
        d="M130.962 119.337C128.267 121.431 126.299 126.377 124.873 131.816C120.597 133.101 116.048 133.217 111.71 132.151C107.372 131.085 103.407 128.878 100.234 125.763C99.5765 121.271 98.9901 117.786 98.9901 117.786C98.9901 117.786 138.342 113.585 130.962 119.337Z"
        fill="black" opacity="0.1" />
    <path
        d="M142.5 107.419C142.503 113.219 140.431 118.833 136.653 123.267C132.875 127.701 127.633 130.67 121.856 131.647C116.079 132.624 110.138 131.548 105.086 128.607C100.034 125.667 96.1955 121.053 94.2506 115.581C92.3056 110.11 92.3793 104.134 94.4586 98.7111C96.538 93.2882 100.489 88.7681 105.612 85.9508C110.735 83.1335 116.701 82.2006 122.452 83.3172C128.203 84.4339 133.37 87.528 137.038 92.0521C140.573 96.4101 142.499 101.831 142.5 107.419Z"
        fill="#FFEFDE" />
    <path
        d="M162.072 261.003H154.996L154.399 248.635L153.776 235.833C153.776 235.833 155.383 235.596 157.944 235.243L158.979 235.106H159.063C159.622 237.704 160.175 240.371 160.707 243.036C161.594 247.766 162.055 252.565 162.086 257.375C162.086 257.709 162.086 258.042 162.086 258.356C162.106 259.246 162.086 260.136 162.072 261.003Z"
        fill="black" opacity="0.1" />
    <path
        d="M160.714 261.003H71.9679C72.352 260.139 72.6081 259.616 72.6081 259.616C72.6081 259.616 79.7082 228.876 83.3173 215.871C83.3184 215.86 83.3184 215.849 83.3173 215.837C83.7682 214.071 84.3126 212.329 84.9482 210.619C84.9893 210.502 85.0424 210.391 85.1066 210.285C86.8926 207.411 89.1301 204.313 85.9996 199.887C82.8691 195.462 83.9777 175.991 83.9777 175.991C83.9777 175.991 87.7788 159.394 91.8023 150.543C92.4129 149.172 93.2795 147.928 94.3566 146.875C94.7068 146.536 95.0806 146.222 95.4754 145.935C95.7755 145.712 96.0882 145.506 96.4121 145.318L96.4762 145.278C98.1664 144.329 100.043 143.753 101.979 143.587C103.354 143.445 104.742 143.483 106.107 143.7C112.631 144.648 117.854 146.232 122.006 148.036C133.257 152.928 136.664 159.484 136.731 159.62L136.758 159.677C137.21 160.721 143.815 175.981 146.194 183.1C146.81 184.954 147.147 186.258 147.013 186.615C146.339 188.383 152.155 210.509 152.155 210.509C152.155 210.509 154.851 221.18 157.546 233.688C157.664 234.209 157.776 234.729 157.883 235.256C158.365 237.527 158.844 239.841 159.305 242.152C160.2 246.915 160.661 251.747 160.684 256.591C160.733 258.101 160.743 259.571 160.714 261.003Z"
        fill="#FF748E" />
    <path
        d="M101.45 135.977C101.45 135.977 95.3273 133.643 95.4014 137.184C95.4756 140.726 96.8942 142.42 96.4461 142.937C95.9979 143.454 96.6685 146.552 96.6685 146.552C96.6685 146.552 104.941 146.552 108.742 148.246C112.543 149.94 126.555 153.335 128.344 154.368C130.134 155.402 136.769 160.037 136.769 160.037L137.365 151.26C137.365 151.26 130.508 145.655 119.256 142.78C108.004 139.906 101.45 135.977 101.45 135.977Z"
        fill="black" opacity="0.1" />
    <path
        d="M101.45 135.534C101.45 135.534 95.3273 133.199 95.4014 136.741C95.4756 140.282 96.8942 141.976 96.4461 142.493C95.9979 143.01 96.6685 146.108 96.6685 146.108C96.6685 146.108 104.941 146.108 108.742 147.806C112.543 149.503 126.555 152.894 128.344 153.925C130.134 154.955 136.769 159.594 136.769 159.594L137.372 150.844C137.372 150.844 130.514 145.238 119.263 142.363C108.011 139.489 101.45 135.534 101.45 135.534Z"
        fill="#FF748E" />
    <path
        d="M119.933 156.656C119.933 156.656 131.633 169.191 131.036 172.663C130.44 176.134 119.933 156.656 119.933 156.656Z"
        fill="black" opacity="0.1" />
    <path
        d="M100.928 201.938C100.928 201.938 92.3517 209.758 89.8244 210.202C87.2971 210.646 91.762 212.119 94.6667 210.942C97.5715 209.765 103.765 206.667 103.765 206.667L100.928 201.938Z"
        fill="black" opacity="0.1" />
    <path
        d="M164.199 261.003H144.199C141.402 258.602 138.757 256.378 137.072 255.041C134.376 252.9 132.432 249.749 131.192 247.214C130.912 246.637 130.669 246.097 130.464 245.607C130.096 244.762 129.772 243.9 129.493 243.022L144.304 234.319C145.122 235.007 145.891 235.752 146.605 236.546L146.784 236.75C147.606 237.71 148.33 238.801 148.394 239.694C148.469 240.735 151.394 244.76 154.382 248.625C157.415 252.556 160.522 256.315 160.728 256.568C160.728 256.568 161.24 257.258 162.076 258.319C162.665 259.086 163.393 260.006 164.199 261.003Z"
        fill="#FFEFDE" />
    <path
        d="M137.038 92.0521C136.327 93.6395 135.69 95.2868 135.596 97.0542C135.33 102.156 135.761 113.565 130.053 116.126C127.225 117.386 124.199 114.618 121.099 114.552C118.868 114.505 116.823 115.906 115.461 117.656C114.1 119.407 113.254 121.485 112.267 123.465C111.368 125.263 110.333 126.991 109.17 128.634C108.823 129.137 108.44 129.615 108.024 130.065C104.544 128.611 101.444 126.391 98.9619 123.572C96.4797 120.754 94.6804 117.412 93.7011 113.801C92.7218 110.19 92.5883 106.405 93.3108 102.736C94.0333 99.0661 95.5928 95.6081 97.8703 92.6251C100.148 89.6422 103.083 87.2132 106.453 85.523C109.823 83.8329 113.538 82.9263 117.316 82.8723C121.094 82.8183 124.834 83.6184 128.251 85.2115C131.669 86.8047 134.674 89.1489 137.038 92.0655V92.0521Z"
        fill="black" opacity="0.1" />
    <path
        d="M135.148 96.154C134.878 101.256 135.313 112.664 129.601 115.222C126.774 116.483 123.748 113.718 120.648 113.651C118.417 113.601 116.375 115.005 115.01 116.753C113.645 118.5 112.806 120.581 111.815 122.565C110.916 124.363 109.881 126.091 108.719 127.734C108.024 128.708 107.256 129.685 106.188 130.232C104.328 131.192 102.073 130.652 100.078 130.035C97.4905 129.228 94.9407 128.319 92.4291 127.307C92.4868 126.932 92.5161 126.553 92.5168 126.173C92.4426 126.313 92.3617 126.443 92.2809 126.583L92.1225 126.857C91.8361 127.357 91.5564 127.857 91.3003 128.371C91.2025 128.568 91.1082 128.771 91.0239 128.975C90.685 129.732 90.4722 130.538 90.3938 131.362C90.2219 133.586 91.3306 135.697 92.3146 137.698C96.0988 145.438 98.4374 154.489 95.59 162.609C94.3566 166.14 92.2202 169.278 90.66 172.69C87.9327 178.732 87.1298 185.453 88.3585 191.958C89.1369 195.999 90.6971 200.001 90.3129 204.1C89.639 211.152 83.4925 216.401 77.336 220.01C74.01 221.95 69.9393 223.678 66.4078 222.144C68.6588 219.543 69.2384 215.945 69.7237 212.55C71.0514 203.29 72.3824 194.026 73.7169 184.758C74.2493 181.07 74.7806 177.382 75.3107 173.693C76.3015 166.764 77.3057 159.757 76.6856 152.785C76.2341 147.646 74.9603 142.19 77.2113 137.538C78.4008 135.074 80.5204 133.033 81.1809 130.378C81.7234 128.221 81.2179 125.927 81.5751 123.729C81.7706 122.729 82.1016 121.76 82.5591 120.848C83.1416 119.61 83.9021 118.462 84.8169 117.44C83.9138 117.18 83.0713 116.823 82.5591 116.076C84.0081 115.142 84.2271 113.038 83.57 111.457C82.9129 109.876 81.5987 108.673 80.4159 107.425C79.2331 106.178 78.0942 104.724 77.9459 103.024C77.6595 99.7855 80.9281 97.2778 81.5044 94.0831C82.0873 90.8318 79.7824 87.6704 79.9678 84.379C80.1834 80.4007 83.8767 77.5095 87.5228 75.8321C93.0249 73.3115 99.1028 72.2761 105.14 72.8308C110.053 73.291 114.808 74.795 119.707 75.3786C122.663 75.712 125.658 75.7454 128.593 76.2589C131.528 76.7725 134.47 77.8563 136.536 79.9872C141.981 85.6062 135.458 90.2315 135.148 96.154Z"
        fill="#FFE0D0" />
    <path
        d="M130.592 247.218C128.873 246.481 125.746 246.921 120.378 245.304C115.01 243.686 113.975 236.377 113.975 236.377V236.353C113.911 236.186 113.413 235.099 110.036 231.291C106.306 227.086 98.2419 205.847 98.2419 205.847C98.2419 205.847 91.0913 198.247 91.3171 195.446C91.5428 192.645 90.0467 185.192 90.1949 176.855C90.3432 168.518 106.292 162.989 106.292 162.989C137.001 157.603 129.769 192.638 128.951 195.292C128.132 197.947 132.381 205.117 132.381 205.117C131.781 208.238 134.841 213.07 134.841 213.07C134.841 213.07 135.582 217.345 135.734 218.969C135.742 219.044 135.759 219.118 135.784 219.189C136.276 220.72 140.286 222.107 141.917 222.951C143.633 223.838 149.149 231.581 149.149 231.581C150.338 237.267 132.303 247.965 130.592 247.218Z"
        fill="black" opacity="0.1" />
    <path
        d="M131.485 245.884C129.77 245.143 126.639 245.587 121.274 243.966C115.91 242.345 114.872 235.042 114.872 235.042V235.019C114.811 234.849 114.309 233.765 110.933 229.957C107.202 225.752 99.1385 204.51 99.1385 204.51C99.1385 204.51 91.9878 196.913 92.2102 194.112C92.4326 191.311 90.9432 183.858 91.0915 175.527C91.2397 167.197 107.179 161.671 107.179 161.671C137.887 156.286 130.656 191.321 129.837 193.975C129.018 196.63 133.267 203.799 133.267 203.799C132.668 206.921 135.727 211.753 135.727 211.753C135.727 211.753 136.469 216.028 136.624 217.652C136.629 217.727 136.645 217.801 136.671 217.872C137.163 219.402 141.173 220.79 142.807 221.633C144.519 222.517 150.039 230.264 150.039 230.264C151.235 235.939 133.2 246.637 131.485 245.884Z"
        fill="#FF748E" />
    <path
        d="M107.785 179.963C107.785 179.963 121.2 193.968 124.701 193.968C128.203 193.968 107.785 179.963 107.785 179.963Z"
        fill="black" opacity="0.1" />
    <path
        d="M131.485 245.884C129.769 245.144 126.639 245.587 121.274 243.966C115.91 242.346 114.872 235.043 114.872 235.043V235.019C118.427 232.685 127.431 226.092 130.979 223.681C133.476 221.99 135.515 219.506 136.708 217.859C137.2 219.389 141.21 220.777 142.844 221.62C144.556 222.504 150.076 230.251 150.076 230.251C151.235 235.94 133.2 246.638 131.485 245.884Z"
        fill="#FF748E" />
    <g opacity="0.1">
        <path
            d="M82.5793 116.112C82.5962 116.139 82.6198 116.162 82.64 116.189C82.7411 116.062 82.8456 115.935 82.9534 115.815C82.8385 115.926 82.7133 116.025 82.5793 116.112Z"
            fill="black" opacity="0.1" />
        <path
            d="M90.3972 131.399C90.5387 129.548 91.5395 127.917 92.4763 126.29C91.863 126.056 91.2497 125.82 90.6432 125.573C90.7009 125.199 90.7302 124.821 90.7308 124.442C89.7839 126.11 88.7527 127.75 88.6078 129.628C88.436 131.855 89.5446 133.963 90.5286 135.964C94.3162 143.7 96.6515 152.751 93.804 160.874C92.5673 164.403 90.4342 167.544 88.874 170.955C86.1477 176.997 85.346 183.717 86.5759 190.22C87.3475 194.265 88.9111 198.263 88.527 202.362C87.853 209.415 81.7099 214.664 75.55 218.269C73.0328 219.743 70.091 221.093 67.2772 220.996C67.0168 221.411 66.7262 221.807 66.4078 222.18C69.9427 223.724 74.01 221.987 77.336 220.039C83.4993 216.438 89.6558 211.202 90.3298 204.136C90.7139 200.038 89.1504 196.039 88.3753 191.994C87.1451 185.491 87.9443 178.772 90.6668 172.729C92.2169 169.321 94.3735 166.177 95.5967 162.648C98.4442 154.525 96.1056 145.475 92.3213 137.738C91.3407 135.724 90.2253 133.626 90.3972 131.399Z"
            fill="black" opacity="0.1" />
        <path
            d="M136.529 80.0268C136.198 79.6903 135.842 79.3782 135.464 79.0931C139.549 84.3353 133.652 88.7905 133.358 94.4329C133.096 99.535 133.527 110.947 127.815 113.501C124.991 114.765 121.962 111.997 118.865 111.93C116.631 111.884 114.589 113.288 113.224 115.035C111.859 116.782 111.02 118.863 110.033 120.844C109.132 122.642 108.096 124.369 106.933 126.013C106.259 126.99 105.47 127.964 104.399 128.514C102.545 129.471 100.291 128.934 98.2926 128.314C96.3494 127.709 94.4241 127.042 92.5168 126.313C92.5129 126.66 92.4836 127.007 92.4292 127.35C94.943 128.364 97.494 129.273 100.082 130.078C102.077 130.698 104.331 131.235 106.188 130.278C107.256 129.728 108.031 128.751 108.722 127.774C109.886 126.133 110.921 124.406 111.819 122.608C112.81 120.627 113.645 118.543 115.013 116.796C116.381 115.048 118.42 113.648 120.651 113.694C123.751 113.761 126.781 116.529 129.604 115.265C135.316 112.711 134.881 101.299 135.148 96.197C135.458 90.2645 141.982 85.6425 136.529 80.0268Z"
            fill="black" opacity="0.1" />
    </g>
    <path
        d="M92.1259 126.86C91.8394 127.36 91.5598 127.861 91.3037 128.374C91.2059 128.571 91.1116 128.774 91.0273 128.978C89.2616 127.217 84.9618 123.032 82.5625 121.735C83.1459 120.497 83.9062 119.349 84.8202 118.327C84.8202 118.327 90.5387 121.318 92.1259 126.86Z"
        fill="black" opacity="0.1" />
    <path
        d="M92.2842 126.586C90.9599 120.654 84.8202 117.443 84.8202 117.443C83.9055 118.465 83.145 119.613 82.5625 120.851C85.0932 122.221 89.7569 126.817 91.3037 128.374L92.2842 126.586Z"
        fill="#FF748E" />
    <defs>
        <linearGradient gradientUnits="userSpaceOnUse" id="paint0_linear" x1="246.003" x2="246.003"
            y1="31.8169" y2="25.6876">
            <stop stop-color="#808080" stop-opacity="0.25" />
            <stop offset="0.54" stop-color="#808080" stop-opacity="0.12" />
            <stop offset="1" stop-color="#808080" stop-opacity="0.1" />
        </linearGradient>
        <linearGradient gradientUnits="userSpaceOnUse" id="paint1_linear" x1="154595" x2="154595"
            y1="219594" y2="15310.6">
            <stop stop-color="#808080" stop-opacity="0.25" />
            <stop offset="0.54" stop-color="#808080" stop-opacity="0.12" />
            <stop offset="1" stop-color="#808080" stop-opacity="0.1" />
        </linearGradient>
    </defs>
</svg>
