<svg fill="none" height="301" viewBox="0 0 375 301" width="375" xmlns="http://www.w3.org/2000/svg">
    <g clip-path="url(#clip0)">
        <path
            d="M117.298 300.831C137.849 300.831 154.509 298.136 154.509 294.813C154.509 291.489 137.849 288.794 117.298 288.794C96.7465 288.794 80.0865 291.489 80.0865 294.813C80.0865 298.136 96.7465 300.831 117.298 300.831Z"
            fill="#FF6D6D" opacity="0.1" />
        <path
            d="M319.571 301C345.216 301 366.005 298.306 366.005 294.982C366.005 291.658 345.216 288.964 319.571 288.964C293.927 288.964 273.138 291.658 273.138 294.982C273.138 298.306 293.927 301 319.571 301Z"
            fill="#FF6D6D" opacity="0.1" />
        <path
            d="M-17.7147 130.054H21.043V183.248H-14.8773C-14.9728 183.794 -15.0644 184.344 -15.1637 184.894H21.043V227.794C20.978 227.775 20.9208 227.751 20.8597 227.728C19.8362 227.321 18.8204 226.89 17.8046 226.429L17.1554 226.133C16.137 225.648 15.1186 225.135 14.1003 224.594C13.7451 224.406 13.39 224.21 13.0386 224.01C7.38511 220.821 2.24919 216.78 -2.19102 212.027C-2.32086 211.9 -2.44306 211.766 -2.5729 211.643C-3.19156 210.966 -3.79876 210.282 -4.38686 209.582L-5.03607 208.813C-5.73111 207.955 -6.40323 207.074 -7.05625 206.182C-7.15173 206.051 -7.24338 205.921 -7.34267 205.798C-9.99851 202.09 -12.2037 198.075 -13.9111 193.838C-13.9646 193.711 -14.0104 193.573 -14.0601 193.454C-14.5845 192.095 -15.0491 190.723 -15.4539 189.339C-15.6296 188.758 -15.7976 188.185 -15.9428 187.582C-15.9962 187.405 -16.042 187.232 -16.0841 187.059C-18.2532 178.533 -18.509 169.677 -18.509 160.883C-18.509 159.856 -18.509 158.825 -18.509 157.806C-18.509 154.249 -18.467 150.669 -18.4059 147.093C-18.4059 146.166 -18.3677 145.243 -18.3486 144.313C-18.2952 141.951 -18.2188 139.59 -18.1195 137.229C-18.0966 136.572 -18.066 135.918 -18.0317 135.264C-18.0317 134.887 -18.0126 134.51 -17.9744 134.134C-17.8827 132.765 -17.8064 131.407 -17.7147 130.054Z"
            fill="#FF6D6D" opacity="0.1" />
        <path
            d="M21.0431 70.8259H-0.216553C3.23931 65.3791 7.01526 60.145 11.0911 55.1518C14.2493 51.2448 17.5832 47.4377 21.0431 43.7692V70.8259Z"
            fill="#FF6D6D" opacity="0.1" />
        <path
            d="M21.043 72.4717V128.408H-17.5925C-17.5925 128.246 -17.5657 128.081 -17.5543 127.92C-17.5199 127.477 -17.4855 127.035 -17.4474 126.597C-17.4053 126.081 -17.3595 125.562 -17.3099 125.058C-17.2602 124.555 -17.2068 123.939 -17.1495 123.382C-17.0922 122.824 -17.0387 122.259 -16.9738 121.701C-16.9089 121.144 -16.8516 120.586 -16.7829 120.032C-16.7141 119.479 -16.653 118.917 -16.5805 118.364C-16.5232 117.902 -16.4621 117.444 -16.401 116.983C-16.3132 116.333 -16.2215 115.679 -16.1222 115.033C-16.1222 114.937 -16.0955 114.837 -16.0802 114.745C-15.3832 110.016 -14.4335 105.328 -13.2351 100.701C-11.9808 95.8483 -10.3791 91.0931 -8.44247 86.4731C-6.38423 81.64 -3.97434 76.9666 -1.23245 72.491L21.043 72.4717Z"
            fill="#FF6D6D" opacity="0.1" />
        <path
            d="M30.296 130.05V183.248H113.078V130.05H30.296ZM30.296 184.89V230.574C30.7696 230.674 31.2393 230.77 31.7052 230.851C32.3391 230.974 32.9692 231.086 33.6146 231.182C33.7368 231.201 33.8628 231.22 33.9965 231.232C34.2485 231.274 34.5082 231.309 34.7603 231.343C35.398 231.432 36.032 231.505 36.6697 231.562C36.9714 231.593 37.2769 231.62 37.5824 231.643L38.3195 231.701C38.7204 231.732 39.1176 231.755 39.5109 231.766C39.7553 231.766 39.9998 231.789 40.2518 231.797C40.4427 231.797 40.6337 231.797 40.8323 231.797C41.0309 231.797 41.3134 231.797 41.554 231.797C41.8825 231.797 42.2109 231.797 42.5355 231.797H42.9747C43.3031 231.797 43.6315 231.797 43.9561 231.766H43.979C44.2043 231.766 44.4335 231.766 44.6626 231.735C44.7262 231.739 44.7899 231.739 44.8535 231.735C45.0445 231.735 45.2354 231.735 45.4187 231.709H45.5524L46.8317 231.609C47.2518 231.57 47.6757 231.52 48.1034 231.474L48.9741 231.37C52.5164 230.87 56.0193 230.12 59.4569 229.124C67.1786 226.956 74.7323 223.921 82.4503 221.699C92.429 218.834 103.454 217.426 113.097 220.93V184.89H30.296ZM113.078 70.8258V0.00383596C104.014 -0.0950401 94.9758 0.972386 86.1813 3.18019C65.2196 8.48309 46.4116 19.9849 30.296 34.6746V70.8219H34.4509V72.464H30.296V128.408H113.078V72.4678H51.5098V70.8258H113.078ZM219.406 46.9031C214.22 46.7186 209.065 45.065 204.402 42.5116C195.485 37.6279 188.363 30.0869 180.404 23.7227C163.868 10.4673 143.361 2.46878 122.323 0.484519V70.8258H240.498L240.792 70.5143L219.406 46.9031ZM230.172 44.9804L241.586 57.5935V41.6733C237.764 42.1501 234.414 43.2846 230.187 44.965L230.172 44.9804ZM241.586 241.918V184.89H217.264C217.199 184.648 217.134 184.402 217.058 184.156C217.13 184.402 217.191 184.648 217.26 184.89H122.338V226.133C123.24 226.806 124.129 227.513 125.012 228.232C125.962 229.001 126.902 229.813 127.845 230.609L128.796 231.401C129.25 231.785 129.709 232.17 130.171 232.531C131.087 233.28 132.013 234.018 132.947 234.746C133.409 235.131 133.883 235.477 134.352 235.839C141.81 241.58 149.676 246.761 157.888 251.34C159.729 252.365 161.586 253.366 163.46 254.343C164.709 254.985 165.965 255.623 167.225 256.243C169.119 257.173 171.029 258.07 172.954 258.934C190.698 266.955 209.462 272.459 228.709 275.289C232.984 275.925 237.275 276.425 241.582 276.789V241.914H241.964L241.586 241.918ZM122.338 72.4678V128.408H241.602V72.4678H122.338ZM122.338 130.05V183.248H241.602V130.05H122.338ZM250.858 41.6041V59.3624L265.427 43.2653C260.6 42.4809 255.744 41.9207 250.858 41.5849V41.6041ZM250.858 130.069V183.248H366.857V130.05L250.858 130.069ZM366.433 246.141L366.841 184.89H250.858V277.4C258.33 277.716 265.813 277.627 273.275 277.131H273.405C276.969 276.906 280.517 276.577 284.048 276.147H284.128C302.967 273.939 321.388 268.99 338.815 261.453L366.433 246.141ZM389.224 138.81C388.788 137.775 388.334 136.749 387.872 135.733C387.009 133.811 386.096 131.942 385.157 130.073H376.106V183.248H398.988C398.977 168.189 395.192 152.807 389.235 138.791L389.224 138.81ZM376.106 184.909V237.592C382.552 231.37 387.998 224.252 391.92 216.115C396.636 206.317 398.794 195.707 398.969 184.902L376.106 184.909ZM376.106 114.568V128.412H384.309C381.827 123.646 379.093 119.018 376.117 114.549L376.106 114.568ZM297.437 52.0407C296.834 51.81 296.23 51.5754 295.623 51.3485C289.219 48.9671 282.675 46.9868 276.029 45.4188L253.734 70.0567L253.306 70.5143L253.593 70.8296H332.941C321.89 63.1696 309.976 56.8562 297.449 52.0215L297.437 52.0407ZM335.267 72.487H252.485L250.858 73.9868V128.408H265.118H265.141H366.872V102.047C357.669 90.8398 347.048 80.8954 335.278 72.4678L335.267 72.487Z"
            fill="#FF6D6D" opacity="0.1" />
        <path
            d="M21.043 100.686V128.408H-17.5925C-17.5925 128.246 -17.5657 128.081 -17.5543 127.919C-17.5199 127.477 -17.4855 127.035 -17.4474 126.596C-17.4053 126.081 -17.3595 125.562 -17.3099 125.058C-17.2602 124.555 -17.2068 123.939 -17.1495 123.382C-17.0922 122.824 -17.0387 122.259 -16.9738 121.701C-16.9089 121.144 -16.8516 120.586 -16.7829 120.032C-16.7141 119.479 -16.653 118.917 -16.5805 118.363C-16.5232 117.902 -16.4621 117.444 -16.401 116.983C-16.3132 116.333 -16.2215 115.679 -16.1222 115.033C-16.1222 114.937 -16.0955 114.837 -16.0802 114.745C-15.3832 110.015 -14.4335 105.327 -13.2351 100.701L21.043 100.686Z"
            fill="#FF6D6D" opacity="0.1" />
        <path
            d="M-17.7147 130.054H21.043V183.248H-14.8773C-14.9728 183.794 -15.0644 184.344 -15.1637 184.894H21.043V227.794C20.978 227.775 20.9208 227.751 20.8597 227.728C19.8362 227.321 18.8204 226.89 17.8046 226.429L17.1554 226.133C16.137 225.648 15.1186 225.135 14.1003 224.594C13.7451 224.406 13.39 224.21 13.0386 224.01C7.38511 220.821 2.24919 216.78 -2.19102 212.027C-2.32086 211.9 -2.44306 211.766 -2.5729 211.643C-3.19156 210.966 -3.79876 210.282 -4.38686 209.582L-5.03607 208.813C-5.73111 207.955 -6.40323 207.074 -7.05625 206.182C-7.15173 206.051 -7.24338 205.921 -7.34267 205.798C-9.99851 202.09 -12.2037 198.075 -13.9111 193.838C-13.9646 193.711 -14.0104 193.573 -14.0601 193.454C-14.5845 192.095 -15.0491 190.723 -15.4539 189.339C-15.6296 188.758 -15.7976 188.185 -15.9428 187.582C-15.9962 187.405 -16.042 187.232 -16.0841 187.059C-18.2532 178.533 -18.509 169.677 -18.509 160.883C-18.509 159.856 -18.509 158.825 -18.509 157.806C-18.509 154.249 -18.467 150.669 -18.4059 147.093C-18.4059 146.166 -18.3677 145.243 -18.3486 144.313C-18.2952 141.951 -18.2188 139.59 -18.1195 137.229C-18.0966 136.572 -18.066 135.918 -18.0317 135.264C-18.0317 134.887 -18.0126 134.51 -17.9744 134.134C-17.8827 132.765 -17.8064 131.407 -17.7147 130.054Z"
            fill="#FF6D6D" opacity="0.1" />
        <path d="M59.4378 80.4778V128.408H30.296V80.4778H34.4509V64.2499H51.506V80.4778H59.4378Z"
            fill="#FF6D6D" opacity="0.1" />
        <path d="M59.4378 130.05H30.2999V183.244H59.4378V130.05Z" fill="#FF6D6D" opacity="0.1" />
        <path
            d="M30.296 184.894H59.4378V229.117C56.0002 230.111 52.4973 230.86 48.955 231.359L48.0843 231.466C47.6566 231.516 47.2327 231.558 46.8126 231.601C46.3925 231.643 45.9572 231.674 45.5333 231.701H45.3996C45.2163 231.701 45.0178 231.724 44.8383 231.728H44.6435C44.4144 231.728 44.1852 231.751 43.9561 231.758C43.6315 231.778 43.3069 231.782 42.9747 231.785C42.8334 231.785 42.6997 231.785 42.5584 231.785C42.23 231.785 41.9054 231.785 41.577 231.785H40.8552C40.6604 231.785 40.4733 231.785 40.2709 231.785L39.5339 231.758C39.152 231.758 38.7395 231.716 38.3424 231.689L37.6091 231.635L36.6964 231.551C36.0549 231.493 35.4171 231.42 34.787 231.332L34.0232 231.224L33.6413 231.17C33.0036 231.07 32.3735 230.962 31.7319 230.839C31.2622 230.759 30.7963 230.659 30.3227 230.563L30.296 184.894Z"
            fill="#FF6D6D" opacity="0.1" />
        <path d="M241.602 74.8173H217.573V128.404H241.602V74.8173Z" fill="#FF6D6D" opacity="0.1" />
        <path d="M241.605 130.05V183.248H122.338V160.302H185.865V173.838H217.573V130.05H241.605Z"
            fill="#FF6D6D" opacity="0.1" />
        <path
            d="M241.983 241.93H241.602V276.827C237.299 276.461 233.009 275.962 228.732 275.332C209.476 272.493 190.704 266.977 172.954 258.942C167.829 256.62 162.808 254.084 157.892 251.336C149.68 246.755 141.813 241.574 134.353 235.835C132.479 234.389 130.629 232.91 128.804 231.397C127.54 230.347 126.283 229.271 125.012 228.225C124.129 227.506 123.24 226.798 122.338 226.121V184.894H217.256C217.191 184.648 217.126 184.402 217.058 184.159C217.13 184.402 217.199 184.648 217.264 184.894H241.602V241.907C241.731 241.911 241.857 241.922 241.983 241.93Z"
            fill="#FF6D6D" opacity="0.1" />
        <path
            d="M304.269 70.8256H288.612V65.9265H295.631V51.333C296.239 51.556 296.845 51.7855 297.449 52.0213V65.9265H304.269V70.8256Z"
            fill="#FF6D6D" opacity="0.1" />
        <path
            d="M341.992 128.408H265.126C265.126 128.408 265.126 128.408 265.152 128.427L265.118 128.408H250.858V74.8213H254.899V114.43H273.363V90.9723H288.616V72.4717H304.273V90.9877H319.525V114.445H341.992V128.408Z"
            fill="#FF6D6D" opacity="0.1" />
        <path
            d="M250.858 130.05V183.248H341.992V130.05H250.858ZM366.73 245.868L366.857 203.76H341.992V184.917H250.858V277.4C258.33 277.717 265.813 277.627 273.275 277.131H273.405C276.969 276.906 280.517 276.578 284.048 276.147H284.128C302.967 273.939 321.388 268.99 338.815 261.453"
            fill="#FF6D6D" opacity="0.1" />
        <path d="M241.605 89.7149H228.732V106.516H241.605V89.7149Z" fill="#FF6D6D" opacity="0.1" />
        <path d="M241.605 124.539H228.732V128.408H241.605V124.539Z" fill="#FF6D6D" opacity="0.1" />
        <path d="M241.605 130.05H228.732V141.336H241.605V130.05Z" fill="#FF6D6D" opacity="0.1" />
        <path d="M241.605 159.364H228.732V176.165H241.605V159.364Z" fill="#FF6D6D" opacity="0.1" />
        <path d="M241.605 194.188H228.732V210.989H241.605V194.188Z" fill="#FF6D6D" opacity="0.1" />
        <path
            d="M241.602 241.907C241.732 241.907 241.858 241.907 241.984 241.93H241.602V245.833H228.732V229.013H241.602V241.907Z"
            fill="#FF6D6D" opacity="0.1" />
        <path
            d="M241.602 263.83V276.808C237.299 276.442 233.009 275.943 228.732 275.312V263.83H241.602Z"
            fill="#FF6D6D" opacity="0.1" />
        <path d="M177.509 182.014H122.338V183.248H177.509V182.014Z" fill="#FF6D6D" opacity="0.1" />
        <path d="M177.509 184.89H122.338V189.62H177.509V184.89Z" fill="#FF6D6D" opacity="0.1" />
        <path d="M177.509 205.125H122.338V212.731H177.509V205.125Z" fill="#FF6D6D" opacity="0.1" />
        <path
            d="M177.506 228.236V235.842H134.353C132.479 234.402 130.628 232.922 128.8 231.405C127.536 230.355 126.283 229.278 125.008 228.236H177.506Z"
            fill="#FF6D6D" opacity="0.1" />
        <path
            d="M177.506 251.343V258.942H172.95C167.83 256.617 162.811 254.08 157.892 251.332L177.506 251.343Z"
            fill="#FF6D6D" opacity="0.1" />
        <path d="M284.14 135.207H273.279V146.143H284.14V135.207Z" fill="#FF6D6D" opacity="0.1" />
        <path d="M48.9818 84.2505H38.121V95.1869H48.9818V84.2505Z" fill="#FF6D6D" opacity="0.1" />
        <path d="M48.9818 109.653H38.121V120.59H48.9818V109.653Z" fill="#FF6D6D" opacity="0.1" />
        <path d="M48.9818 135.057H38.121V145.993H48.9818V135.057Z" fill="#FF6D6D" opacity="0.1" />
        <path d="M48.9818 160.456H38.121V171.393H48.9818V160.456Z" fill="#FF6D6D" opacity="0.1" />
        <path d="M48.9818 185.859H38.121V196.796H48.9818V185.859Z" fill="#FF6D6D" opacity="0.1" />
        <path d="M48.9818 211.262H38.121V222.199H48.9818V211.262Z" fill="#FF6D6D" opacity="0.1" />
        <path d="M325.602 135.207H314.741V146.143H325.602V135.207Z" fill="#FF6D6D" opacity="0.1" />
        <path d="M284.14 162.182H273.279V173.119H284.14V162.182Z" fill="#FF6D6D" opacity="0.1" />
        <path d="M325.602 162.182H314.741V173.119H325.602V162.182Z" fill="#FF6D6D" opacity="0.1" />
        <path d="M284.14 189.155H273.279V200.091H284.14V189.155Z" fill="#FF6D6D" opacity="0.1" />
        <path d="M325.602 189.155H314.741V200.091H325.602V189.155Z" fill="#FF6D6D" opacity="0.1" />
        <path d="M284.14 216.131H273.279V227.067H284.14V216.131Z" fill="#FF6D6D" opacity="0.1" />
        <path d="M325.602 216.131H314.741V227.067H325.602V216.131Z" fill="#FF6D6D" opacity="0.1" />
        <path d="M284.14 243.107H273.279V254.043H284.14V243.107Z" fill="#FF6D6D" opacity="0.1" />
        <path d="M325.602 243.107H314.741V254.043H325.602V243.107Z" fill="#FF6D6D" opacity="0.1" />
        <path d="M273.279 277.131V270.079H284.136V276.128L273.279 277.131Z" fill="#FF6D6D"
            opacity="0.1" />
        <path
            d="M-16.126 114.737V120.994H21.043V114.737H-16.126ZM-12.4217 120.601H-15.4539V115.122H-12.3988L-12.4217 120.601ZM-8.72126 120.601H-11.7764V115.122H-8.72126V120.601ZM-5.02841 120.601H-8.08351V115.122H-5.02841V120.601ZM-1.32794 120.601H-4.37921V115.122H-1.32412L-1.32794 120.601ZM2.36873 120.601H-0.686366V115.122H2.36873V120.601ZM6.06921 120.601H3.01412V115.122H6.06921V120.601ZM9.76969 120.601H6.7146V115.122H9.76969V120.601ZM13.4663 120.601H10.4113V115.122H13.4663V120.601ZM17.163 120.601H14.1079V115.122H17.163V120.601ZM20.8597 120.601H17.8046V115.122H20.8597V120.601Z"
            fill="#FF6D6D" opacity="0.1" />
        <path
            d="M-16.126 132.942V139.198H21.043V132.942H-16.126ZM-12.4217 138.802H-15.4539V133.338H-12.3988L-12.4217 138.802ZM-8.72126 138.802H-11.7764V133.338H-8.72126V138.802ZM-5.02841 138.802H-8.08351V133.338H-5.02841V138.802ZM-1.32794 138.802H-4.37921V133.338H-1.32412L-1.32794 138.802ZM2.36873 138.802H-0.686366V133.338H2.36873V138.802ZM6.06921 138.802H3.01412V133.338H6.06921V138.802ZM9.76969 138.802H6.7146V133.338H9.76969V138.802ZM13.4663 138.802H10.4113V133.338H13.4663V138.802ZM17.163 138.802H14.1079V133.338H17.163V138.802ZM20.8597 138.802H17.8046V133.338H20.8597V138.802Z"
            fill="#FF6D6D" opacity="0.1" />
        <path
            d="M-16.126 151.154V157.422H21.043V151.154H-16.126ZM-12.4217 157.014H-15.4539V151.546H-12.3988L-12.4217 157.014ZM-8.72126 157.014H-11.7764V151.546H-8.72126V157.014ZM-5.02841 157.014H-8.08351V151.546H-5.02841V157.014ZM-1.32794 157.014H-4.37921V151.546H-1.32412L-1.32794 157.014ZM2.36873 157.014H-0.686366V151.546H2.36873V157.014ZM6.06921 157.014H3.01412V151.546H6.06921V157.014ZM9.76969 157.014H6.7146V151.546H9.76969V157.014ZM13.4663 157.014H10.4113V151.546H13.4663V157.014ZM17.163 157.014H14.1079V151.546H17.163V157.014ZM20.8597 157.014H17.8046V151.546H20.8597V157.014Z"
            fill="#FF6D6D" opacity="0.1" />
        <path
            d="M-16.126 169.366V175.615H21.043V169.366H-16.126ZM-12.4217 175.226H-15.4539V169.754H-12.3988L-12.4217 175.226ZM-8.72126 175.226H-11.7764V169.754H-8.72126V175.226ZM-5.02841 175.226H-8.08351V169.754H-5.02841V175.226ZM-1.32794 175.226H-4.37921V169.754H-1.32412L-1.32794 175.226ZM2.36873 175.226H-0.686366V169.754H2.36873V175.226ZM6.06921 175.226H3.01412V169.754H6.06921V175.226ZM9.76969 175.226H6.7146V169.754H9.76969V175.226ZM13.4663 175.226H10.4113V169.754H13.4663V175.226ZM17.163 175.226H14.1079V169.754H17.163V175.226ZM20.8597 175.226H17.8046V169.754H20.8597V175.226Z"
            fill="#FF6D6D" opacity="0.1" />
        <path
            d="M-15.9656 187.574C-15.8166 188.163 -15.6486 188.751 -15.4729 189.332V187.966H-12.4179V193.435H-14.0523C-14.0027 193.562 -13.953 193.7 -13.9034 193.819H21.0431V187.574H-15.9656ZM-8.70973 193.435H-11.7648V187.966H-8.70973V193.435ZM-5.01689 193.435H-8.07198V187.966H-5.01689V193.435ZM-1.31641 193.435H-4.37914V187.966H-1.32404L-1.31641 193.435ZM2.38026 193.435H-0.674837V187.966H2.38026V193.435ZM6.08074 193.435H3.02565V187.966H6.08074V193.435ZM9.78122 193.435H6.72613V187.966H9.78122V193.435ZM13.4779 193.435H10.4228V187.966H13.4779V193.435ZM17.1745 193.435H14.1195V187.966H17.1745V193.435ZM20.8712 193.435H17.8161V187.966H20.8712V193.435Z"
            fill="#FF6D6D" opacity="0.1" />
        <path
            d="M-7.33502 205.786C-7.23955 205.909 -7.1479 206.048 -7.04861 206.171H-5.02843V208.797C-4.81075 209.059 -4.59689 209.32 -4.3754 209.566V206.155H-1.32031V211.643H-2.55762C-2.43542 211.77 -2.31703 211.904 -2.17574 212.027H21.0544V205.786H-7.33502ZM2.36872 211.643H-0.686377V206.178H2.36872V211.643ZM6.0692 211.643H3.0141V206.178H6.0692V211.643ZM9.76968 211.643H6.71459V206.178H9.76968V211.643ZM13.4663 211.643H10.4112V206.178H13.4663V211.643ZM17.163 211.643H14.1079V206.178H17.163V211.643ZM20.8597 211.643H17.8046V206.178H20.8597V211.643Z"
            fill="#FF6D6D" opacity="0.1" />
        <path
            d="M13.054 223.994C13.4015 224.194 13.7567 224.379 14.1157 224.579V224.387H17.1708V226.117L17.82 226.421V224.387H20.8751V227.713C20.9336 227.742 20.9951 227.766 21.0584 227.782V223.994H13.054Z"
            fill="#FF6D6D" opacity="0.1" />
        <path
            d="M265.126 128.408H265.149H265.126ZM241.602 241.903H241.984H241.602ZM217.058 184.156C217.13 184.402 217.191 184.648 217.26 184.89C217.199 184.648 217.134 184.402 217.058 184.156ZM265.126 128.396H265.149H265.126ZM34.4663 70.8144V72.4564H51.5252V70.8144H34.4663ZM241.602 241.903H241.984H241.602ZM217.058 184.156C217.13 184.402 217.191 184.648 217.26 184.89C217.199 184.648 217.134 184.402 217.058 184.156ZM265.126 128.396H265.149H265.126ZM241.602 241.891H241.984H241.602ZM217.058 184.156C217.13 184.402 217.191 184.648 217.26 184.89C217.199 184.648 217.134 184.402 217.058 184.156Z"
            fill="#FF6D6D" opacity="0.1" />
        <path
            d="M153.279 146.001C153.279 146.001 151.774 145.789 151.774 143.582C151.774 141.375 150.697 137.252 150.697 137.252C150.697 137.233 149.766 130.073 148.479 128.935C147.192 127.796 145.538 121.113 145.538 121.113C145.538 121.113 145.256 117.487 144.679 116.706C144.102 115.925 143.323 114.014 142.174 111.288C141.024 108.561 136.232 106.673 136.232 106.673C136.232 106.673 127.567 101.613 125.111 99.963C124.888 99.8274 124.679 99.6689 124.489 99.49C124.061 98.9247 122.197 98.9132 122.197 98.9132C122.002 97.6749 121.815 96.2521 121.754 94.9639C121.754 94.8254 121.754 94.687 121.735 94.5486C124.473 92.9188 126.536 90.3491 127.544 87.3114C127.589 87.1653 127.628 87.0114 127.67 86.8653C127.834 86.8109 127.985 86.7226 128.113 86.6061C128.241 86.4895 128.344 86.3473 128.414 86.1885C128.636 85.6925 128.64 85.1118 128.915 84.6503C129.235 84.1043 129.846 83.812 130.328 83.4006C131.542 82.3623 131.855 80.6126 131.798 79.0206C131.76 77.7323 131.553 76.4326 131.634 75.152L131.657 74.829C131.679 74.6367 131.706 74.4445 131.741 74.2599C131.928 73.3062 132.336 72.4064 132.565 71.4604C132.795 70.5144 132.818 69.4492 132.283 68.634C131.5 67.438 129.869 67.1996 128.437 67.0765C126.814 66.9381 125.363 67.1188 124.324 65.7614C123.838 65.0519 123.291 64.3867 122.69 63.7733C122.476 63.5733 120.399 62.2966 120.399 62.212C118.371 61.2664 116.073 61.0889 113.926 61.7121C112.849 62.0274 111.833 62.5427 110.741 62.8004C108.384 63.3618 105.673 62.7542 103.672 64.1117C102.557 64.8808 101.889 66.1036 101.262 67.2957C100.753 68.2776 100.236 69.2582 99.7118 70.2375C98.8678 71.8488 98.0086 73.4869 97.6534 75.2712C97.5787 75.6595 97.5328 76.0528 97.5159 76.4479V76.4672C97.5159 76.6095 97.5159 76.7517 97.5159 76.894V77.0748C97.5159 77.2093 97.5159 77.3401 97.5388 77.4593C97.5618 77.5785 97.5579 77.617 97.5694 77.6977C97.5808 77.7785 97.5999 77.9592 97.6229 78.0823C97.6458 78.2053 97.6916 78.4207 97.7374 78.5899C97.7565 78.6629 97.7832 78.7321 97.8062 78.8014C97.8443 78.9321 97.8902 79.059 97.9398 79.1859C97.9666 79.2513 97.9933 79.3205 98.0238 79.3859C98.0811 79.5205 98.1499 79.6512 98.2186 79.7704C98.2492 79.8243 98.2721 79.8743 98.3026 79.9242C98.4092 80.1031 98.5265 80.2752 98.6539 80.4395C99.4712 81.4663 100.674 82.12 101.564 83.0814C101.564 83.1198 101.564 83.1583 101.564 83.1929C101.564 83.3006 101.564 83.4044 101.564 83.5121C101.611 85.6561 102.178 87.7561 103.215 89.6293C104.252 91.5025 105.728 93.0922 107.514 94.2601C107.514 94.4063 107.533 94.5562 107.54 94.7024C107.615 95.8438 107.601 96.9894 107.498 98.1287C107.343 97.9443 107.148 97.7974 106.929 97.6988C106.709 97.6003 106.471 97.5527 106.231 97.5596C106.066 97.5515 105.902 97.5657 105.742 97.6019L105.707 97.5749V97.6095C104.867 97.8172 103.832 98.6978 102.843 101.201C102.843 101.201 99.834 104.616 97.5427 104.474C95.2513 104.331 89.4505 108.027 89.4505 108.027C89.4505 108.027 83.7909 111.726 82.5765 115.495C81.8977 117.632 81.0839 119.723 80.1401 121.755L73.1439 136.272L71.8531 147.789C71.8531 147.789 72.5673 152.911 72.426 153.692C72.2847 154.472 75.3627 161.514 75.3627 161.514C75.3627 161.514 85.5323 179.506 89.6873 180.429L89.9851 180.218C90.1629 180.311 90.3514 180.382 90.5465 180.429L91.4019 179.822C91.4533 180.499 91.4315 181.18 91.337 181.852C90.7642 183.629 91.5509 195.223 92.5514 197.496C93.5519 199.768 93.1968 229.567 93.1968 229.567L93.0555 232.197C93.0555 232.197 93.0555 232.282 93.0899 232.428L93.0555 233.051L93.1586 233.105C93.2657 233.939 93.2308 234.785 93.0555 235.608C92.6965 236.762 92.5514 240.023 92.5514 240.023C92.5514 240.023 89.6911 258.435 91.0468 262.134C92.4025 265.833 93.5558 269.886 93.5558 269.886C93.5558 269.886 94.9878 274.501 93.6245 275.289C92.2612 276.078 88.385 277.4 89.1832 279.323C89.9087 281.1 92.6621 285.861 93.0708 286.557L93.0364 286.922L92.475 293.048C92.5659 293.857 92.7838 294.646 93.1204 295.386C93.7352 296.72 94.9306 298.104 97.2028 297.954C97.5847 297.928 98.0277 297.881 98.4554 297.824C102.614 297.262 107.735 295.393 107.735 295.393C107.469 295.223 107.226 295.021 107.01 294.79C106.805 294.59 106.643 294.351 106.534 294.087C106.424 293.822 106.369 293.538 106.372 293.251C106.433 292.136 104.359 286.822 103.844 285.514C103.764 285.326 103.722 285.218 103.722 285.218C103.722 285.218 108.449 280.242 107.663 275.832C107.663 275.832 102.431 272.755 104.153 271.067C105.875 269.379 108.953 264.53 108.953 264.53C108.953 264.53 109.095 246.398 108.953 243.691C108.806 241.812 108.895 239.922 109.217 238.065C109.274 237.784 109.343 237.511 109.416 237.242C111.797 237.6 114.202 237.784 116.61 237.792C117.489 237.792 118.382 237.792 119.283 237.738C119.283 237.995 119.295 238.272 119.318 238.569C119.516 243.06 119.887 250.936 120.189 253.862C120.616 258.058 122.98 269.363 122.98 269.363C122.98 269.363 118.47 272.278 123.767 279.462C123.767 279.462 123.767 282.065 123.415 282.442C123.04 283.674 122.738 284.927 122.51 286.195C122.289 287.549 122.197 288.918 122.556 289.629C123.415 291.329 128.571 291.19 128.571 291.19L128.697 291.167C129.67 291.066 130.654 291.16 131.591 291.445C132.527 291.729 133.399 292.198 134.154 292.825C136.113 294.409 143.549 293.713 147.574 293.209C149.151 293.009 150.205 292.825 150.205 292.825C150.256 292.645 150.274 292.457 150.258 292.271C150.216 291.275 149.441 289.091 144.186 287.141C144.186 287.141 139.245 283.795 139.313 280.881H139.21H138.637C139.054 280.858 139.321 280.881 139.321 280.881C139.321 280.881 137.385 273.767 138.175 273.19C138.966 272.613 136.598 264.73 136.598 264.73C136.598 264.73 135.243 251.501 135.17 250.574C135.173 249.779 135.293 248.989 135.525 248.229L135.17 240.976C135.17 240.976 135.101 238.565 135.17 237.781C135.158 237.1 135.104 236.42 135.006 235.746C134.971 235.477 134.937 235.196 134.899 234.92C136.751 234.447 137.954 234.008 137.954 234.008L137.74 208.763C139.313 205.686 139.604 198.938 139.596 194.15C139.596 191.074 139.459 188.797 139.459 188.797L141.609 185.263C141.609 185.263 142.105 181.033 141.318 180.106C140.971 179.687 141.127 179.253 141.414 178.895C141.563 178.776 141.72 178.668 141.884 178.572C141.884 178.572 141.861 178.537 141.834 178.487C141.984 178.361 142.144 178.247 142.311 178.145C142.311 178.145 141.547 176.953 142.231 176.449C142.873 176.888 143.445 177.218 143.881 177.488C143.85 177.768 143.82 177.93 143.82 177.93L144.003 177.545C144.423 177.784 144.679 177.93 144.679 177.93C144.679 177.93 148.047 171.173 147.975 170.177C147.902 169.181 150.266 164.986 150.266 164.986C150.266 164.986 150.552 162.783 151.843 161.86C153.134 160.937 152.844 154.249 152.844 154.249C152.844 154.249 153.203 150.765 154.062 149.343C154.921 147.92 153.279 146.001 153.279 146.001ZM88.8318 143.036L88.8967 144.647C88.5149 144.028 88.2399 143.582 88.2399 143.582L88.8318 143.036Z"
            fill="url(#paint0_linear)" />
        <path
            d="M144.862 175.011L144.037 178.549C144.037 178.549 137.431 175.153 136.239 170.839C135.048 166.524 138.233 164.886 138.233 164.886L144.388 167.512L144.862 175.011Z"
            fill="white" />
        <path
            d="M144.862 175.011L144.037 178.549C144.037 178.549 137.431 175.153 136.239 170.839C135.048 166.524 138.233 164.886 138.233 164.886L144.388 167.512L144.862 175.011Z"
            fill="black" opacity="0.1" />
        <path
            d="M107.785 295.416C107.785 295.416 101.674 297.677 97.4737 297.962C95.2435 298.112 94.0711 296.735 93.4677 295.409C93.1381 294.671 92.9255 293.886 92.8376 293.082L93.3837 286.987L93.6739 283.742L102.599 281.407L103.863 285.299L103.981 285.595C104.489 286.895 106.524 292.182 106.463 293.286C106.461 293.569 106.515 293.849 106.623 294.11C106.73 294.371 106.889 294.607 107.09 294.805C107.295 295.038 107.528 295.243 107.785 295.416Z"
            fill="white" />
        <path
            d="M149.521 292.317C149.536 292.502 149.518 292.688 149.468 292.867C149.468 292.867 136.399 295.062 133.726 292.867C132.973 292.225 132.094 291.75 131.147 291.47C130.2 291.191 129.205 291.114 128.227 291.244C128.227 291.244 123.171 291.382 122.327 289.706C121.976 289.002 122.067 287.637 122.285 286.291C122.507 285.03 122.803 283.783 123.171 282.557L123.373 282.396L124.576 281.423L138.66 281.003H138.767C138.698 283.903 143.548 287.229 143.548 287.229C148.7 289.152 149.46 291.325 149.521 292.317Z"
            fill="white" />
        <path
            d="M149.521 292.317C149.535 292.502 149.515 292.688 149.464 292.867C149.464 292.867 136.4 295.063 133.726 292.867C132.973 292.226 132.095 291.75 131.149 291.471C130.203 291.191 129.209 291.114 128.231 291.244C128.231 291.244 123.171 291.382 122.331 289.706C121.979 288.998 122.067 287.637 122.285 286.291C124.233 286.487 127.307 286.976 128.514 288.141C130.339 289.913 133.432 291.682 135.33 291.821C136.816 291.917 145.702 292.201 149.521 292.317Z"
            fill="black" opacity="0.1" />
        <path
            d="M107.785 295.416C107.785 295.416 101.675 297.678 97.4738 297.962C95.2436 298.112 94.0712 296.735 93.4717 295.405C95.026 295.932 97.1836 296.486 98.3178 295.978C99.6621 295.378 104.428 294.99 107.101 294.824C107.305 295.049 107.534 295.247 107.785 295.416Z"
            fill="black" opacity="0.1" />
        <path
            d="M116.851 113.199C111.81 111.226 105.325 104.708 106.945 101.662C107.304 100.894 107.518 100.064 107.575 99.2167C107.679 98.066 107.694 96.9089 107.62 95.7558C107.507 93.8673 107.281 91.9874 106.945 90.126C106.945 90.126 122.682 90.4837 121.766 92.8179C121.498 93.5024 121.456 94.6906 121.529 96.0211C121.601 97.3517 121.792 98.8552 121.991 100.128C122.266 101.874 122.541 103.204 122.541 103.204C122.541 103.204 121.578 104.562 121.013 104.635C120.448 104.708 124.084 116.01 116.851 113.199Z"
            fill="#FFEFDE" />
        <path
            d="M103.97 285.595L103.851 285.726C99.1465 279.996 93.4563 287.137 93.4563 287.137L93.3723 286.987L93.6626 283.742L102.587 281.407L103.851 285.299L103.97 285.595Z"
            fill="black" opacity="0.1" />
        <path
            d="M138.771 281.407C138.771 281.407 135.334 281.334 133.501 282.965C131.668 284.595 122.808 283.319 123.19 282.965C123.303 282.79 123.371 282.589 123.389 282.38L124.592 281.407L138.676 280.988C138.729 281.246 138.771 281.407 138.771 281.407Z"
            fill="black" opacity="0.1" />
        <path
            d="M109.824 236.412C109.568 237.049 109.374 237.709 109.244 238.384C108.925 240.232 108.837 242.113 108.98 243.983C109.121 246.675 108.98 264.714 108.98 264.714C108.98 264.714 105.959 269.525 104.275 271.221C102.591 272.917 107.712 275.962 107.712 275.962C108.476 280.346 103.848 285.299 103.848 285.299C99.1427 279.569 93.4526 286.714 93.4526 286.714C93.4526 286.714 90.3593 281.33 89.5879 279.408C88.8165 277.485 92.6086 276.154 93.9414 275.374C95.2742 274.593 93.8765 269.99 93.8765 269.99C93.8765 269.99 92.7499 265.956 91.4133 262.276C90.0767 258.596 92.8874 240.276 92.8874 240.276C92.8874 240.276 93.0325 237.023 93.38 235.889C93.5553 235.07 93.5902 234.227 93.4831 233.397C93.4602 233.116 93.4335 232.881 93.4144 232.724C93.3953 232.566 93.38 232.493 93.38 232.493L93.4335 232.401L95.3429 228.817C95.3429 228.817 110.741 234.154 109.824 236.412Z"
            fill="#1D2366" />
        <path
            d="M138.771 280.984C138.771 280.984 135.334 280.911 133.501 282.523C131.668 284.134 122.808 282.876 123.19 282.523C123.572 282.169 123.541 279.55 123.541 279.55C118.344 272.405 122.778 269.506 122.778 269.506C122.778 269.506 120.456 258.258 120.036 254.085C119.742 251.17 119.379 243.337 119.184 238.865C119.1 236.942 119.05 235.619 119.05 235.619L123.297 234.758L123.843 234.647L134.085 232.578C134.085 232.578 134.368 234.5 134.559 236.073C134.654 236.745 134.708 237.422 134.719 238.1C134.65 238.869 134.719 241.276 134.719 241.276L135.067 248.494C134.84 249.251 134.723 250.037 134.719 250.828C134.788 251.747 136.121 264.906 136.121 264.906C136.121 264.906 138.439 272.759 137.648 273.324C136.858 273.889 138.771 280.984 138.771 280.984Z"
            fill="#1D2366" />
        <path
            d="M121.766 92.8179C121.498 93.5024 121.456 94.6906 121.529 96.0211C119.421 97.2994 116.998 97.9529 114.537 97.9066C112.077 97.8604 109.68 97.1162 107.621 95.7596C107.507 93.8699 107.281 91.9886 106.945 90.126C106.945 90.126 122.682 90.476 121.766 92.8179Z"
            fill="black" opacity="0.1" />
        <path
            d="M127.849 84.3196C127.852 85.7053 127.636 87.0827 127.207 88.3997C126.251 91.3505 124.289 93.8658 121.668 95.501C119.048 97.1361 115.938 97.7858 112.888 97.3353C109.838 96.8848 107.044 95.363 105.001 93.039C102.957 90.7149 101.795 87.7382 101.72 84.635C101.72 84.5273 101.72 84.4273 101.72 84.3196C101.691 82.5729 102.007 80.8376 102.65 79.2152C103.293 77.5927 104.251 76.1154 105.467 74.8696C106.684 73.6238 108.134 72.6343 109.734 71.9588C111.334 71.2834 113.052 70.9355 114.787 70.9355C116.522 70.9355 118.239 71.2834 119.839 71.9588C121.439 72.6343 122.89 73.6238 124.106 74.8696C125.322 76.1154 126.28 77.5927 126.923 79.2152C127.566 80.8376 127.883 82.5729 127.853 84.3196H127.849Z"
            fill="#FFEFDE" />
        <path
            d="M116.851 113.199C111.81 111.227 105.325 104.708 106.945 101.663C107.304 100.894 107.518 100.065 107.575 99.2172L114.475 104.928L118.745 108.454L121.991 100.132C122.266 101.878 122.541 103.209 122.541 103.209C122.541 103.209 121.578 104.566 121.013 104.639C120.448 104.712 124.084 116.01 116.851 113.199Z"
            fill="black" opacity="0.1" />
        <path
            d="M134.696 138.437L128.934 235.919L121.418 236.415L101.957 179.891L105.15 112.784L105.822 98.6056L114.475 105.762L118.749 109.288L122.09 100.724L128.303 106.177L134.696 138.437Z"
            fill="#1D2366" />
        <path
            d="M109.824 236.412C109.568 237.049 109.374 237.709 109.244 238.384C103.775 237.534 98.4637 235.863 93.4869 233.428L93.3838 233.374L93.4182 232.755L93.4373 232.432L95.3467 228.848C95.3467 228.848 110.741 234.154 109.824 236.412Z"
            fill="black" opacity="0.1" />
        <path
            d="M123.385 238.4C121.987 238.639 120.577 238.801 119.161 238.884C119.077 236.961 119.028 235.639 119.028 235.639L123.274 234.777L123.385 238.4Z"
            fill="black" opacity="0.1" />
        <path
            d="M134.536 236.092C131.821 236.804 127.628 237.604 123.874 237.104L123.82 234.666L134.062 232.597C134.062 232.597 134.345 234.5 134.536 236.092Z"
            fill="black" opacity="0.1" />
        <path
            d="M123.805 237.55C108.148 240.242 93.8077 232.524 93.8077 232.524L93.9451 229.909C93.9451 229.909 94.3003 200.264 93.315 197.992C92.3298 195.719 91.5622 184.194 92.1197 182.425C92.6773 180.656 90.0843 154.13 90.0843 154.13L89.6642 143.363L74.2894 137.091L81.1634 122.663C82.0918 120.64 82.8904 118.559 83.554 116.433C84.7493 112.688 90.2981 109.008 90.2981 109.008C90.2981 109.008 95.9882 105.331 98.2375 105.47C100.487 105.608 103.435 102.217 103.435 102.217C105.612 96.6291 107.582 99.1594 107.582 99.1594C107.582 99.4247 107.582 99.1594 107.475 99.9862C106.712 106.12 119.826 125.501 120.013 125.843L121.262 156.476L122.526 195.242L123.805 237.55Z"
            fill="black" opacity="0.1" />
        <path
            d="M123.385 237.55C107.728 240.242 93.3838 232.524 93.3838 232.524L93.5251 229.909C93.5251 229.909 93.8803 200.264 92.8912 197.991C91.9021 195.719 91.1383 184.194 91.6997 182.425C92.2611 180.656 89.6643 154.13 89.6643 154.13L89.2404 143.363L73.858 137.068L80.7319 122.639C81.6584 120.616 82.4568 118.535 83.1225 116.41C84.314 112.664 89.8667 108.984 89.8667 108.984C89.8667 108.984 95.5568 105.308 97.8023 105.446C100.048 105.585 103 102.193 103 102.193C105.18 96.6057 107.582 99.136 107.582 99.136C107.582 99.4013 107.353 99.5205 107.475 99.9628C109.156 105.912 119.406 125.477 119.593 125.82L120.857 156.453L122.121 195.219L123.385 237.55Z"
            fill="white" />
        <path
            d="M119.165 126.693C117.481 125.985 108.56 115.729 108.56 115.729V113.395C108.235 112.626 106.307 113.095 104.741 113.634L105.413 99.4555L106.177 100.094C107.85 106.039 118.97 126.351 119.165 126.693Z"
            fill="black" opacity="0.1" />
        <path
            d="M119.589 125.843C117.901 125.135 108.98 114.88 108.98 114.88V112.545C108.655 111.776 106.727 112.245 105.161 112.784L105.837 98.6055L106.601 99.2439C108.277 105.189 119.402 125.505 119.589 125.843Z"
            fill="white" />
        <path
            d="M93.8076 176.992C94.0176 176.992 104.695 175.861 104.695 175.861C104.695 175.861 111.161 188.663 110.737 191.777C110.313 194.892 109.545 197.649 106.945 197.161C104.344 196.673 92.9484 197.546 92.9484 197.546L93.8076 176.992Z"
            fill="black" opacity="0.1" />
        <path
            d="M93.3838 176.142C93.5938 176.142 104.271 175.011 104.271 175.011C104.271 175.011 110.733 187.816 110.313 190.927C109.893 194.038 109.118 196.799 106.521 196.311C103.924 195.823 92.5245 196.696 92.5245 196.696L93.3838 176.142Z"
            fill="white" />
        <path
            d="M101.43 170.131C101.43 170.131 111.229 175.434 111.439 177.053C111.649 178.672 106.452 176.345 105.329 176.065C104.59 175.885 103.838 175.767 103.08 175.711L95.591 175.915L101.43 170.131Z"
            fill="#FFEFDE" />
        <path
            d="M116.431 127.354C117 127.354 117.462 126.89 117.462 126.316C117.462 125.743 117 125.278 116.431 125.278C115.861 125.278 115.4 125.743 115.4 126.316C115.4 126.89 115.861 127.354 116.431 127.354Z"
            fill="black" opacity="0.1" />
        <path
            d="M116.431 126.931C117 126.931 117.462 126.466 117.462 125.893C117.462 125.319 117 124.854 116.431 124.854C115.861 124.854 115.4 125.319 115.4 125.893C115.4 126.466 115.861 126.931 116.431 126.931Z"
            fill="#3F3D56" />
        <path
            d="M118.329 172.3C118.898 172.3 119.36 171.835 119.36 171.262C119.36 170.688 118.898 170.223 118.329 170.223C117.759 170.223 117.298 170.688 117.298 171.262C117.298 171.835 117.759 172.3 118.329 172.3Z"
            fill="black" opacity="0.1" />
        <path
            d="M118.329 171.873C118.898 171.873 119.36 171.408 119.36 170.835C119.36 170.261 118.898 169.797 118.329 169.797C117.759 169.797 117.298 170.261 117.298 170.835C117.298 171.408 117.759 171.873 118.329 171.873Z"
            fill="#3F3D56" />
        <path
            d="M117.458 149.827C118.027 149.827 118.489 149.362 118.489 148.789C118.489 148.215 118.027 147.75 117.458 147.75C116.888 147.75 116.427 148.215 116.427 148.789C116.427 149.362 116.888 149.827 117.458 149.827Z"
            fill="black" opacity="0.1" />
        <path
            d="M117.458 149.404C118.027 149.404 118.489 148.939 118.489 148.366C118.489 147.792 118.027 147.327 117.458 147.327C116.888 147.327 116.427 147.792 116.427 148.366C116.427 148.939 116.888 149.404 117.458 149.404Z"
            fill="#3F3D56" />
        <path
            d="M141.227 175.495C141.227 175.495 141.929 176.557 141.227 177.053C140.524 177.549 141.295 178.749 141.295 178.749C141.295 178.749 139.543 179.783 140.314 180.714C141.085 181.644 140.597 185.847 140.597 185.847L138.488 189.362C138.488 189.362 138.615 191.627 138.622 194.688C138.622 199.464 138.343 206.178 136.801 209.239L137.014 234.354C137.014 234.354 129.633 237.069 123.454 236.242L122.537 195.942C122.537 195.942 123.874 173.088 124.366 168.704C124.655 166.428 124.772 164.134 124.718 161.84C124.718 161.84 124.508 154.98 123.801 151.796C123.801 151.796 123.037 138.002 122.961 134.184C122.927 132.357 123.022 127.027 123.129 121.959C123.247 116.418 123.381 111.192 123.381 111.192L121.987 100.086C121.987 100.086 123.381 99.9436 123.801 100.509C123.989 100.686 124.194 100.844 124.412 100.982C126.818 102.62 135.319 107.658 135.319 107.658C135.319 107.658 140.024 109.542 141.15 112.241C142.277 114.941 143.06 116.856 143.606 117.625C144.152 118.394 144.45 122.009 144.45 122.009C144.45 122.009 146.069 128.662 147.333 129.788C148.597 130.915 149.521 138.083 149.521 138.083L138.351 146.927C138.351 146.927 137.37 161.64 137.16 162.209C136.95 162.779 141.227 175.495 141.227 175.495Z"
            fill="white" />
        <path
            d="M141.65 175.495C141.65 175.495 142.349 176.557 141.65 177.053C140.951 177.549 141.715 178.749 141.715 178.749C141.715 178.749 139.974 179.795 140.738 180.725C141.501 181.656 141.02 185.859 141.02 185.859L138.912 189.374C138.912 189.374 139.038 191.639 139.05 194.7C139.05 199.476 138.771 206.19 137.228 209.251L137.438 234.366C137.438 234.366 130.045 237.081 123.873 236.254L122.961 195.953C122.961 195.953 124.297 173.1 124.79 168.716C125.079 166.44 125.195 164.145 125.138 161.852C125.138 161.852 124.927 154.991 124.225 151.807C124.225 151.807 123.461 138.014 123.381 134.195C123.346 132.369 123.446 127.039 123.549 121.97C123.667 116.429 123.801 111.203 123.801 111.203L121.96 99.9474C121.96 99.9474 123.801 99.9474 124.225 100.52C124.411 100.699 124.616 100.858 124.836 100.993C127.242 102.632 135.746 107.669 135.746 107.669C135.746 107.669 140.447 109.553 141.574 112.253C142.7 114.952 143.483 116.867 144.033 117.637C144.583 118.406 144.873 122.02 144.873 122.02C144.873 122.02 146.493 128.673 147.757 129.8C149.021 130.926 149.933 138.079 149.933 138.079L138.763 146.924C138.763 146.924 137.782 161.636 137.568 162.205C137.354 162.775 141.65 175.495 141.65 175.495Z"
            fill="white" />
        <path
            d="M128.273 114.468L129.281 117.429L123.973 122.813C124.091 117.275 124.225 112.045 124.225 112.045L122.384 100.79C122.384 100.79 124.225 100.79 124.649 101.363C124.835 101.541 125.04 101.699 125.26 101.832L129.774 114.945L128.273 114.468Z"
            fill="black" opacity="0.1" />
        <path
            d="M127.849 113.618L128.861 116.579L123.553 121.963C123.671 116.421 123.805 111.195 123.805 111.195L121.96 99.9397C121.96 99.9397 123.805 99.9397 124.225 100.513C124.412 100.691 124.617 100.849 124.836 100.986L129.354 114.095L127.849 113.618Z"
            fill="white" />
        <path
            d="M127.849 84.3196C127.852 85.7054 127.636 87.0827 127.207 88.3997C127.135 88.411 127.062 88.4077 126.991 88.3898C126.92 88.372 126.853 88.34 126.795 88.2959C126.696 84.8349 125.004 81.5855 122.923 78.8206C122.338 77.9858 121.63 77.2465 120.822 76.6287C120.006 76.0112 118.99 75.7219 117.973 75.8173C116.828 75.975 115.816 76.7594 114.659 76.8594C113.131 76.9863 111.764 75.9211 110.248 75.8673C109.632 75.8732 109.024 76.0114 108.464 76.2727C107.905 76.5339 107.408 76.9123 107.006 77.3824C106.209 78.3312 105.617 79.4365 105.268 80.628C104.668 82.4347 104.341 84.3222 104.298 86.227C104.279 87.3037 104.176 88.6535 103.183 89.0457C103.258 88.2539 103.168 87.455 102.921 86.6997C102.673 85.9444 102.272 85.2492 101.743 84.658L101.72 84.635C101.72 84.5273 101.72 84.4273 101.72 84.3196C101.691 82.5729 102.007 80.8377 102.65 79.2152C103.293 77.5927 104.251 76.1155 105.467 74.8696C106.684 73.6238 108.134 72.6343 109.734 71.9588C111.334 71.2834 113.052 70.9355 114.787 70.9355C116.522 70.9355 118.239 71.2834 119.839 71.9588C121.439 72.6343 122.89 73.6238 124.106 74.8696C125.322 76.1155 126.28 77.5927 126.923 79.2152C127.566 80.8377 127.883 82.5729 127.853 84.3196H127.849Z"
            fill="black" opacity="0.1" />
        <path
            d="M120.196 63.4271C118.211 62.4871 115.954 62.3093 113.849 62.9272C112.791 63.2425 111.794 63.7539 110.721 64.0116C108.43 64.5692 105.757 63.9654 103.79 65.3152C102.698 66.0843 102.041 67.2995 101.43 68.48L99.9024 71.4103C99.0699 73.0138 98.2298 74.6443 97.8823 76.4094C97.5347 78.1744 97.7448 80.151 98.8561 81.57C99.6657 82.6044 100.861 83.2543 101.739 84.2272C102.266 84.819 102.665 85.5138 102.912 86.2682C103.159 87.0225 103.249 87.8202 103.175 88.611C104.172 88.2265 104.267 86.8729 104.29 85.7962C104.333 83.8914 104.66 82.0039 105.26 80.1972C105.609 79.0053 106.201 77.8999 106.998 76.9516C107.401 76.4818 107.898 76.1037 108.457 75.8425C109.016 75.5813 109.624 75.4429 110.24 75.4365C111.768 75.4903 113.139 76.5517 114.651 76.4248C115.797 76.3286 116.812 75.5403 117.966 75.3865C118.983 75.2896 119.999 75.579 120.815 76.1979C121.622 76.8148 122.329 77.5542 122.911 78.3898C124.996 81.1547 126.688 84.3964 126.787 87.865C127.219 88.1842 127.841 87.7689 128.055 87.2767C128.269 86.7844 128.277 86.2076 128.548 85.7385C128.861 85.1963 129.46 84.9079 129.93 84.5002C131.122 83.4658 131.42 81.7238 131.374 80.1433C131.328 78.5628 131.022 76.9593 131.32 75.4057C131.5 74.452 131.905 73.5599 132.126 72.6177C132.348 71.6756 132.374 70.6181 131.851 69.8067C131.087 68.6146 129.48 68.38 128.078 68.2685C126.486 68.1301 125.061 68.307 124.045 66.9572C123.569 66.2529 123.032 65.5915 122.441 64.9807C122.239 64.7807 120.196 63.5117 120.196 63.4271Z"
            fill="#512E4E" />
        <path
            d="M78.6888 144.52L74.6981 137.091L73.434 148.554C73.434 148.554 74.1367 153.646 73.9954 154.426C73.8541 155.207 76.8748 162.206 76.8748 162.206C76.8748 162.206 86.8535 180.102 90.9283 181.025L104.695 171.119L101.044 166.451C101.044 166.451 99.7804 165.955 99.4634 166.451C99.4634 166.451 92.6849 154.707 91.9823 153.857C91.2796 153.007 91.4171 151.311 91.4171 151.311C91.4171 151.311 90.3631 150.181 90.7144 149.119C91.0657 148.058 88.6789 144.378 88.6789 144.378L90.8557 142.328L78.6888 144.52Z"
            fill="black" opacity="0.1" />
        <path
            d="M74.908 136.245L73.854 137.091L72.59 148.554C72.59 148.554 73.2926 153.646 73.1513 154.426C73.01 155.207 76.0346 162.206 76.0346 162.206C76.0346 162.206 86.0095 180.103 90.0842 181.026L103.855 171.12L100.2 166.451C100.2 166.451 98.9363 165.955 98.6194 166.451C98.6194 166.451 91.8409 154.707 91.1382 153.857C90.4355 153.007 90.5768 151.312 90.5768 151.312C90.5768 151.312 89.5228 150.181 89.8742 149.12C90.2255 148.058 87.8349 144.378 87.8349 144.378L90.0116 142.329L74.908 136.245Z"
            fill="white" />
        <path
            d="M140.314 181.152C141.078 182.087 140.596 186.282 140.596 186.282L138.488 189.797C138.488 189.797 138.614 192.066 138.622 195.123L135.078 196.238C134.758 196.339 134.418 196.361 134.088 196.302C133.757 196.244 133.445 196.107 133.178 195.903C132.911 195.698 132.696 195.433 132.552 195.128C132.407 194.823 132.337 194.488 132.348 194.15L132.959 174.303L141.227 177.487C140.524 177.98 141.295 179.187 141.295 179.187C141.295 179.187 139.542 180.218 140.314 181.152Z"
            fill="black" opacity="0.1" />
        <path
            d="M140.738 180.725C141.502 181.66 141.02 185.859 141.02 185.859L138.912 189.374C138.912 189.374 139.038 191.639 139.05 194.7L135.441 195.834C135.127 195.932 134.795 195.954 134.471 195.896C134.148 195.839 133.843 195.705 133.581 195.504C133.32 195.304 133.11 195.044 132.968 194.746C132.827 194.447 132.758 194.119 132.768 193.788L133.383 173.88L141.654 177.064C140.948 177.557 141.719 178.76 141.719 178.76C141.719 178.76 139.974 179.795 140.738 180.725Z"
            fill="white" />
        <path
            d="M143.476 171.265C143.476 171.265 142.914 174.876 141.509 175.088C140.104 175.299 139.474 180.929 138.072 180.729C136.671 180.529 137.599 175.495 137.648 174.519C137.698 173.542 136.121 169.497 137.301 168.578C138.481 167.658 142.216 168.578 142.216 168.578L143.476 171.265Z"
            fill="#FFEFDE" />
        <path
            d="M146.466 143.459L149.116 138.075C149.116 138.075 150.17 142.178 150.17 144.37C150.17 146.562 151.644 146.778 151.644 146.778C151.644 146.778 153.26 148.7 152.408 150.1C151.557 151.5 151.213 154.984 151.213 154.984C151.213 154.984 151.492 161.633 150.228 162.552C148.964 163.471 148.7 165.667 148.7 165.667C148.7 165.667 146.378 169.839 146.451 170.831C146.523 171.823 143.22 178.541 143.22 178.541C143.22 178.541 144.835 170.193 135.422 166.586C135.422 166.586 135.349 163.751 136.052 162.975C136.755 162.198 137.851 161.844 137.163 157.918C136.476 153.992 136.965 149.3 136.965 148.358C136.965 147.416 139.073 141.54 139.073 141.54L146.466 143.459Z"
            fill="black" opacity="0.1" />
        <path
            d="M147.612 137.306L149.926 138.075C149.926 138.075 150.984 142.178 150.984 144.37C150.984 146.562 152.458 146.777 152.458 146.777C152.458 146.777 154.073 148.7 153.221 150.1C152.37 151.5 152.03 154.984 152.03 154.984C152.03 154.984 152.309 161.633 151.045 162.552C149.781 163.471 149.498 165.666 149.498 165.666C149.498 165.666 147.18 169.839 147.253 170.831C147.325 171.823 144.018 178.541 144.018 178.541C144.018 178.541 145.637 170.193 136.22 166.585C136.22 166.585 136.151 163.751 136.854 162.975C137.557 162.198 138.653 161.844 137.965 157.918C137.278 153.992 137.767 149.3 137.767 148.358C137.767 147.416 139.875 141.54 139.875 141.54L147.612 137.306Z"
            fill="white" />
        <path
            d="M96.4962 276.847C96.4962 276.847 100.185 274.512 102.606 276.208C105.028 277.904 96.4962 276.847 96.4962 276.847Z"
            fill="black" opacity="0.1" />
        <path
            d="M125.161 269.629C125.161 269.629 128.426 269.206 131.168 272.178C133.91 275.151 125.161 269.629 125.161 269.629Z"
            fill="black" opacity="0.1" />
        <g opacity="0.1">
            <path
                d="M129.938 83.6579C129.468 84.0655 128.865 84.3578 128.552 84.9C128.284 85.3653 128.277 85.9383 128.063 86.4382C127.849 86.9381 127.227 87.3457 126.795 87.0304C126.696 83.5695 125 80.3201 122.919 77.5513C122.337 76.7158 121.63 75.9763 120.822 75.3594C120.005 74.7406 118.988 74.4513 117.97 74.548C116.824 74.7057 115.816 75.4902 114.659 75.5863C113.131 75.717 111.76 74.6518 110.244 74.598C109.628 74.6042 109.02 74.7429 108.462 75.0049C107.903 75.2669 107.407 75.646 107.006 76.117C106.209 77.0638 105.617 78.168 105.268 79.3587C104.668 81.1656 104.341 83.053 104.298 84.9577C104.275 86.0306 104.176 87.3688 103.191 87.7687C103.214 88.0528 103.214 88.3383 103.191 88.6224C104.184 88.2379 104.283 86.8843 104.306 85.8075C104.348 83.9028 104.675 82.0153 105.276 80.2085C105.624 79.0167 106.216 77.9113 107.013 76.963C107.415 76.4933 107.912 76.1153 108.47 75.854C109.029 75.5928 109.636 75.4543 110.252 75.4479C111.779 75.5017 113.154 76.563 114.666 76.4361C115.812 76.34 116.828 75.5517 117.977 75.3979C118.995 75.3011 120.013 75.5905 120.83 76.2093C121.637 76.8261 122.345 77.5656 122.927 78.4012C125.008 81.1661 126.703 84.4078 126.803 87.8764C127.234 88.1956 127.857 87.7803 128.071 87.2881C128.284 86.7958 128.292 86.219 128.559 85.7499C128.873 85.2077 129.476 84.9192 129.946 84.5116C131.137 83.4772 131.435 81.7352 131.389 80.1547C131.389 80.1047 131.389 80.0547 131.389 80.0086C131.317 81.3776 130.954 82.7735 129.938 83.6579Z"
                fill="black" opacity="0.1" />
            <path
                d="M101.747 83.3851C100.869 82.4122 99.6697 81.7623 98.864 80.7318C98.1855 79.8194 97.7979 78.7212 97.7527 77.5823C97.6325 79.0055 98.0272 80.4245 98.864 81.5778C99.6697 82.6122 100.869 83.2621 101.747 84.235C102.591 85.1866 103.097 86.3929 103.187 87.6651C103.245 86.8909 103.148 86.1127 102.901 85.3773C102.653 84.6418 102.261 83.9642 101.747 83.3851Z"
                fill="black" opacity="0.1" />
            <path
                d="M132.134 71.7757C131.909 72.7178 131.508 73.6138 131.324 74.5636C131.216 75.1983 131.176 75.843 131.206 76.4864C131.219 76.1199 131.258 75.7549 131.324 75.3942C131.508 74.4406 131.909 73.5484 132.134 72.6063C132.265 72.0866 132.308 71.5483 132.26 71.0143C132.236 71.2708 132.194 71.5252 132.134 71.7757Z"
                fill="black" opacity="0.1" />
        </g>
        <path
            d="M358.761 181.398C358.761 181.398 352.456 149.811 354.869 145.881C354.869 145.881 354.957 142.228 354.812 137.571C354.812 137.394 354.812 137.218 354.812 137.037C355.237 137.322 355.679 137.579 356.137 137.806C358.361 138.956 360.914 139.288 363.355 138.744L361.445 136.602C360.987 136.091 360.51 135.537 360.41 134.86C360.311 134.183 360.586 133.58 360.823 132.976C362.637 128.361 362.732 122.559 359.238 119.036C356.286 116.075 355.568 112.253 352.364 109.549C350.023 107.569 348.736 104.666 347.522 101.858C346.494 99.4858 345.459 97.0939 344.871 94.579C344.413 92.614 344.23 90.5797 343.6 88.6608C342.97 86.7419 341.79 84.8769 339.945 84.0193C339.288 83.7156 338.559 83.5425 337.959 83.1387C337.173 82.6042 336.699 81.7351 336.13 80.9737C333.239 77.1283 323.558 79.3933 318.976 80.9545C317.73 81.3477 316.576 81.9913 315.585 82.8465L315.627 82.7773C315.661 82.7196 315.703 82.6619 315.741 82.6042C315.239 83.0126 314.806 83.4995 314.458 84.0463C313.79 85.1115 313.511 86.3535 312.953 87.5072C312.281 88.8723 308.543 92.6832 310.15 94.2175C310.263 94.3206 310.392 94.4038 310.532 94.4636C311.136 94.7166 311.8 94.7835 312.442 94.6559L312.373 94.8213C311.824 96.175 311.542 97.6236 311.544 99.0859C311.544 105.404 316.719 110.526 323.108 110.526C324.309 110.527 325.503 110.342 326.648 109.976C326.675 110.122 326.697 110.269 326.724 110.415C326.724 110.472 326.743 110.53 326.751 110.588L326.548 110.872C326.538 110.855 326.527 110.838 326.514 110.822L320.518 119.259C319.602 119.909 314.324 123.755 314.026 126.639C313.713 129.796 313.4 133.491 313.4 133.491L313.358 134.283C313.096 134.504 312.79 134.665 312.46 134.754C312.13 134.844 311.785 134.86 311.449 134.803C309.577 134.495 309.577 141.724 309.577 141.724C309.577 141.724 308.332 142.878 307.477 141.878C306.622 140.878 304.361 144.266 304.361 144.266L290.193 144.882L289.868 144.901L289.105 142.52C289.022 142.269 288.845 142.061 288.611 141.941C288.377 141.821 288.106 141.798 287.856 141.878C287.797 141.898 287.739 141.922 287.684 141.951L287.63 141.982L287.531 142.051L287.481 142.097C287.454 142.122 287.429 142.149 287.405 142.178L287.359 142.232L287.336 142.255C287.248 142.378 287.19 142.52 287.166 142.669C287.142 142.819 287.153 142.972 287.199 143.116L287.856 145.158C285.121 145.712 282.326 147.273 284.606 151.573L273.05 149.423L276.789 152.584L296.089 156.595C295.833 157.056 296.001 157.725 296.8 158.668C300.236 162.732 306.499 163.836 309.02 164.12C309.685 165.62 310.517 167.039 311.498 168.35L311.281 172.4C311.281 172.4 304.899 203.263 303.731 204.829C304.321 204.155 304.861 203.44 305.346 202.687C303.494 209.028 300.905 217.707 300.225 219.007C299.133 221.083 298.121 229.486 299.366 230.024C299.748 230.189 300.84 230.109 302.398 229.989V230.685L302.329 257.061C302.329 257.061 302.642 273.239 301.783 274.781C300.924 276.323 300.695 279.557 300.695 279.557C300.695 279.557 297.258 285.937 294.535 288.502C294.516 288.522 294.496 288.54 294.474 288.556L294.39 287.956C294.39 287.956 291.117 292.117 283.876 291.882C283.876 291.882 279.519 294.736 285.981 294.889C292.442 295.043 300.695 294.659 300.695 294.659C300.695 294.659 306.457 285.814 311.284 286.968V293.67H312.762V286.86C313.448 286.406 314.034 285.816 314.487 285.126C314.939 284.437 315.247 283.662 315.394 282.849C315.52 282.011 315.427 281.154 315.125 280.363C314.822 279.572 314.32 278.874 313.667 278.338C313.374 278.072 313.139 277.747 312.977 277.384C312.815 277.021 312.729 276.629 312.724 276.231L312.671 276.277C312.671 276.143 312.636 276.004 312.621 275.862C312.197 272.401 311.666 265.26 313.541 259.976C316.112 252.731 316.891 242.641 315.019 236.634C314.416 234.714 313.92 232.762 313.534 230.785C313.488 230.535 313.446 230.297 313.408 230.074C314.687 230.248 315.954 230.505 317.2 230.843C321.534 232.047 331.017 232.27 339.113 232.204C339.132 232.427 339.155 232.662 339.181 232.897C339.326 234.527 339.627 236.14 340.083 237.711C341.098 240.787 341.564 254.35 341.564 254.35C341.564 254.35 342.874 265.502 342.16 270.04C341.778 272.563 341.396 275.097 341.179 277.642V277.692C341.179 277.692 339.032 283.845 337.463 287.187C337.425 287.271 337.383 287.356 337.344 287.437C336.926 287.475 336.514 287.567 336.119 287.71C336.119 287.71 334.014 291.94 331.918 292.64C329.821 293.34 330.516 295.643 335.263 294.797C340.01 293.951 347.178 293.259 347.178 293.259L347.487 288.944L348.946 287.106L348.564 291.409L350.119 291.102L349.912 285.868L352.299 282.861C352.299 282.861 355.182 280.277 350.898 275.193V275.304C350.852 275.231 350.81 275.154 350.76 275.081V275.058C350.05 273.951 349.485 271.886 350.519 268.221C352.391 261.599 353.479 255.589 353.479 255.589C353.479 255.589 357.657 239.488 352.635 231.87H352.857C352.342 230.798 351.978 229.659 351.776 228.486C351.75 228.347 351.728 228.205 351.707 228.059C355.423 227.844 359.07 227.167 362.045 225.706C362.033 225.69 360.242 187.482 358.761 181.398ZM311.586 154.749V154.826L310.822 154.864L311.586 154.749ZM308.966 155.114C308.841 155.142 308.723 155.199 308.623 155.28C308.294 155.748 308.088 156.291 308.023 156.86L306.832 156.591C306.832 156.591 305.995 156.41 304.792 156.206L304.223 155.63C305.789 155.499 307.416 155.307 308.966 155.114Z"
            fill="url(#paint1_linear)" />
        <path d="M348.389 285.922L347.934 291.371L349.458 291.063L349.229 285.153L348.389 285.922Z"
            fill="#1D2366" />
        <path
            d="M313.625 260.05C311.789 265.318 312.308 272.428 312.72 275.881C312.873 277.158 313.014 277.935 313.014 277.935C313.014 277.935 310.269 284.234 310.04 284.472C309.81 284.711 301.959 289.537 301.959 289.537L296.471 292.763C296.471 292.763 290.903 290.306 293.573 289.46C294.118 289.239 294.609 288.902 295.012 288.472C297.685 285.914 301.042 279.558 301.042 279.558C301.042 279.558 301.271 276.331 302.112 274.797C302.952 273.263 302.646 257.139 302.646 257.139L302.711 230.855V227.429L313.156 227.506C313.222 228.669 313.372 229.826 313.606 230.966C313.981 232.936 314.467 234.882 315.061 236.796C316.902 242.791 316.138 252.832 313.625 260.05Z"
            fill="#FFEFDE" />
        <path
            d="M313.014 277.935C313.014 277.935 310.269 284.234 310.04 284.472C309.81 284.711 301.959 289.537 301.959 289.537L296.471 292.763C296.471 292.763 290.903 290.306 293.573 289.46C294.118 289.239 294.609 288.902 295.012 288.471L295.249 290.152L297.078 290.075L312.736 275.889C312.873 277.158 313.014 277.935 313.014 277.935Z"
            fill="black" opacity="0.1" />
        <path
            d="M312.823 276.247L297.078 290.529L295.249 290.605L294.867 287.914C294.867 287.914 291.667 292.059 284.556 291.828C284.556 291.828 280.287 294.67 286.614 294.824C292.942 294.978 301.023 294.593 301.023 294.593C301.023 294.593 306.667 285.749 311.391 286.902V293.582H312.842V286.841C313.517 286.383 314.093 285.793 314.535 285.106C314.978 284.419 315.277 283.648 315.416 282.841C315.542 282.01 315.453 281.16 315.158 280.374C314.863 279.587 314.372 278.89 313.732 278.35C313.446 278.08 313.218 277.754 313.062 277.393C312.906 277.031 312.825 276.641 312.823 276.247Z"
            fill="#1D2366" />
        <path
            d="M349.84 268.263C348.824 271.917 349.378 273.974 350.073 275.078V275.101C350.964 276.463 351.584 277.987 351.898 279.588L351.959 279.934L344.795 290.452L340.907 291.99C340.907 291.99 334.656 289.84 335.798 289.225C336.084 289.075 336.531 288.275 337.043 287.171C338.57 283.845 340.678 277.708 340.678 277.708V277.658C340.9 275.124 341.251 272.597 341.641 270.082C342.339 265.556 341.056 254.447 341.056 254.447C341.056 254.447 340.598 240.937 339.605 237.865C339.157 236.303 338.859 234.701 338.715 233.081C338.509 231.158 338.463 229.574 338.463 229.574C338.463 229.574 342.58 223.806 350.126 230.036C350.729 230.532 351.26 231.112 351.703 231.758C356.916 239.226 352.719 255.677 352.719 255.677C352.719 255.677 351.669 261.661 349.84 268.263Z"
            fill="#FFEFDE" />
        <path
            d="M351.971 279.935L344.807 290.452L340.919 291.99C340.919 291.99 334.668 289.841 335.809 289.225C336.096 289.075 336.543 288.276 337.054 287.172C339.701 287.149 341.072 289.687 341.072 289.687L344.425 289.148C344.425 289.148 348.847 280.396 349.84 279.862C350.833 279.327 349.993 275.866 349.993 275.866V274.986C350.019 275.016 350.042 275.051 350.073 275.082V275.105C350.964 276.468 351.584 277.992 351.898 279.592L351.971 279.935Z"
            fill="black" opacity="0.1" />
        <path
            d="M341.301 289.914C341.301 289.914 339.391 286.383 335.733 287.687C335.733 287.687 333.675 291.917 331.616 292.602C329.558 293.286 330.245 295.593 334.897 294.751C339.548 293.909 346.559 293.213 346.559 293.213L346.865 288.91L351.593 282.846C351.593 282.846 354.411 280.273 350.218 275.209V276.089C350.218 276.089 351.058 279.55 350.065 280.085C349.072 280.619 344.665 289.375 344.665 289.375L341.301 289.914Z"
            fill="#1D2366" />
        <path
            d="M313.167 227.498C313.233 228.661 313.384 229.818 313.618 230.959C309.318 230.324 305.327 230.64 302.711 230.847V227.421L313.167 227.498Z"
            fill="black" opacity="0.1" />
        <path
            d="M352.127 232.716C352.127 232.716 346.017 233.016 338.731 233.078C338.524 231.155 338.479 229.57 338.479 229.57C338.479 229.57 342.595 223.802 350.141 230.032C350.745 230.529 351.276 231.109 351.719 231.755C351.837 232.083 351.973 232.404 352.127 232.716Z"
            fill="black" opacity="0.1" />
        <path
            d="M352.127 232.024C352.127 232.024 325.365 233.327 317.207 231.024C309.05 228.721 300.966 230.716 299.748 230.182C298.529 229.647 299.519 221.276 300.588 219.203C301.657 217.13 307.523 196.169 307.523 196.169L313.167 166.535L319.113 164.886L319.533 164.767L329.894 161.89L337.486 159.779C337.486 159.779 352.582 219.126 351.287 223.502C350.817 225.178 350.741 226.941 351.066 228.651C351.263 229.819 351.621 230.954 352.127 232.024Z"
            fill="#1D2366" />
        <path
            d="M293.492 146.27C293.492 146.27 288.146 152.038 292.194 155.253C296.242 158.468 298.904 155.561 298.904 155.561L293.492 146.27Z"
            fill="#C7DAF5" />
        <path
            d="M293.492 146.27C293.492 146.27 288.146 152.038 292.194 155.253C296.242 158.468 298.904 155.561 298.904 155.561L293.492 146.27Z"
            fill="black" opacity="0.1" />
        <path
            d="M336.688 108.346C336.688 108.346 336.061 108.946 335.118 109.83C333.774 111.095 331.784 112.945 330.02 114.495C327.576 116.637 325.559 118.21 326.281 116.867C327.003 115.525 326.866 113.187 326.507 110.999C326.48 110.853 326.457 110.707 326.43 110.565C326.133 108.958 325.739 107.371 325.25 105.812C325.25 105.812 329.199 100.674 331.383 98.6477C332.197 97.8786 332.766 97.5633 332.8 98.0978C332.838 98.8169 333.373 100.405 334.037 102.089C334.056 102.143 334.075 102.193 334.098 102.247C334.541 103.401 335.042 104.585 335.481 105.608C336.153 107.177 336.688 108.346 336.688 108.346Z"
            fill="#FFEFDE" />
        <path
            d="M334.098 102.247C333.727 104.257 332.827 106.129 331.492 107.669C330.156 109.209 328.434 110.359 326.507 110.999C326.203 109.244 325.783 107.511 325.25 105.812C325.25 105.812 332.685 96.1406 332.8 98.0979C332.827 98.8401 333.407 100.486 334.098 102.247Z"
            fill="black" opacity="0.1" />
        <path
            d="M325.765 113.584L326.728 112.218C326.728 112.218 327.366 116.133 329.71 114.407C332.055 112.68 332.17 127.4 332.17 127.4L329.653 165.29L311.468 164.194L311.983 145.886L314.042 136.656L319.132 123.24L322.16 118.806L325.765 113.584Z"
            fill="black" opacity="0.1" />
        <path
            d="M332.17 127.635L329.879 161.894L329.638 165.524L319.499 164.913L319.117 164.89L311.479 164.428L311.995 146.116L314.053 136.887L319.144 123.47L322.172 119.036L325.777 113.795L326.74 112.434C326.74 112.434 327.377 116.348 329.722 114.622L329.772 114.587C332.063 113.126 332.17 127.635 332.17 127.635Z"
            fill="#1D2366" />
        <path
            d="M314.309 133.68C314.309 133.68 313.396 135.603 311.563 135.291C309.73 134.98 309.734 142.213 309.734 142.213C309.734 142.213 308.516 143.367 307.676 142.367C306.835 141.367 304.62 144.747 304.62 144.747L290.743 145.363C290.743 145.363 296.918 148.204 295.707 156.803C295.707 156.803 316.673 155.495 317.36 153.5C318.048 151.504 314.309 133.68 314.309 133.68Z"
            fill="white" />
        <path
            d="M314.309 133.68C314.309 133.68 313.396 135.603 311.563 135.291C309.73 134.98 309.734 142.213 309.734 142.213C309.734 142.213 308.516 143.367 307.676 142.367C306.835 141.367 304.62 144.747 304.62 144.747L290.743 145.363C290.743 145.363 296.918 148.204 295.707 156.803C295.707 156.803 316.673 155.495 317.36 153.5C318.048 151.504 314.309 133.68 314.309 133.68Z"
            fill="black" opacity="0.03" />
        <path d="M273.978 149.881L277.636 153.027L307.752 159.399L304.017 155.561L273.978 149.881Z"
            fill="white" />
        <path
            d="M325.823 114.795C325.323 115.564 323.89 119.502 322.695 122.94C321.698 125.804 320.866 128.323 320.866 128.323C320.866 128.323 318.922 141.067 317.929 143.37C316.936 145.674 317.475 154.657 317.475 154.657L313.774 176.841C313.774 176.841 312.098 188.282 309.509 195.115C306.954 201.841 304.109 204.994 304.021 205.094C305.167 203.533 311.41 172.792 311.41 172.792L313.473 134.022C313.473 134.022 313.774 130.338 314.08 127.189C314.385 124.039 320.572 119.74 320.572 119.74L326.537 111.199C327.137 112.007 326.736 113.414 325.823 114.795Z"
            fill="white" />
        <path
            d="M310.269 164.621C310.269 164.621 301.485 164.236 297.231 159.091C292.977 153.946 307.065 157.037 307.065 157.037L310.727 157.883L310.269 164.621Z"
            fill="#FFEFDE" />
        <path
            d="M351.287 223.506C350.817 225.182 350.741 226.945 351.065 228.655C341.484 229.34 331.234 226.732 331.234 226.732C329.325 228.501 324.295 231.109 324.295 231.109L321.553 196.884C319.8 192.269 319.113 168.093 319.113 168.093C319.113 168.093 319.27 166.828 319.495 164.932C319.495 164.886 319.495 164.836 319.514 164.79C320.198 159.495 321.553 149.554 322.218 148.212C323.134 146.366 319.399 141.455 319.399 141.455L321.099 126.862L321.305 125.101C324.887 123.489 327.633 118.344 327.633 118.344L329.741 114.626C332.032 113.145 332.151 127.654 332.151 127.654L329.859 161.913L337.451 159.802C337.451 159.802 352.582 219.13 351.287 223.506Z"
            fill="black" opacity="0.1" />
        <path
            d="M361.121 225.871C350.676 231.093 331.693 226.255 331.693 226.255C329.783 228.024 324.754 230.632 324.754 230.632L322.008 196.407C320.259 191.792 319.572 167.616 319.572 167.616C319.572 167.616 321.779 149.577 322.695 147.735C322.963 147.197 322.833 146.397 322.516 145.535C320.958 141.435 320.384 137.022 320.843 132.657L321.576 126.385L321.779 124.628C325.365 123.012 328.111 117.867 328.111 117.867L330.02 114.499L333.533 108.292L335.198 105.354L335.481 105.612L337.639 107.581C337.639 107.581 338.555 108.35 339.93 109.503C342.92 112.041 348.087 116.51 350.753 119.244C353.097 121.651 353.838 131.015 354.052 138.064C354.193 142.705 354.109 146.343 354.109 146.343C351.745 150.261 357.928 181.721 357.928 181.721C359.368 187.801 361.121 225.871 361.121 225.871Z"
            fill="white" />
        <path
            d="M341.071 117.791C341.071 117.791 333.903 131.53 334.736 136.753C335.569 141.975 337.936 147.885 336.794 149.266C336.402 149.789 335.895 150.213 335.313 150.506C334.73 150.799 334.088 150.952 333.438 150.954C332.292 151.031 329.237 153.18 329.237 153.411C329.237 153.642 326.415 153.642 323.89 154.719C321.366 155.795 317.639 156.407 317.639 156.407C317.639 156.407 310.383 156.176 309.707 156.868C309.031 157.56 308.336 161.702 309.784 165.005C311.231 168.309 312.839 170.773 314.053 171.223C315.267 171.673 322.974 169.074 329.225 168.459C335.477 167.843 342.263 162.856 342.263 162.856C342.263 162.856 349.736 160.164 351.046 155.638C352.356 151.112 349.446 126.235 349.446 126.235C349.446 126.235 347.247 114.641 341.071 117.791Z"
            fill="black" opacity="0.03" />
        <path
            d="M340.155 116.637C340.155 116.637 332.987 130.38 333.827 135.599C334.667 140.817 337.027 146.731 335.882 148.116C335.491 148.639 334.984 149.064 334.403 149.357C333.821 149.65 333.179 149.803 332.529 149.804C331.383 149.881 328.328 152.03 328.328 152.261C328.328 152.492 325.506 152.492 322.982 153.565C320.457 154.638 316.73 155.253 316.73 155.253C316.73 155.253 309.474 155.022 308.802 155.714C308.13 156.407 307.427 160.552 308.879 163.851C310.33 167.151 311.934 169.62 313.148 170.07C314.362 170.519 322.069 167.92 328.32 167.308C334.572 166.697 341.358 161.702 341.358 161.702C341.358 161.702 348.828 159.01 350.122 154.488C351.417 149.965 348.522 125.081 348.522 125.081C348.522 125.081 346.33 113.491 340.155 116.637Z"
            fill="black" opacity="0.03" />
        <path
            d="M340.846 117.098C340.846 117.098 333.678 130.842 334.519 136.06C335.359 141.279 337.719 147.193 336.577 148.573C336.186 149.098 335.679 149.524 335.097 149.818C334.514 150.112 333.872 150.265 333.22 150.266C332.075 150.342 329.019 152.492 329.019 152.719C329.019 152.946 326.201 152.95 323.673 154.026C321.145 155.103 317.422 155.715 317.422 155.715C317.422 155.715 310.166 155.484 309.49 156.176C308.814 156.868 308.119 161.014 309.566 164.313C311.013 167.612 312.621 170.081 313.836 170.531C315.05 170.981 322.756 168.381 329.008 167.766C335.259 167.151 342.046 162.163 342.046 162.163C342.046 162.163 349.519 159.472 350.829 154.945C352.139 150.419 349.248 125.543 349.248 125.543C349.248 125.543 347.018 113.968 340.846 117.098Z"
            fill="white" />
        <path
            d="M340.69 153.961C340.69 153.961 334.961 152.807 336.955 154.73C338.948 156.653 338.937 158.337 341.377 158.26C343.817 158.183 340.69 153.961 340.69 153.961Z"
            fill="black" opacity="0.1" />
        <path
            d="M350.371 195.33C350.371 195.33 347.781 197.095 352.734 201.164C357.688 205.232 350.371 195.33 350.371 195.33Z"
            fill="black" opacity="0.1" />
        <path
            d="M345.429 209.839C345.429 210.07 344.512 218.299 347.942 220.356C351.371 222.414 345.429 209.839 345.429 209.839Z"
            fill="black" opacity="0.1" />
        <path
            d="M290.98 145.343C288.215 145.439 282.242 146.289 285.339 152.107C288.077 157.257 292.679 153.815 295.268 151.204C294.637 148.769 293.102 146.672 290.98 145.343Z"
            fill="#FFEFDE" />
        <path d="M295.303 151.156L295.416 151.038L295.303 151.156Z" fill="#FFEFDE" />
        <path
            d="M339.93 109.738C336.997 111.757 334.538 113.46 334.056 113.814C332.743 114.795 330.238 120.552 328.622 123.489C327.335 125.854 323.154 126.462 321.576 126.612L321.779 124.855C325.365 123.24 328.111 118.094 328.111 118.094L335.198 105.581L337.639 107.815C337.639 107.815 338.555 108.584 339.93 109.738Z"
            fill="black" opacity="0.1" />
        <path
            d="M339.93 109.507C336.997 111.526 334.538 113.23 334.056 113.587C332.743 114.564 330.238 120.321 328.622 123.259C327.335 125.624 323.154 126.231 321.576 126.381L321.779 124.624C325.365 123.009 328.111 117.864 328.111 117.864L335.198 105.35L337.639 107.577C337.639 107.577 338.555 108.338 339.93 109.507Z"
            fill="#DCE7FF" />
        <path
            d="M334.286 99.709C334.287 102.017 333.592 104.272 332.292 106.173C330.757 108.421 328.473 110.041 325.853 110.738C323.233 111.435 320.452 111.164 318.015 109.973C315.577 108.782 313.644 106.75 312.566 104.247C311.489 101.744 311.338 98.9342 312.142 96.3285C312.945 93.7229 314.65 91.4936 316.946 90.0452C319.242 88.5968 321.978 88.0252 324.657 88.4342C327.336 88.8431 329.78 90.2055 331.547 92.2742C333.314 94.3428 334.285 96.9806 334.286 99.709Z"
            fill="#FFEFDE" />
        <path
            d="M354.052 138.068C352.501 137.107 351.238 135.741 350.397 134.115C349.759 132.846 349.336 131.38 348.247 130.481C347.266 129.673 345.956 129.477 344.734 129.115C340.716 127.92 337.348 124.228 337.222 120.013C337.161 118.029 337.776 116.049 337.497 114.084C337.339 112.971 336.899 111.919 336.222 111.026C335.885 110.6 335.516 110.2 335.118 109.83C334.583 109.323 334.022 108.831 333.533 108.292C333.225 107.959 332.956 107.591 332.731 107.196C332.549 106.873 332.402 106.532 332.292 106.177C331.528 103.824 332.223 101.032 331.383 98.6517L331.337 98.5209C331.02 97.6749 330.375 96.8289 329.477 96.7636C328.58 96.6982 327.812 97.4481 326.957 97.7826C325.166 98.4825 323.234 97.2904 321.74 96.0752C320.247 94.8601 318.563 93.4718 316.665 93.741C315.409 93.9218 314.416 94.7831 313.259 95.2292C312.997 95.3311 312.728 95.4096 312.453 95.4638C313.432 93.0047 315.231 90.9657 317.541 89.6972C319.851 88.4287 322.528 88.0099 325.111 88.5127C327.695 89.0155 330.023 90.4085 331.698 92.4524C333.372 94.4963 334.287 97.0636 334.285 99.713C334.287 100.513 334.203 101.311 334.037 102.093C334.056 102.147 334.075 102.197 334.098 102.251C334.541 103.405 335.042 104.589 335.481 105.612L337.638 107.581C337.638 107.581 338.555 108.35 339.93 109.504C342.92 112.042 348.087 116.51 350.752 119.244C353.097 121.659 353.83 131.019 354.052 138.068Z"
            fill="black" opacity="0.1" />
        <path
            d="M313.125 88.2033C313.671 87.0843 313.942 85.8307 314.595 84.7693C315.554 83.2312 317.227 82.2467 318.945 81.6507C323.432 80.0933 332.914 77.8321 335.748 81.6507C336.306 82.4198 336.768 83.2735 337.539 83.8041C338.127 84.2079 338.837 84.381 339.483 84.6847C341.289 85.5384 342.442 87.3996 343.057 89.2993C343.672 91.199 343.855 93.237 344.306 95.1944C344.883 97.7055 345.895 100.086 346.903 102.451C348.091 105.243 349.351 108.138 351.642 110.111C354.77 112.803 355.461 116.614 358.363 119.567C361.8 123.074 361.69 128.861 359.918 133.457C359.685 134.06 359.421 134.691 359.513 135.333C359.604 135.976 360.078 136.56 360.525 137.071L362.404 139.206C357.959 140.286 352.929 137.948 350.859 133.845C350.222 132.576 349.798 131.115 348.705 130.211C347.728 129.404 346.414 129.211 345.196 128.85C341.178 127.65 337.81 123.955 337.684 119.74C337.623 117.76 338.238 115.779 337.959 113.818C337.804 112.698 337.363 111.638 336.68 110.742C335.63 109.361 334.045 108.434 333.189 106.896C331.742 104.324 332.842 100.982 331.799 98.2208C331.479 97.3748 330.837 96.5288 329.94 96.4634C329.042 96.398 328.274 97.1479 327.415 97.4824C325.628 98.1823 323.696 96.9941 322.202 95.7751C320.709 94.556 319.025 93.1717 317.123 93.4447C315.867 93.6216 314.878 94.483 313.721 94.9329C312.865 95.2636 311.132 95.5597 310.383 94.8329C308.802 93.3678 312.464 89.5723 313.125 88.2033Z"
            fill="#591D4B" />
        <path
            d="M351.921 132.576C351.28 131.307 350.859 129.846 349.767 128.946C348.79 128.138 347.476 127.942 346.254 127.581C342.24 126.385 338.872 122.689 338.742 118.475C338.681 116.494 339.296 114.51 339.021 112.549C338.861 111.437 338.421 110.384 337.742 109.492C336.688 108.111 335.103 107.185 334.251 105.646C332.804 103.078 333.904 99.7359 332.857 96.971C332.54 96.1288 331.895 95.2828 331.001 95.2136C330.108 95.1444 329.332 95.9019 328.477 96.2365C326.69 96.9364 324.754 95.7443 323.264 94.5291C321.775 93.3139 320.083 91.9257 318.185 92.1949C316.929 92.3756 315.936 93.237 314.783 93.6831C313.927 94.0138 312.19 94.3138 311.441 93.587C309.868 92.0488 313.53 88.261 314.187 86.8997C314.733 85.7768 315.004 84.527 315.661 83.4657C315.695 83.408 315.734 83.3503 315.772 83.2927C315.28 83.7025 314.856 84.1879 314.515 84.7309C313.862 85.7922 313.591 87.0381 313.045 88.1649C312.384 89.5261 308.722 93.3255 310.299 94.8521C311.063 95.5828 312.782 95.2828 313.637 94.9521C314.783 94.5022 315.783 93.6408 317.04 93.4639C318.949 93.1909 320.629 94.5791 322.119 95.7943C323.608 97.0094 325.556 98.2015 327.335 97.5016C328.191 97.1671 328.939 96.4134 329.856 96.4826C330.772 96.5518 331.383 97.394 331.715 98.24C332.758 101.001 331.658 104.343 333.106 106.915C333.961 108.427 335.546 109.373 336.596 110.761C337.279 111.658 337.72 112.718 337.875 113.837C338.154 115.798 337.539 117.779 337.6 119.759C337.726 123.989 341.095 127.669 345.112 128.869C346.323 129.231 347.644 129.423 348.622 130.23C349.718 131.134 350.149 132.595 350.775 133.864C352.845 137.967 357.875 140.306 362.32 139.225L361.434 138.217C357.581 138.275 353.682 136.068 351.921 132.576Z"
            fill="black" opacity="0.1" />
        <path
            d="M325.594 115.026C325.093 115.795 323.661 119.733 322.466 123.17C321.347 122.732 320.331 119.936 320.331 119.936L326.296 111.392C326.907 112.238 326.506 113.641 325.594 115.026Z"
            fill="black" opacity="0.1" />
        <path
            d="M325.823 114.795C325.323 115.564 323.89 119.502 322.695 122.939C321.576 122.505 320.56 119.705 320.56 119.705L326.525 111.165C327.136 112.007 326.736 113.414 325.823 114.795Z"
            fill="#DCE7FF" />
        <path
            d="M291.14 154.08L287.833 143.578C287.794 143.455 287.779 143.326 287.79 143.197C287.8 143.069 287.836 142.943 287.895 142.829C287.954 142.714 288.035 142.612 288.133 142.529C288.231 142.446 288.344 142.383 288.467 142.344C288.713 142.267 288.979 142.29 289.208 142.41C289.437 142.529 289.61 142.735 289.689 142.982L292.996 153.473L292.667 155.669L291.14 154.08Z"
            fill="#BE8B87" />
        <path
            d="M288.146 142.656C288.393 142.577 288.66 142.6 288.89 142.72C289.12 142.839 289.293 143.046 289.372 143.294L292.679 153.784L292.431 155.43L292.671 155.684L293 153.488L289.674 142.998C289.595 142.751 289.422 142.545 289.193 142.425C288.964 142.306 288.698 142.282 288.452 142.359C288.244 142.427 288.066 142.562 287.944 142.744C288.009 142.709 288.076 142.679 288.146 142.656Z"
            fill="white" opacity="0.1" />
        <path
            d="M291.14 154.08L292.996 153.488L292.725 155.287L292.667 155.684L292.125 155.114L291.14 154.08Z"
            fill="#EFC8C4" />
        <path
            d="M292.125 155.115C292.157 155.073 292.198 155.039 292.243 155.015C292.27 154.997 292.301 154.988 292.333 154.988C292.365 154.988 292.396 154.997 292.423 155.015C292.449 155.046 292.471 155.081 292.488 155.118C292.513 155.161 292.547 155.197 292.588 155.224C292.629 155.252 292.676 155.269 292.725 155.276L292.667 155.661L292.125 155.115Z"
            fill="#727A9C" />
        <path
            d="M287.814 147.308C287.814 147.308 294.447 147.27 292.885 150.112C291.323 152.954 288.883 153.296 288.883 153.296L287.814 147.308Z"
            fill="#FFEFDE" />
        <path
            d="M246.558 19.7734H246.272C234.876 19.7734 224.799 25.8454 219.001 34.8053C213.204 25.8454 203.126 19.7734 191.731 19.7734H191.445C182.893 19.8555 174.718 23.3328 168.698 29.4497C162.678 35.5665 159.298 43.8287 159.294 52.4406C159.294 63.1349 163.945 78.3091 173.015 90.7953C190.295 114.587 219.001 135.403 219.001 135.403C219.001 135.403 247.708 114.591 264.984 90.7953C274.058 78.3091 278.706 63.1349 278.706 52.4406C278.701 43.8293 275.322 35.5678 269.302 29.451C263.283 23.3342 255.11 19.8565 246.558 19.7734ZM242.461 92.6258C241.163 92.6208 239.897 92.2208 238.829 91.4782C237.761 90.7357 236.941 89.6853 236.477 88.465H229.664C229.215 88.4622 228.779 88.3184 228.415 88.0536C228.051 87.7889 227.779 87.4165 227.636 86.9883L225.543 80.6394L218.921 103.939C218.792 104.388 218.522 104.782 218.152 105.063C217.781 105.344 217.33 105.496 216.867 105.497H216.733C216.249 105.473 215.788 105.283 215.427 104.958C215.065 104.633 214.825 104.194 214.747 103.712L207.923 62.3812L202.935 86.8383C202.821 87.3029 202.556 87.7156 202.181 88.0104C201.807 88.3053 201.345 88.4653 200.869 88.465H191.273C190.985 88.4772 190.698 88.4308 190.428 88.3284C190.159 88.226 189.913 88.0697 189.705 87.8691C189.497 87.6685 189.332 87.4275 189.219 87.1609C189.106 86.8942 189.048 86.6072 189.048 86.3173C189.048 86.0273 189.106 85.7404 189.219 85.4737C189.332 85.207 189.497 84.9661 189.705 84.7655C189.913 84.5648 190.159 84.4086 190.428 84.3062C190.698 84.2038 190.985 84.1573 191.273 84.1696H199.189L206.254 51.287C206.37 50.8008 206.65 50.3703 207.046 50.0691C207.443 49.7679 207.931 49.6146 208.427 49.6355C208.923 49.6564 209.396 49.8501 209.766 50.1836C210.136 50.5171 210.38 50.9697 210.455 51.4639L217.424 93.6256L223.359 72.7793C223.482 72.3403 223.744 71.9532 224.104 71.676C224.464 71.3988 224.903 71.2462 225.356 71.2411H225.398C225.847 71.2413 226.284 71.3841 226.648 71.6493C227.011 71.9144 227.282 72.2884 227.422 72.7178L231.207 84.1811H236.393C236.761 83.0531 237.432 82.0496 238.332 81.2814C239.231 80.5131 240.324 80.0101 241.489 79.8276C242.654 79.6452 243.847 79.7906 244.936 80.2476C246.024 80.7047 246.966 81.4557 247.657 82.4178C248.349 83.3799 248.763 84.5156 248.854 85.6996C248.944 86.8837 248.709 88.0699 248.172 89.1276C247.636 90.1852 246.82 91.073 245.814 91.693C244.808 92.313 243.652 92.6411 242.472 92.6412L242.461 92.6258Z"
            fill="#FF6D6D" />
    </g>
    <defs>
        <linearGradient gradientUnits="userSpaceOnUse" id="paint0_linear" x1="113.078" x2="113.078"
            y1="297.974" y2="61.3468">
            <stop stop-color="#808080" stop-opacity="0.25" />
            <stop offset="0.54" stop-color="#808080" stop-opacity="0.12" />
            <stop offset="1" stop-color="#808080" stop-opacity="0.1" />
        </linearGradient>
        <linearGradient gradientUnits="userSpaceOnUse" id="paint1_linear" x1="85220" x2="85220"
            y1="178538" y2="57075.5">
            <stop stop-color="#808080" stop-opacity="0.25" />
            <stop offset="0.54" stop-color="#808080" stop-opacity="0.12" />
            <stop offset="1" stop-color="#808080" stop-opacity="0.1" />
        </linearGradient>
        <clipPath id="clip0">
            <rect fill="white" height="301" transform="translate(-23)" width="422" />
        </clipPath>
    </defs>
</svg>
